<?xml version="1.0" encoding="utf-8" standalone="no"?>
<!DOCTYPE svg PUBLIC "-//W3C//DTD SVG 1.1//EN"
  "http://www.w3.org/Graphics/SVG/1.1/DTD/svg11.dtd">
<svg xmlns:xlink="http://www.w3.org/1999/xlink" width="432pt" height="216pt" viewBox="0 0 432 216" xmlns="http://www.w3.org/2000/svg" version="1.1">
 <metadata>
  <rdf:RDF xmlns:dc="http://purl.org/dc/elements/1.1/" xmlns:cc="http://creativecommons.org/ns#" xmlns:rdf="http://www.w3.org/1999/02/22-rdf-syntax-ns#">
   <cc:Work>
    <dc:type rdf:resource="http://purl.org/dc/dcmitype/StillImage"/>
    <dc:date>2024-03-18T17:57:27.350012</dc:date>
    <dc:format>image/svg+xml</dc:format>
    <dc:creator>
     <cc:Agent>
      <dc:title>Matplotlib v3.5.2, https://matplotlib.org/</dc:title>
     </cc:Agent>
    </dc:creator>
   </cc:Work>
  </rdf:RDF>
 </metadata>
 <defs>
  <style type="text/css">*{stroke-linejoin: round; stroke-linecap: butt}</style>
 </defs>
 <g id="figure_1">
  <g id="patch_1">
   <path d="M 0 216 
L 432 216 
L 432 0 
L 0 0 
z
" style="fill: #ffffff"/>
  </g>
  <g id="axes_1">
   <g id="patch_2">
    <path d="M 54 192.24 
L 388.8 192.24 
L 388.8 25.92 
L 54 25.92 
z
" style="fill: #ffffff"/>
   </g>
   <g id="PolyCollection_1">
    <defs>
     <path id="m7f7497e7a2" d="M 69.218182 -23.76 
L 69.218182 -23.76 
L 99.654545 -23.76 
L 130.090909 -23.76 
L 160.527273 -23.76 
L 190.963636 -23.76 
L 221.4 -23.76 
L 251.836364 -23.76 
L 282.272727 -23.76 
L 312.709091 -23.76 
L 343.145455 -23.76 
L 373.581818 -23.76 
L 373.581818 -36.001613 
L 373.581818 -36.001613 
L 343.145455 -23.76 
L 312.709091 -23.76 
L 282.272727 -23.76 
L 251.836364 -23.76 
L 221.4 -23.76 
L 190.963636 -23.76 
L 160.527273 -23.76 
L 130.090909 -23.76 
L 99.654545 -23.76 
L 69.218182 -23.76 
z
" style="stroke: #1f77b4"/>
    </defs>
    <g clip-path="url(#p4e5a8ffc46)">
     <use xlink:href="#m7f7497e7a2" x="0" y="216" style="fill: #1f77b4; stroke: #1f77b4"/>
    </g>
   </g>
   <g id="PolyCollection_2">
    <defs>
     <path id="m97271881cc" d="M 69.218182 -23.76 
L 69.218182 -23.76 
L 99.654545 -23.76 
L 130.090909 -23.76 
L 160.527273 -23.76 
L 190.963636 -23.76 
L 221.4 -23.76 
L 251.836364 -23.76 
L 282.272727 -23.76 
L 312.709091 -23.76 
L 343.145455 -23.76 
L 373.581818 -36.001613 
L 373.581818 -36.001613 
L 373.581818 -36.001613 
L 343.145455 -23.76 
L 312.709091 -23.76 
L 282.272727 -23.76 
L 251.836364 -23.76 
L 221.4 -23.76 
L 190.963636 -23.76 
L 160.527273 -23.76 
L 130.090909 -23.76 
L 99.654545 -23.76 
L 69.218182 -23.76 
z
" style="stroke: #ff7f0e"/>
    </defs>
    <g clip-path="url(#p4e5a8ffc46)">
     <use xlink:href="#m97271881cc" x="0" y="216" style="fill: #ff7f0e; stroke: #ff7f0e"/>
    </g>
   </g>
   <g id="PolyCollection_3">
    <defs>
     <path id="m9f3aed6029" d="M 69.218182 -50.026419 
L 69.218182 -23.76 
L 99.654545 -23.76 
L 130.090909 -23.76 
L 160.527273 -23.76 
L 190.963636 -23.76 
L 221.4 -23.76 
L 251.836364 -23.76 
L 282.272727 -23.76 
L 312.709091 -23.76 
L 343.145455 -23.76 
L 373.581818 -36.001613 
L 373.581818 -36.001613 
L 373.581818 -36.001613 
L 343.145455 -23.76 
L 312.709091 -23.76 
L 282.272727 -35.885998 
L 251.836364 -35.245005 
L 221.4 -32.833077 
L 190.963636 -39.854766 
L 160.527273 -43.935865 
L 130.090909 -42.181287 
L 99.654545 -41.653044 
L 69.218182 -50.026419 
z
" style="stroke: #2ca02c"/>
    </defs>
    <g clip-path="url(#p4e5a8ffc46)">
     <use xlink:href="#m9f3aed6029" x="0" y="216" style="fill: #2ca02c; stroke: #2ca02c"/>
    </g>
   </g>
   <g id="PolyCollection_4">
    <defs>
     <path id="m261503d42c" d="M 69.218182 -50.026419 
L 69.218182 -50.026419 
L 99.654545 -41.653044 
L 130.090909 -42.181287 
L 160.527273 -43.935865 
L 190.963636 -39.854766 
L 221.4 -32.833077 
L 251.836364 -35.245005 
L 282.272727 -35.885998 
L 312.709091 -23.76 
L 343.145455 -23.76 
L 373.581818 -36.001613 
L 373.581818 -36.001613 
L 373.581818 -36.001613 
L 343.145455 -23.76 
L 312.709091 -23.76 
L 282.272727 -35.885998 
L 251.836364 -35.245005 
L 221.4 -32.833077 
L 190.963636 -39.854766 
L 160.527273 -43.935865 
L 130.090909 -42.181287 
L 99.654545 -41.653044 
L 69.218182 -50.026419 
z
" style="stroke: #d62728"/>
    </defs>
    <g clip-path="url(#p4e5a8ffc46)">
     <use xlink:href="#m261503d42c" x="0" y="216" style="fill: #d62728; stroke: #d62728"/>
    </g>
   </g>
   <g id="PolyCollection_5">
    <defs>
     <path id="m721b4e8d4f" d="M 69.218182 -50.026419 
L 69.218182 -50.026419 
L 99.654545 -41.653044 
L 130.090909 -42.181287 
L 160.527273 -43.935865 
L 190.963636 -39.854766 
L 221.4 -32.833077 
L 251.836364 -35.245005 
L 282.272727 -35.885998 
L 312.709091 -23.76 
L 343.145455 -23.76 
L 373.581818 -36.001613 
L 373.581818 -43.921613 
L 373.581818 -43.921613 
L 343.145455 -36.344963 
L 312.709091 -51.461561 
L 282.272727 -35.885998 
L 251.836364 -35.245005 
L 221.4 -32.833077 
L 190.963636 -39.854766 
L 160.527273 -43.935865 
L 130.090909 -42.181287 
L 99.654545 -41.653044 
L 69.218182 -50.026419 
z
" style="stroke: #9467bd"/>
    </defs>
    <g clip-path="url(#p4e5a8ffc46)">
     <use xlink:href="#m721b4e8d4f" x="0" y="216" style="fill: #9467bd; stroke: #9467bd"/>
    </g>
   </g>
   <g id="PolyCollection_6">
    <defs>
     <path id="mdb9cfee46b" d="M 69.218182 -50.026419 
L 69.218182 -50.026419 
L 99.654545 -41.653044 
L 130.090909 -42.181287 
L 160.527273 -43.935865 
L 190.963636 -39.854766 
L 221.4 -32.833077 
L 251.836364 -35.245005 
L 282.272727 -35.885998 
L 312.709091 -51.461561 
L 343.145455 -36.344963 
L 373.581818 -43.921613 
L 373.581818 -43.921613 
L 373.581818 -43.921613 
L 343.145455 -36.344963 
L 312.709091 -51.461561 
L 282.272727 -35.885998 
L 251.836364 -35.245005 
L 221.4 -32.833077 
L 190.963636 -39.854766 
L 160.527273 -43.935865 
L 130.090909 -42.181287 
L 99.654545 -41.653044 
L 69.218182 -50.026419 
z
" style="stroke: #8c564b"/>
    </defs>
    <g clip-path="url(#p4e5a8ffc46)">
     <use xlink:href="#mdb9cfee46b" x="0" y="216" style="fill: #8c564b; stroke: #8c564b"/>
    </g>
   </g>
   <g id="PolyCollection_7">
    <defs>
     <path id="m0f6bed4fd0" d="M 69.218182 -57.946419 
L 69.218182 -50.026419 
L 99.654545 -41.653044 
L 130.090909 -42.181287 
L 160.527273 -43.935865 
L 190.963636 -39.854766 
L 221.4 -32.833077 
L 251.836364 -35.245005 
L 282.272727 -35.885998 
L 312.709091 -51.461561 
L 343.145455 -36.344963 
L 373.581818 -43.921613 
L 373.581818 -43.921613 
L 373.581818 -43.921613 
L 343.145455 -36.344963 
L 312.709091 -59.381561 
L 282.272727 -43.805998 
L 251.836364 -43.165005 
L 221.4 -40.753077 
L 190.963636 -47.774766 
L 160.527273 -51.855865 
L 130.090909 -50.101287 
L 99.654545 -49.573044 
L 69.218182 -57.946419 
z
" style="stroke: #e377c2"/>
    </defs>
    <g clip-path="url(#p4e5a8ffc46)">
     <use xlink:href="#m0f6bed4fd0" x="0" y="216" style="fill: #e377c2; stroke: #e377c2"/>
    </g>
   </g>
   <g id="PolyCollection_8">
    <defs>
     <path id="m4c7d0e7b6e" d="M 69.218182 -57.946419 
L 69.218182 -57.946419 
L 99.654545 -49.573044 
L 130.090909 -50.101287 
L 160.527273 -51.855865 
L 190.963636 -47.774766 
L 221.4 -40.753077 
L 251.836364 -43.165005 
L 282.272727 -43.805998 
L 312.709091 -59.381561 
L 343.145455 -36.344963 
L 373.581818 -43.921613 
L 373.581818 -43.921613 
L 373.581818 -43.921613 
L 343.145455 -36.344963 
L 312.709091 -59.381561 
L 282.272727 -43.805998 
L 251.836364 -43.165005 
L 221.4 -40.753077 
L 190.963636 -47.774766 
L 160.527273 -51.855865 
L 130.090909 -50.101287 
L 99.654545 -49.573044 
L 69.218182 -57.946419 
z
" style="stroke: #7f7f7f"/>
    </defs>
    <g clip-path="url(#p4e5a8ffc46)">
     <use xlink:href="#m4c7d0e7b6e" x="0" y="216" style="fill: #7f7f7f; stroke: #7f7f7f"/>
    </g>
   </g>
   <g id="PolyCollection_9">
    <defs>
     <path id="m1409b092ef" d="M 69.218182 -57.946419 
L 69.218182 -57.946419 
L 99.654545 -49.573044 
L 130.090909 -50.101287 
L 160.527273 -51.855865 
L 190.963636 -47.774766 
L 221.4 -40.753077 
L 251.836364 -43.165005 
L 282.272727 -43.805998 
L 312.709091 -59.381561 
L 343.145455 -36.344963 
L 373.581818 -43.921613 
L 373.581818 -43.921613 
L 373.581818 -43.921613 
L 343.145455 -36.344963 
L 312.709091 -59.381561 
L 282.272727 -43.805998 
L 251.836364 -43.165005 
L 221.4 -40.753077 
L 190.963636 -47.774766 
L 160.527273 -51.855865 
L 130.090909 -50.101287 
L 99.654545 -49.573044 
L 69.218182 -57.946419 
z
" style="stroke: #bcbd22"/>
    </defs>
    <g clip-path="url(#p4e5a8ffc46)">
     <use xlink:href="#m1409b092ef" x="0" y="216" style="fill: #bcbd22; stroke: #bcbd22"/>
    </g>
   </g>
   <g id="PolyCollection_10">
    <defs>
     <path id="m64b3c086f2" d="M 69.218182 -57.946419 
L 69.218182 -57.946419 
L 99.654545 -49.573044 
L 130.090909 -50.101287 
L 160.527273 -51.855865 
L 190.963636 -47.774766 
L 221.4 -40.753077 
L 251.836364 -43.165005 
L 282.272727 -43.805998 
L 312.709091 -59.381561 
L 343.145455 -36.344963 
L 373.581818 -43.921613 
L 373.581818 -43.921613 
L 373.581818 -43.921613 
L 343.145455 -36.344963 
L 312.709091 -59.381561 
L 282.272727 -43.805998 
L 251.836364 -43.165005 
L 221.4 -40.753077 
L 190.963636 -47.774766 
L 160.527273 -51.855865 
L 130.090909 -50.101287 
L 99.654545 -49.573044 
L 69.218182 -57.946419 
z
" style="stroke: #17becf"/>
    </defs>
    <g clip-path="url(#p4e5a8ffc46)">
     <use xlink:href="#m64b3c086f2" x="0" y="216" style="fill: #17becf; stroke: #17becf"/>
    </g>
   </g>
   <g id="PolyCollection_11">
    <defs>
     <path id="mc967ea6189" d="M 69.218182 -57.946419 
L 69.218182 -57.946419 
L 99.654545 -49.573044 
L 130.090909 -50.101287 
L 160.527273 -51.855865 
L 190.963636 -47.774766 
L 221.4 -40.753077 
L 251.836364 -43.165005 
L 282.272727 -43.805998 
L 312.709091 -59.381561 
L 343.145455 -36.344963 
L 373.581818 -43.921613 
L 373.581818 -43.921613 
L 373.581818 -43.921613 
L 343.145455 -36.344963 
L 312.709091 -59.381561 
L 282.272727 -43.805998 
L 251.836364 -43.165005 
L 221.4 -40.753077 
L 190.963636 -47.774766 
L 160.527273 -51.855865 
L 130.090909 -50.101287 
L 99.654545 -49.573044 
L 69.218182 -57.946419 
z
" style="stroke: #1f77b4"/>
    </defs>
    <g clip-path="url(#p4e5a8ffc46)">
     <use xlink:href="#mc967ea6189" x="0" y="216" style="fill: #1f77b4; stroke: #1f77b4"/>
    </g>
   </g>
   <g id="PolyCollection_12">
    <defs>
     <path id="m55a6232b78" d="M 69.218182 -57.946419 
L 69.218182 -57.946419 
L 99.654545 -49.573044 
L 130.090909 -50.101287 
L 160.527273 -51.855865 
L 190.963636 -47.774766 
L 221.4 -40.753077 
L 251.836364 -43.165005 
L 282.272727 -43.805998 
L 312.709091 -59.381561 
L 343.145455 -36.344963 
L 373.581818 -43.921613 
L 373.581818 -43.921613 
L 373.581818 -43.921613 
L 343.145455 -44.264963 
L 312.709091 -73.496321 
L 282.272727 -43.805998 
L 251.836364 -43.165005 
L 221.4 -40.753077 
L 190.963636 -47.774766 
L 160.527273 -51.855865 
L 130.090909 -50.101287 
L 99.654545 -49.573044 
L 69.218182 -57.946419 
z
" style="stroke: #ff7f0e"/>
    </defs>
    <g clip-path="url(#p4e5a8ffc46)">
     <use xlink:href="#m55a6232b78" x="0" y="216" style="fill: #ff7f0e; stroke: #ff7f0e"/>
    </g>
   </g>
   <g id="PolyCollection_13">
    <defs>
     <path id="maa833269e8" d="M 69.218182 -57.946419 
L 69.218182 -57.946419 
L 99.654545 -49.573044 
L 130.090909 -50.101287 
L 160.527273 -51.855865 
L 190.963636 -47.774766 
L 221.4 -40.753077 
L 251.836364 -43.165005 
L 282.272727 -43.805998 
L 312.709091 -73.496321 
L 343.145455 -44.264963 
L 373.581818 -43.921613 
L 373.581818 -43.921613 
L 373.581818 -43.921613 
L 343.145455 -44.264963 
L 312.709091 -73.496321 
L 282.272727 -43.805998 
L 251.836364 -43.165005 
L 221.4 -40.753077 
L 190.963636 -47.774766 
L 160.527273 -51.855865 
L 130.090909 -50.101287 
L 99.654545 -49.573044 
L 69.218182 -57.946419 
z
" style="stroke: #2ca02c"/>
    </defs>
    <g clip-path="url(#p4e5a8ffc46)">
     <use xlink:href="#maa833269e8" x="0" y="216" style="fill: #2ca02c; stroke: #2ca02c"/>
    </g>
   </g>
   <g id="PolyCollection_14">
    <defs>
     <path id="m52a12334b1" d="M 69.218182 -57.946419 
L 69.218182 -57.946419 
L 99.654545 -49.573044 
L 130.090909 -50.101287 
L 160.527273 -51.855865 
L 190.963636 -47.774766 
L 221.4 -40.753077 
L 251.836364 -43.165005 
L 282.272727 -43.805998 
L 312.709091 -73.496321 
L 343.145455 -44.264963 
L 373.581818 -43.921613 
L 373.581818 -43.921613 
L 373.581818 -43.921613 
L 343.145455 -44.264963 
L 312.709091 -73.496321 
L 282.272727 -53.790576 
L 251.836364 -51.114494 
L 221.4 -48.673077 
L 190.963636 -55.694766 
L 160.527273 -60.570204 
L 130.090909 -58.021287 
L 99.654545 -58.422575 
L 69.218182 -57.946419 
z
" style="stroke: #d62728"/>
    </defs>
    <g clip-path="url(#p4e5a8ffc46)">
     <use xlink:href="#m52a12334b1" x="0" y="216" style="fill: #d62728; stroke: #d62728"/>
    </g>
   </g>
   <g id="PolyCollection_15">
    <defs>
     <path id="me488016215" d="M 69.218182 -57.946419 
L 69.218182 -57.946419 
L 99.654545 -58.422575 
L 130.090909 -58.021287 
L 160.527273 -60.570204 
L 190.963636 -55.694766 
L 221.4 -48.673077 
L 251.836364 -51.114494 
L 282.272727 -53.790576 
L 312.709091 -73.496321 
L 343.145455 -44.264963 
L 373.581818 -43.921613 
L 373.581818 -43.921613 
L 373.581818 -43.921613 
L 343.145455 -52.184963 
L 312.709091 -73.496321 
L 282.272727 -53.790576 
L 251.836364 -51.114494 
L 221.4 -48.673077 
L 190.963636 -55.694766 
L 160.527273 -60.570204 
L 130.090909 -58.021287 
L 99.654545 -58.422575 
L 69.218182 -57.946419 
z
" style="stroke: #9467bd"/>
    </defs>
    <g clip-path="url(#p4e5a8ffc46)">
     <use xlink:href="#me488016215" x="0" y="216" style="fill: #9467bd; stroke: #9467bd"/>
    </g>
   </g>
   <g id="PolyCollection_16">
    <defs>
     <path id="mdce7ff7e7a" d="M 69.218182 -65.866419 
L 69.218182 -57.946419 
L 99.654545 -58.422575 
L 130.090909 -58.021287 
L 160.527273 -60.570204 
L 190.963636 -55.694766 
L 221.4 -48.673077 
L 251.836364 -51.114494 
L 282.272727 -53.790576 
L 312.709091 -73.496321 
L 343.145455 -52.184963 
L 373.581818 -43.921613 
L 373.581818 -60.157689 
L 373.581818 -60.157689 
L 343.145455 -74.528764 
L 312.709091 -89.047608 
L 282.272727 -61.710576 
L 251.836364 -51.114494 
L 221.4 -48.673077 
L 190.963636 -55.694766 
L 160.527273 -68.596512 
L 130.090909 -69.927535 
L 99.654545 -66.342575 
L 69.218182 -65.866419 
z
" style="stroke: #8c564b"/>
    </defs>
    <g clip-path="url(#p4e5a8ffc46)">
     <use xlink:href="#mdce7ff7e7a" x="0" y="216" style="fill: #8c564b; stroke: #8c564b"/>
    </g>
   </g>
   <g id="PolyCollection_17">
    <defs>
     <path id="m5248f73f1a" d="M 69.218182 -65.866419 
L 69.218182 -65.866419 
L 99.654545 -66.342575 
L 130.090909 -69.927535 
L 160.527273 -68.596512 
L 190.963636 -55.694766 
L 221.4 -48.673077 
L 251.836364 -51.114494 
L 282.272727 -61.710576 
L 312.709091 -89.047608 
L 343.145455 -74.528764 
L 373.581818 -60.157689 
L 373.581818 -60.157689 
L 373.581818 -60.157689 
L 343.145455 -74.528764 
L 312.709091 -89.047608 
L 282.272727 -61.710576 
L 251.836364 -51.114494 
L 221.4 -48.673077 
L 190.963636 -55.694766 
L 160.527273 -68.596512 
L 130.090909 -69.927535 
L 99.654545 -66.342575 
L 69.218182 -65.866419 
z
" style="stroke: #e377c2"/>
    </defs>
    <g clip-path="url(#p4e5a8ffc46)">
     <use xlink:href="#m5248f73f1a" x="0" y="216" style="fill: #e377c2; stroke: #e377c2"/>
    </g>
   </g>
   <g id="PolyCollection_18">
    <defs>
     <path id="mbc7e06106a" d="M 69.218182 -65.866419 
L 69.218182 -65.866419 
L 99.654545 -66.342575 
L 130.090909 -69.927535 
L 160.527273 -68.596512 
L 190.963636 -55.694766 
L 221.4 -48.673077 
L 251.836364 -51.114494 
L 282.272727 -61.710576 
L 312.709091 -89.047608 
L 343.145455 -74.528764 
L 373.581818 -60.157689 
L 373.581818 -71.667007 
L 373.581818 -71.667007 
L 343.145455 -82.448764 
L 312.709091 -107.777536 
L 282.272727 -73.598132 
L 251.836364 -68.376238 
L 221.4 -64.075677 
L 190.963636 -64.795121 
L 160.527273 -76.516512 
L 130.090909 -77.847535 
L 99.654545 -66.342575 
L 69.218182 -65.866419 
z
" style="stroke: #7f7f7f"/>
    </defs>
    <g clip-path="url(#p4e5a8ffc46)">
     <use xlink:href="#mbc7e06106a" x="0" y="216" style="fill: #7f7f7f; stroke: #7f7f7f"/>
    </g>
   </g>
   <g id="PolyCollection_19">
    <defs>
     <path id="m21eb0447a6" d="M 69.218182 -65.866419 
L 69.218182 -65.866419 
L 99.654545 -66.342575 
L 130.090909 -77.847535 
L 160.527273 -76.516512 
L 190.963636 -64.795121 
L 221.4 -64.075677 
L 251.836364 -68.376238 
L 282.272727 -73.598132 
L 312.709091 -107.777536 
L 343.145455 -82.448764 
L 373.581818 -71.667007 
L 373.581818 -71.667007 
L 373.581818 -71.667007 
L 343.145455 -82.448764 
L 312.709091 -107.777536 
L 282.272727 -73.598132 
L 251.836364 -68.376238 
L 221.4 -64.075677 
L 190.963636 -64.795121 
L 160.527273 -76.516512 
L 130.090909 -77.847535 
L 99.654545 -66.342575 
L 69.218182 -65.866419 
z
" style="stroke: #bcbd22"/>
    </defs>
    <g clip-path="url(#p4e5a8ffc46)">
     <use xlink:href="#m21eb0447a6" x="0" y="216" style="fill: #bcbd22; stroke: #bcbd22"/>
    </g>
   </g>
   <g id="PolyCollection_20">
    <defs>
     <path id="m759e01de78" d="M 69.218182 -77.532593 
L 69.218182 -65.866419 
L 99.654545 -66.342575 
L 130.090909 -77.847535 
L 160.527273 -76.516512 
L 190.963636 -64.795121 
L 221.4 -64.075677 
L 251.836364 -68.376238 
L 282.272727 -73.598132 
L 312.709091 -107.777536 
L 343.145455 -82.448764 
L 373.581818 -71.667007 
L 373.581818 -71.667007 
L 373.581818 -71.667007 
L 343.145455 -82.448764 
L 312.709091 -115.868943 
L 282.272727 -73.598132 
L 251.836364 -68.376238 
L 221.4 -71.995677 
L 190.963636 -75.732118 
L 160.527273 -92.112512 
L 130.090909 -98.769467 
L 99.654545 -87.205753 
L 69.218182 -77.532593 
z
" style="stroke: #17becf"/>
    </defs>
    <g clip-path="url(#p4e5a8ffc46)">
     <use xlink:href="#m759e01de78" x="0" y="216" style="fill: #17becf; stroke: #17becf"/>
    </g>
   </g>
   <g id="PolyCollection_21">
    <defs>
     <path id="m393980f6c6" d="M 69.218182 -105.232968 
L 69.218182 -77.532593 
L 99.654545 -87.205753 
L 130.090909 -98.769467 
L 160.527273 -92.112512 
L 190.963636 -75.732118 
L 221.4 -71.995677 
L 251.836364 -68.376238 
L 282.272727 -73.598132 
L 312.709091 -115.868943 
L 343.145455 -82.448764 
L 373.581818 -71.667007 
L 373.581818 -71.667007 
L 373.581818 -71.667007 
L 343.145455 -82.448764 
L 312.709091 -115.868943 
L 282.272727 -73.598132 
L 251.836364 -76.296238 
L 221.4 -79.915677 
L 190.963636 -83.652118 
L 160.527273 -100.032512 
L 130.090909 -106.689467 
L 99.654545 -95.125753 
L 69.218182 -105.232968 
z
" style="stroke: #1f77b4"/>
    </defs>
    <g clip-path="url(#p4e5a8ffc46)">
     <use xlink:href="#m393980f6c6" x="0" y="216" style="fill: #1f77b4; stroke: #1f77b4"/>
    </g>
   </g>
   <g id="PolyCollection_22">
    <defs>
     <path id="m4139a4fea1" d="M 69.218182 -113.152968 
L 69.218182 -105.232968 
L 99.654545 -95.125753 
L 130.090909 -106.689467 
L 160.527273 -100.032512 
L 190.963636 -83.652118 
L 221.4 -79.915677 
L 251.836364 -76.296238 
L 282.272727 -73.598132 
L 312.709091 -115.868943 
L 343.145455 -82.448764 
L 373.581818 -71.667007 
L 373.581818 -86.693281 
L 373.581818 -86.693281 
L 343.145455 -103.092935 
L 312.709091 -146.037119 
L 282.272727 -100.695498 
L 251.836364 -98.597566 
L 221.4 -103.998428 
L 190.963636 -104.041578 
L 160.527273 -115.554029 
L 130.090909 -121.91633 
L 99.654545 -106.070327 
L 69.218182 -113.152968 
z
" style="stroke: #ff7f0e"/>
    </defs>
    <g clip-path="url(#p4e5a8ffc46)">
     <use xlink:href="#m4139a4fea1" x="0" y="216" style="fill: #ff7f0e; stroke: #ff7f0e"/>
    </g>
   </g>
   <g id="PolyCollection_23">
    <defs>
     <path id="m8e5741f463" d="M 69.218182 -144.832968 
L 69.218182 -113.152968 
L 99.654545 -106.070327 
L 130.090909 -121.91633 
L 160.527273 -115.554029 
L 190.963636 -104.041578 
L 221.4 -103.998428 
L 251.836364 -98.597566 
L 282.272727 -100.695498 
L 312.709091 -146.037119 
L 343.145455 -103.092935 
L 373.581818 -86.693281 
L 373.581818 -116.329646 
L 373.581818 -116.329646 
L 343.145455 -131.539615 
L 312.709091 -146.037119 
L 282.272727 -132.375498 
L 251.836364 -130.277566 
L 221.4 -135.678428 
L 190.963636 -135.721578 
L 160.527273 -147.234029 
L 130.090909 -153.59633 
L 99.654545 -137.397781 
L 69.218182 -144.832968 
z
" style="stroke: #2ca02c"/>
    </defs>
    <g clip-path="url(#p4e5a8ffc46)">
     <use xlink:href="#m8e5741f463" x="0" y="216" style="fill: #2ca02c; stroke: #2ca02c"/>
    </g>
   </g>
   <g id="PolyCollection_24">
    <defs>
     <path id="m45a4c2f1ed" d="M 69.218182 -144.832968 
L 69.218182 -144.832968 
L 99.654545 -137.397781 
L 130.090909 -153.59633 
L 160.527273 -147.234029 
L 190.963636 -135.721578 
L 221.4 -135.678428 
L 251.836364 -130.277566 
L 282.272727 -132.375498 
L 312.709091 -146.037119 
L 343.145455 -131.539615 
L 373.581818 -116.329646 
L 373.581818 -116.329646 
L 373.581818 -116.329646 
L 343.145455 -131.539615 
L 312.709091 -146.037119 
L 282.272727 -132.375498 
L 251.836364 -130.277566 
L 221.4 -135.678428 
L 190.963636 -135.721578 
L 160.527273 -147.234029 
L 130.090909 -153.59633 
L 99.654545 -137.397781 
L 69.218182 -144.832968 
z
" style="stroke: #d62728"/>
    </defs>
    <g clip-path="url(#p4e5a8ffc46)">
     <use xlink:href="#m45a4c2f1ed" x="0" y="216" style="fill: #d62728; stroke: #d62728"/>
    </g>
   </g>
   <g id="PolyCollection_25">
    <defs>
     <path id="m63ec446d2d" d="M 69.218182 -144.832968 
L 69.218182 -144.832968 
L 99.654545 -137.397781 
L 130.090909 -153.59633 
L 160.527273 -147.234029 
L 190.963636 -135.721578 
L 221.4 -135.678428 
L 251.836364 -130.277566 
L 282.272727 -132.375498 
L 312.709091 -146.037119 
L 343.145455 -131.539615 
L 373.581818 -116.329646 
L 373.581818 -116.329646 
L 373.581818 -116.329646 
L 343.145455 -131.539615 
L 312.709091 -146.037119 
L 282.272727 -132.375498 
L 251.836364 -130.277566 
L 221.4 -135.678428 
L 190.963636 -135.721578 
L 160.527273 -147.234029 
L 130.090909 -153.59633 
L 99.654545 -137.397781 
L 69.218182 -144.832968 
z
" style="stroke: #9467bd"/>
    </defs>
    <g clip-path="url(#p4e5a8ffc46)">
     <use xlink:href="#m63ec446d2d" x="0" y="216" style="fill: #9467bd; stroke: #9467bd"/>
    </g>
   </g>
   <g id="PolyCollection_26">
    <defs>
     <path id="mb9e6cd2ce5" d="M 69.218182 -144.832968 
L 69.218182 -144.832968 
L 99.654545 -137.397781 
L 130.090909 -153.59633 
L 160.527273 -147.234029 
L 190.963636 -135.721578 
L 221.4 -135.678428 
L 251.836364 -130.277566 
L 282.272727 -132.375498 
L 312.709091 -146.037119 
L 343.145455 -131.539615 
L 373.581818 -116.329646 
L 373.581818 -126.534353 
L 373.581818 -126.534353 
L 343.145455 -144.009575 
L 312.709091 -163.964251 
L 282.272727 -143.863527 
L 251.836364 -144.547657 
L 221.4 -150.930725 
L 190.963636 -148.075487 
L 160.527273 -155.154029 
L 130.090909 -164.26627 
L 99.654545 -145.317781 
L 69.218182 -144.832968 
z
" style="stroke: #8c564b"/>
    </defs>
    <g clip-path="url(#p4e5a8ffc46)">
     <use xlink:href="#mb9e6cd2ce5" x="0" y="216" style="fill: #8c564b; stroke: #8c564b"/>
    </g>
   </g>
   <g id="PolyCollection_27">
    <defs>
     <path id="mf234d4264b" d="M 69.218182 -144.832968 
L 69.218182 -144.832968 
L 99.654545 -145.317781 
L 130.090909 -164.26627 
L 160.527273 -155.154029 
L 190.963636 -148.075487 
L 221.4 -150.930725 
L 251.836364 -144.547657 
L 282.272727 -143.863527 
L 312.709091 -163.964251 
L 343.145455 -144.009575 
L 373.581818 -126.534353 
L 373.581818 -126.534353 
L 373.581818 -126.534353 
L 343.145455 -144.009575 
L 312.709091 -163.964251 
L 282.272727 -143.863527 
L 251.836364 -144.547657 
L 221.4 -150.930725 
L 190.963636 -148.075487 
L 160.527273 -155.154029 
L 130.090909 -164.26627 
L 99.654545 -145.317781 
L 69.218182 -144.832968 
z
" style="stroke: #e377c2"/>
    </defs>
    <g clip-path="url(#p4e5a8ffc46)">
     <use xlink:href="#mf234d4264b" x="0" y="216" style="fill: #e377c2; stroke: #e377c2"/>
    </g>
   </g>
   <g id="PolyCollection_28">
    <defs>
     <path id="ma44a095537" d="M 69.218182 -144.832968 
L 69.218182 -144.832968 
L 99.654545 -145.317781 
L 130.090909 -164.26627 
L 160.527273 -155.154029 
L 190.963636 -148.075487 
L 221.4 -150.930725 
L 251.836364 -144.547657 
L 282.272727 -143.863527 
L 312.709091 -163.964251 
L 343.145455 -144.009575 
L 373.581818 -126.534353 
L 373.581818 -126.534353 
L 373.581818 -126.534353 
L 343.145455 -151.929575 
L 312.709091 -163.964251 
L 282.272727 -143.863527 
L 251.836364 -144.547657 
L 221.4 -150.930725 
L 190.963636 -148.075487 
L 160.527273 -155.154029 
L 130.090909 -164.26627 
L 99.654545 -145.317781 
L 69.218182 -144.832968 
z
" style="stroke: #7f7f7f"/>
    </defs>
    <g clip-path="url(#p4e5a8ffc46)">
     <use xlink:href="#ma44a095537" x="0" y="216" style="fill: #7f7f7f; stroke: #7f7f7f"/>
    </g>
   </g>
   <g id="PolyCollection_29">
    <defs>
     <path id="mc288b7dcd1" d="M 69.218182 -144.832968 
L 69.218182 -144.832968 
L 99.654545 -145.317781 
L 130.090909 -164.26627 
L 160.527273 -155.154029 
L 190.963636 -148.075487 
L 221.4 -150.930725 
L 251.836364 -144.547657 
L 282.272727 -143.863527 
L 312.709091 -163.964251 
L 343.145455 -151.929575 
L 373.581818 -126.534353 
L 373.581818 -126.534353 
L 373.581818 -126.534353 
L 343.145455 -151.929575 
L 312.709091 -163.964251 
L 282.272727 -156.059105 
L 251.836364 -155.977704 
L 221.4 -161.656243 
L 190.963636 -157.478219 
L 160.527273 -164.033228 
L 130.090909 -164.26627 
L 99.654545 -145.317781 
L 69.218182 -144.832968 
z
" style="stroke: #bcbd22"/>
    </defs>
    <g clip-path="url(#p4e5a8ffc46)">
     <use xlink:href="#mc288b7dcd1" x="0" y="216" style="fill: #bcbd22; stroke: #bcbd22"/>
    </g>
   </g>
   <g id="PolyCollection_30">
    <defs>
     <path id="mfb49536a0d" d="M 69.218182 -155.658664 
L 69.218182 -144.832968 
L 99.654545 -145.317781 
L 130.090909 -164.26627 
L 160.527273 -164.033228 
L 190.963636 -157.478219 
L 221.4 -161.656243 
L 251.836364 -155.977704 
L 282.272727 -156.059105 
L 312.709091 -163.964251 
L 343.145455 -151.929575 
L 373.581818 -126.534353 
L 373.581818 -153.056745 
L 373.581818 -153.056745 
L 343.145455 -162.801086 
L 312.709091 -163.964251 
L 282.272727 -156.059105 
L 251.836364 -155.977704 
L 221.4 -161.656243 
L 190.963636 -157.478219 
L 160.527273 -164.033228 
L 130.090909 -164.26627 
L 99.654545 -153.237781 
L 69.218182 -155.658664 
z
" style="stroke: #17becf"/>
    </defs>
    <g clip-path="url(#p4e5a8ffc46)">
     <use xlink:href="#mfb49536a0d" x="0" y="216" style="fill: #17becf; stroke: #17becf"/>
    </g>
   </g>
   <g id="PolyCollection_31">
    <defs>
     <path id="mbadfb784b0" d="M 69.218182 -155.658664 
L 69.218182 -155.658664 
L 99.654545 -153.237781 
L 130.090909 -164.26627 
L 160.527273 -164.033228 
L 190.963636 -157.478219 
L 221.4 -161.656243 
L 251.836364 -155.977704 
L 282.272727 -156.059105 
L 312.709091 -163.964251 
L 343.145455 -162.801086 
L 373.581818 -153.056745 
L 373.581818 -153.056745 
L 373.581818 -153.056745 
L 343.145455 -162.801086 
L 312.709091 -163.964251 
L 282.272727 -156.059105 
L 251.836364 -155.977704 
L 221.4 -161.656243 
L 190.963636 -157.478219 
L 160.527273 -164.033228 
L 130.090909 -164.26627 
L 99.654545 -153.237781 
L 69.218182 -155.658664 
z
" style="stroke: #1f77b4"/>
    </defs>
    <g clip-path="url(#p4e5a8ffc46)">
     <use xlink:href="#mbadfb784b0" x="0" y="216" style="fill: #1f77b4; stroke: #1f77b4"/>
    </g>
   </g>
   <g id="PolyCollection_32">
    <defs>
     <path id="mf7134895a5" d="M 69.218182 -155.658664 
L 69.218182 -155.658664 
L 99.654545 -153.237781 
L 130.090909 -164.26627 
L 160.527273 -164.033228 
L 190.963636 -157.478219 
L 221.4 -161.656243 
L 251.836364 -155.977704 
L 282.272727 -156.059105 
L 312.709091 -163.964251 
L 343.145455 -162.801086 
L 373.581818 -153.056745 
L 373.581818 -153.056745 
L 373.581818 -153.056745 
L 343.145455 -162.801086 
L 312.709091 -163.964251 
L 282.272727 -156.059105 
L 251.836364 -155.977704 
L 221.4 -161.656243 
L 190.963636 -157.478219 
L 160.527273 -164.033228 
L 130.090909 -164.26627 
L 99.654545 -153.237781 
L 69.218182 -155.658664 
z
" style="stroke: #ff7f0e"/>
    </defs>
    <g clip-path="url(#p4e5a8ffc46)">
     <use xlink:href="#mf7134895a5" x="0" y="216" style="fill: #ff7f0e; stroke: #ff7f0e"/>
    </g>
   </g>
   <g id="PolyCollection_33">
    <defs>
     <path id="m1a126afc20" d="M 69.218182 -155.658664 
L 69.218182 -155.658664 
L 99.654545 -153.237781 
L 130.090909 -164.26627 
L 160.527273 -164.033228 
L 190.963636 -157.478219 
L 221.4 -161.656243 
L 251.836364 -155.977704 
L 282.272727 -156.059105 
L 312.709091 -163.964251 
L 343.145455 -162.801086 
L 373.581818 -153.056745 
L 373.581818 -153.056745 
L 373.581818 -153.056745 
L 343.145455 -162.801086 
L 312.709091 -163.964251 
L 282.272727 -156.059105 
L 251.836364 -155.977704 
L 221.4 -161.656243 
L 190.963636 -157.478219 
L 160.527273 -164.033228 
L 130.090909 -164.26627 
L 99.654545 -153.237781 
L 69.218182 -155.658664 
z
" style="stroke: #2ca02c"/>
    </defs>
    <g clip-path="url(#p4e5a8ffc46)">
     <use xlink:href="#m1a126afc20" x="0" y="216" style="fill: #2ca02c; stroke: #2ca02c"/>
    </g>
   </g>
   <g id="PolyCollection_34">
    <defs>
     <path id="m5eba73e43f" d="M 69.218182 -155.658664 
L 69.218182 -155.658664 
L 99.654545 -153.237781 
L 130.090909 -164.26627 
L 160.527273 -164.033228 
L 190.963636 -157.478219 
L 221.4 -161.656243 
L 251.836364 -155.977704 
L 282.272727 -156.059105 
L 312.709091 -163.964251 
L 343.145455 -162.801086 
L 373.581818 -153.056745 
L 373.581818 -170.235066 
L 373.581818 -170.235066 
L 343.145455 -170.721086 
L 312.709091 -171.884251 
L 282.272727 -170.654203 
L 251.836364 -170.629272 
L 221.4 -172.379649 
L 190.963636 -169.933746 
L 160.527273 -171.953228 
L 130.090909 -172.18627 
L 99.654545 -161.157781 
L 69.218182 -155.658664 
z
" style="stroke: #d62728"/>
    </defs>
    <g clip-path="url(#p4e5a8ffc46)">
     <use xlink:href="#m5eba73e43f" x="0" y="216" style="fill: #d62728; stroke: #d62728"/>
    </g>
   </g>
   <g id="PolyCollection_35">
    <defs>
     <path id="m174ae21187" d="M 69.218182 -174.24 
L 69.218182 -155.658664 
L 99.654545 -161.157781 
L 130.090909 -172.18627 
L 160.527273 -171.953228 
L 190.963636 -169.933746 
L 221.4 -172.379649 
L 251.836364 -170.629272 
L 282.272727 -170.654203 
L 312.709091 -171.884251 
L 343.145455 -170.721086 
L 373.581818 -170.235066 
L 373.581818 -182.16 
L 373.581818 -182.16 
L 343.145455 -182.16 
L 312.709091 -182.16 
L 282.272727 -182.16 
L 251.836364 -182.16 
L 221.4 -182.16 
L 190.963636 -182.16 
L 160.527273 -182.16 
L 130.090909 -182.16 
L 99.654545 -182.16 
L 69.218182 -174.24 
z
" style="stroke: #9467bd"/>
    </defs>
    <g clip-path="url(#p4e5a8ffc46)">
     <use xlink:href="#m174ae21187" x="0" y="216" style="fill: #9467bd; stroke: #9467bd"/>
    </g>
   </g>
   <g id="PolyCollection_36">
    <defs>
     <path id="m86138719fc" d="M 69.218182 -182.16 
L 69.218182 -174.24 
L 99.654545 -182.16 
L 130.090909 -182.16 
L 160.527273 -182.16 
L 190.963636 -182.16 
L 221.4 -182.16 
L 251.836364 -182.16 
L 282.272727 -182.16 
L 312.709091 -182.16 
L 343.145455 -182.16 
L 373.581818 -182.16 
L 373.581818 -182.16 
L 373.581818 -182.16 
L 343.145455 -182.16 
L 312.709091 -182.16 
L 282.272727 -182.16 
L 251.836364 -182.16 
L 221.4 -182.16 
L 190.963636 -182.16 
L 160.527273 -182.16 
L 130.090909 -182.16 
L 99.654545 -182.16 
L 69.218182 -182.16 
z
" style="stroke: #8c564b"/>
    </defs>
    <g clip-path="url(#p4e5a8ffc46)">
     <use xlink:href="#m86138719fc" x="0" y="216" style="fill: #8c564b; stroke: #8c564b"/>
    </g>
   </g>
   <g id="PolyCollection_37">
    <defs>
     <path id="mf0b7b5efa2" d="M 69.218182 -182.16 
L 69.218182 -182.16 
L 99.654545 -182.16 
L 130.090909 -182.16 
L 160.527273 -182.16 
L 190.963636 -182.16 
L 221.4 -182.16 
L 251.836364 -182.16 
L 282.272727 -182.16 
L 312.709091 -182.16 
L 343.145455 -182.16 
L 373.581818 -182.16 
L 373.581818 -182.16 
L 373.581818 -182.16 
L 343.145455 -182.16 
L 312.709091 -182.16 
L 282.272727 -182.16 
L 251.836364 -182.16 
L 221.4 -182.16 
L 190.963636 -182.16 
L 160.527273 -182.16 
L 130.090909 -182.16 
L 99.654545 -182.16 
L 69.218182 -182.16 
z
" style="stroke: #e377c2"/>
    </defs>
    <g clip-path="url(#p4e5a8ffc46)">
     <use xlink:href="#mf0b7b5efa2" x="0" y="216" style="fill: #e377c2; stroke: #e377c2"/>
    </g>
   </g>
   <g id="matplotlib.axis_1">
    <g id="xtick_1">
     <g id="line2d_1">
      <defs>
       <path id="m6b67838bca" d="M 0 0 
L 0 3.5 
" style="stroke: #000000; stroke-width: 0.8"/>
      </defs>
      <g>
       <use xlink:href="#m6b67838bca" x="99.654545" y="192.24" style="stroke: #000000; stroke-width: 0.8"/>
      </g>
     </g>
     <g id="text_1">
      <!-- 2 -->
      <g transform="translate(96.473295 206.838437)scale(0.1 -0.1)">
       <defs>
        <path id="DejaVuSans-32" d="M 1228 531 
L 3431 531 
L 3431 0 
L 469 0 
L 469 531 
Q 828 903 1448 1529 
Q 2069 2156 2228 2338 
Q 2531 2678 2651 2914 
Q 2772 3150 2772 3378 
Q 2772 3750 2511 3984 
Q 2250 4219 1831 4219 
Q 1534 4219 1204 4116 
Q 875 4013 500 3803 
L 500 4441 
Q 881 4594 1212 4672 
Q 1544 4750 1819 4750 
Q 2544 4750 2975 4387 
Q 3406 4025 3406 3419 
Q 3406 3131 3298 2873 
Q 3191 2616 2906 2266 
Q 2828 2175 2409 1742 
Q 1991 1309 1228 531 
z
" transform="scale(0.015625)"/>
       </defs>
       <use xlink:href="#DejaVuSans-32"/>
      </g>
     </g>
    </g>
    <g id="xtick_2">
     <g id="line2d_2">
      <g>
       <use xlink:href="#m6b67838bca" x="160.527273" y="192.24" style="stroke: #000000; stroke-width: 0.8"/>
      </g>
     </g>
     <g id="text_2">
      <!-- 4 -->
      <g transform="translate(157.346023 206.838437)scale(0.1 -0.1)">
       <defs>
        <path id="DejaVuSans-34" d="M 2419 4116 
L 825 1625 
L 2419 1625 
L 2419 4116 
z
M 2253 4666 
L 3047 4666 
L 3047 1625 
L 3713 1625 
L 3713 1100 
L 3047 1100 
L 3047 0 
L 2419 0 
L 2419 1100 
L 313 1100 
L 313 1709 
L 2253 4666 
z
" transform="scale(0.015625)"/>
       </defs>
       <use xlink:href="#DejaVuSans-34"/>
      </g>
     </g>
    </g>
    <g id="xtick_3">
     <g id="line2d_3">
      <g>
       <use xlink:href="#m6b67838bca" x="221.4" y="192.24" style="stroke: #000000; stroke-width: 0.8"/>
      </g>
     </g>
     <g id="text_3">
      <!-- 6 -->
      <g transform="translate(218.21875 206.838437)scale(0.1 -0.1)">
       <defs>
        <path id="DejaVuSans-36" d="M 2113 2584 
Q 1688 2584 1439 2293 
Q 1191 2003 1191 1497 
Q 1191 994 1439 701 
Q 1688 409 2113 409 
Q 2538 409 2786 701 
Q 3034 994 3034 1497 
Q 3034 2003 2786 2293 
Q 2538 2584 2113 2584 
z
M 3366 4563 
L 3366 3988 
Q 3128 4100 2886 4159 
Q 2644 4219 2406 4219 
Q 1781 4219 1451 3797 
Q 1122 3375 1075 2522 
Q 1259 2794 1537 2939 
Q 1816 3084 2150 3084 
Q 2853 3084 3261 2657 
Q 3669 2231 3669 1497 
Q 3669 778 3244 343 
Q 2819 -91 2113 -91 
Q 1303 -91 875 529 
Q 447 1150 447 2328 
Q 447 3434 972 4092 
Q 1497 4750 2381 4750 
Q 2619 4750 2861 4703 
Q 3103 4656 3366 4563 
z
" transform="scale(0.015625)"/>
       </defs>
       <use xlink:href="#DejaVuSans-36"/>
      </g>
     </g>
    </g>
    <g id="xtick_4">
     <g id="line2d_4">
      <g>
       <use xlink:href="#m6b67838bca" x="282.272727" y="192.24" style="stroke: #000000; stroke-width: 0.8"/>
      </g>
     </g>
     <g id="text_4">
      <!-- 8 -->
      <g transform="translate(279.091477 206.838437)scale(0.1 -0.1)">
       <defs>
        <path id="DejaVuSans-38" d="M 2034 2216 
Q 1584 2216 1326 1975 
Q 1069 1734 1069 1313 
Q 1069 891 1326 650 
Q 1584 409 2034 409 
Q 2484 409 2743 651 
Q 3003 894 3003 1313 
Q 3003 1734 2745 1975 
Q 2488 2216 2034 2216 
z
M 1403 2484 
Q 997 2584 770 2862 
Q 544 3141 544 3541 
Q 544 4100 942 4425 
Q 1341 4750 2034 4750 
Q 2731 4750 3128 4425 
Q 3525 4100 3525 3541 
Q 3525 3141 3298 2862 
Q 3072 2584 2669 2484 
Q 3125 2378 3379 2068 
Q 3634 1759 3634 1313 
Q 3634 634 3220 271 
Q 2806 -91 2034 -91 
Q 1263 -91 848 271 
Q 434 634 434 1313 
Q 434 1759 690 2068 
Q 947 2378 1403 2484 
z
M 1172 3481 
Q 1172 3119 1398 2916 
Q 1625 2713 2034 2713 
Q 2441 2713 2670 2916 
Q 2900 3119 2900 3481 
Q 2900 3844 2670 4047 
Q 2441 4250 2034 4250 
Q 1625 4250 1398 4047 
Q 1172 3844 1172 3481 
z
" transform="scale(0.015625)"/>
       </defs>
       <use xlink:href="#DejaVuSans-38"/>
      </g>
     </g>
    </g>
    <g id="xtick_5">
     <g id="line2d_5">
      <g>
       <use xlink:href="#m6b67838bca" x="343.145455" y="192.24" style="stroke: #000000; stroke-width: 0.8"/>
      </g>
     </g>
     <g id="text_5">
      <!-- 10 -->
      <g transform="translate(336.782955 206.838437)scale(0.1 -0.1)">
       <defs>
        <path id="DejaVuSans-31" d="M 794 531 
L 1825 531 
L 1825 4091 
L 703 3866 
L 703 4441 
L 1819 4666 
L 2450 4666 
L 2450 531 
L 3481 531 
L 3481 0 
L 794 0 
L 794 531 
z
" transform="scale(0.015625)"/>
        <path id="DejaVuSans-30" d="M 2034 4250 
Q 1547 4250 1301 3770 
Q 1056 3291 1056 2328 
Q 1056 1369 1301 889 
Q 1547 409 2034 409 
Q 2525 409 2770 889 
Q 3016 1369 3016 2328 
Q 3016 3291 2770 3770 
Q 2525 4250 2034 4250 
z
M 2034 4750 
Q 2819 4750 3233 4129 
Q 3647 3509 3647 2328 
Q 3647 1150 3233 529 
Q 2819 -91 2034 -91 
Q 1250 -91 836 529 
Q 422 1150 422 2328 
Q 422 3509 836 4129 
Q 1250 4750 2034 4750 
z
" transform="scale(0.015625)"/>
       </defs>
       <use xlink:href="#DejaVuSans-31"/>
       <use xlink:href="#DejaVuSans-30" x="63.623047"/>
      </g>
     </g>
    </g>
    <g id="text_6">
     <!-- Rebalance Period -->
     <g transform="translate(178.210938 220.516562)scale(0.1 -0.1)">
      <defs>
       <path id="DejaVuSans-52" d="M 2841 2188 
Q 3044 2119 3236 1894 
Q 3428 1669 3622 1275 
L 4263 0 
L 3584 0 
L 2988 1197 
Q 2756 1666 2539 1819 
Q 2322 1972 1947 1972 
L 1259 1972 
L 1259 0 
L 628 0 
L 628 4666 
L 2053 4666 
Q 2853 4666 3247 4331 
Q 3641 3997 3641 3322 
Q 3641 2881 3436 2590 
Q 3231 2300 2841 2188 
z
M 1259 4147 
L 1259 2491 
L 2053 2491 
Q 2509 2491 2742 2702 
Q 2975 2913 2975 3322 
Q 2975 3731 2742 3939 
Q 2509 4147 2053 4147 
L 1259 4147 
z
" transform="scale(0.015625)"/>
       <path id="DejaVuSans-65" d="M 3597 1894 
L 3597 1613 
L 953 1613 
Q 991 1019 1311 708 
Q 1631 397 2203 397 
Q 2534 397 2845 478 
Q 3156 559 3463 722 
L 3463 178 
Q 3153 47 2828 -22 
Q 2503 -91 2169 -91 
Q 1331 -91 842 396 
Q 353 884 353 1716 
Q 353 2575 817 3079 
Q 1281 3584 2069 3584 
Q 2775 3584 3186 3129 
Q 3597 2675 3597 1894 
z
M 3022 2063 
Q 3016 2534 2758 2815 
Q 2500 3097 2075 3097 
Q 1594 3097 1305 2825 
Q 1016 2553 972 2059 
L 3022 2063 
z
" transform="scale(0.015625)"/>
       <path id="DejaVuSans-62" d="M 3116 1747 
Q 3116 2381 2855 2742 
Q 2594 3103 2138 3103 
Q 1681 3103 1420 2742 
Q 1159 2381 1159 1747 
Q 1159 1113 1420 752 
Q 1681 391 2138 391 
Q 2594 391 2855 752 
Q 3116 1113 3116 1747 
z
M 1159 2969 
Q 1341 3281 1617 3432 
Q 1894 3584 2278 3584 
Q 2916 3584 3314 3078 
Q 3713 2572 3713 1747 
Q 3713 922 3314 415 
Q 2916 -91 2278 -91 
Q 1894 -91 1617 61 
Q 1341 213 1159 525 
L 1159 0 
L 581 0 
L 581 4863 
L 1159 4863 
L 1159 2969 
z
" transform="scale(0.015625)"/>
       <path id="DejaVuSans-61" d="M 2194 1759 
Q 1497 1759 1228 1600 
Q 959 1441 959 1056 
Q 959 750 1161 570 
Q 1363 391 1709 391 
Q 2188 391 2477 730 
Q 2766 1069 2766 1631 
L 2766 1759 
L 2194 1759 
z
M 3341 1997 
L 3341 0 
L 2766 0 
L 2766 531 
Q 2569 213 2275 61 
Q 1981 -91 1556 -91 
Q 1019 -91 701 211 
Q 384 513 384 1019 
Q 384 1609 779 1909 
Q 1175 2209 1959 2209 
L 2766 2209 
L 2766 2266 
Q 2766 2663 2505 2880 
Q 2244 3097 1772 3097 
Q 1472 3097 1187 3025 
Q 903 2953 641 2809 
L 641 3341 
Q 956 3463 1253 3523 
Q 1550 3584 1831 3584 
Q 2591 3584 2966 3190 
Q 3341 2797 3341 1997 
z
" transform="scale(0.015625)"/>
       <path id="DejaVuSans-6c" d="M 603 4863 
L 1178 4863 
L 1178 0 
L 603 0 
L 603 4863 
z
" transform="scale(0.015625)"/>
       <path id="DejaVuSans-6e" d="M 3513 2113 
L 3513 0 
L 2938 0 
L 2938 2094 
Q 2938 2591 2744 2837 
Q 2550 3084 2163 3084 
Q 1697 3084 1428 2787 
Q 1159 2491 1159 1978 
L 1159 0 
L 581 0 
L 581 3500 
L 1159 3500 
L 1159 2956 
Q 1366 3272 1645 3428 
Q 1925 3584 2291 3584 
Q 2894 3584 3203 3211 
Q 3513 2838 3513 2113 
z
" transform="scale(0.015625)"/>
       <path id="DejaVuSans-63" d="M 3122 3366 
L 3122 2828 
Q 2878 2963 2633 3030 
Q 2388 3097 2138 3097 
Q 1578 3097 1268 2742 
Q 959 2388 959 1747 
Q 959 1106 1268 751 
Q 1578 397 2138 397 
Q 2388 397 2633 464 
Q 2878 531 3122 666 
L 3122 134 
Q 2881 22 2623 -34 
Q 2366 -91 2075 -91 
Q 1284 -91 818 406 
Q 353 903 353 1747 
Q 353 2603 823 3093 
Q 1294 3584 2113 3584 
Q 2378 3584 2631 3529 
Q 2884 3475 3122 3366 
z
" transform="scale(0.015625)"/>
       <path id="DejaVuSans-20" transform="scale(0.015625)"/>
       <path id="DejaVuSans-50" d="M 1259 4147 
L 1259 2394 
L 2053 2394 
Q 2494 2394 2734 2622 
Q 2975 2850 2975 3272 
Q 2975 3691 2734 3919 
Q 2494 4147 2053 4147 
L 1259 4147 
z
M 628 4666 
L 2053 4666 
Q 2838 4666 3239 4311 
Q 3641 3956 3641 3272 
Q 3641 2581 3239 2228 
Q 2838 1875 2053 1875 
L 1259 1875 
L 1259 0 
L 628 0 
L 628 4666 
z
" transform="scale(0.015625)"/>
       <path id="DejaVuSans-72" d="M 2631 2963 
Q 2534 3019 2420 3045 
Q 2306 3072 2169 3072 
Q 1681 3072 1420 2755 
Q 1159 2438 1159 1844 
L 1159 0 
L 581 0 
L 581 3500 
L 1159 3500 
L 1159 2956 
Q 1341 3275 1631 3429 
Q 1922 3584 2338 3584 
Q 2397 3584 2469 3576 
Q 2541 3569 2628 3553 
L 2631 2963 
z
" transform="scale(0.015625)"/>
       <path id="DejaVuSans-69" d="M 603 3500 
L 1178 3500 
L 1178 0 
L 603 0 
L 603 3500 
z
M 603 4863 
L 1178 4863 
L 1178 4134 
L 603 4134 
L 603 4863 
z
" transform="scale(0.015625)"/>
       <path id="DejaVuSans-6f" d="M 1959 3097 
Q 1497 3097 1228 2736 
Q 959 2375 959 1747 
Q 959 1119 1226 758 
Q 1494 397 1959 397 
Q 2419 397 2687 759 
Q 2956 1122 2956 1747 
Q 2956 2369 2687 2733 
Q 2419 3097 1959 3097 
z
M 1959 3584 
Q 2709 3584 3137 3096 
Q 3566 2609 3566 1747 
Q 3566 888 3137 398 
Q 2709 -91 1959 -91 
Q 1206 -91 779 398 
Q 353 888 353 1747 
Q 353 2609 779 3096 
Q 1206 3584 1959 3584 
z
" transform="scale(0.015625)"/>
       <path id="DejaVuSans-64" d="M 2906 2969 
L 2906 4863 
L 3481 4863 
L 3481 0 
L 2906 0 
L 2906 525 
Q 2725 213 2448 61 
Q 2172 -91 1784 -91 
Q 1150 -91 751 415 
Q 353 922 353 1747 
Q 353 2572 751 3078 
Q 1150 3584 1784 3584 
Q 2172 3584 2448 3432 
Q 2725 3281 2906 2969 
z
M 947 1747 
Q 947 1113 1208 752 
Q 1469 391 1925 391 
Q 2381 391 2643 752 
Q 2906 1113 2906 1747 
Q 2906 2381 2643 2742 
Q 2381 3103 1925 3103 
Q 1469 3103 1208 2742 
Q 947 2381 947 1747 
z
" transform="scale(0.015625)"/>
      </defs>
      <use xlink:href="#DejaVuSans-52"/>
      <use xlink:href="#DejaVuSans-65" x="64.982422"/>
      <use xlink:href="#DejaVuSans-62" x="126.505859"/>
      <use xlink:href="#DejaVuSans-61" x="189.982422"/>
      <use xlink:href="#DejaVuSans-6c" x="251.261719"/>
      <use xlink:href="#DejaVuSans-61" x="279.044922"/>
      <use xlink:href="#DejaVuSans-6e" x="340.324219"/>
      <use xlink:href="#DejaVuSans-63" x="403.703125"/>
      <use xlink:href="#DejaVuSans-65" x="458.683594"/>
      <use xlink:href="#DejaVuSans-20" x="520.207031"/>
      <use xlink:href="#DejaVuSans-50" x="551.994141"/>
      <use xlink:href="#DejaVuSans-65" x="608.671875"/>
      <use xlink:href="#DejaVuSans-72" x="670.195312"/>
      <use xlink:href="#DejaVuSans-69" x="711.308594"/>
      <use xlink:href="#DejaVuSans-6f" x="739.091797"/>
      <use xlink:href="#DejaVuSans-64" x="800.273438"/>
     </g>
    </g>
   </g>
   <g id="matplotlib.axis_2">
    <g id="ytick_1">
     <g id="line2d_6">
      <defs>
       <path id="md70c42c09e" d="M 0 0 
L -3.5 0 
" style="stroke: #000000; stroke-width: 0.8"/>
      </defs>
      <g>
       <use xlink:href="#md70c42c09e" x="54" y="192.24" style="stroke: #000000; stroke-width: 0.8"/>
      </g>
     </g>
     <g id="text_7">
      <!-- 0.0 -->
      <g transform="translate(31.096875 196.039219)scale(0.1 -0.1)">
       <defs>
        <path id="DejaVuSans-2e" d="M 684 794 
L 1344 794 
L 1344 0 
L 684 0 
L 684 794 
z
" transform="scale(0.015625)"/>
       </defs>
       <use xlink:href="#DejaVuSans-30"/>
       <use xlink:href="#DejaVuSans-2e" x="63.623047"/>
       <use xlink:href="#DejaVuSans-30" x="95.410156"/>
      </g>
     </g>
    </g>
    <g id="ytick_2">
     <g id="line2d_7">
      <g>
       <use xlink:href="#md70c42c09e" x="54" y="160.56" style="stroke: #000000; stroke-width: 0.8"/>
      </g>
     </g>
     <g id="text_8">
      <!-- 0.2 -->
      <g transform="translate(31.096875 164.359219)scale(0.1 -0.1)">
       <use xlink:href="#DejaVuSans-30"/>
       <use xlink:href="#DejaVuSans-2e" x="63.623047"/>
       <use xlink:href="#DejaVuSans-32" x="95.410156"/>
      </g>
     </g>
    </g>
    <g id="ytick_3">
     <g id="line2d_8">
      <g>
       <use xlink:href="#md70c42c09e" x="54" y="128.88" style="stroke: #000000; stroke-width: 0.8"/>
      </g>
     </g>
     <g id="text_9">
      <!-- 0.4 -->
      <g transform="translate(31.096875 132.679219)scale(0.1 -0.1)">
       <use xlink:href="#DejaVuSans-30"/>
       <use xlink:href="#DejaVuSans-2e" x="63.623047"/>
       <use xlink:href="#DejaVuSans-34" x="95.410156"/>
      </g>
     </g>
    </g>
    <g id="ytick_4">
     <g id="line2d_9">
      <g>
       <use xlink:href="#md70c42c09e" x="54" y="97.2" style="stroke: #000000; stroke-width: 0.8"/>
      </g>
     </g>
     <g id="text_10">
      <!-- 0.6 -->
      <g transform="translate(31.096875 100.999219)scale(0.1 -0.1)">
       <use xlink:href="#DejaVuSans-30"/>
       <use xlink:href="#DejaVuSans-2e" x="63.623047"/>
       <use xlink:href="#DejaVuSans-36" x="95.410156"/>
      </g>
     </g>
    </g>
    <g id="ytick_5">
     <g id="line2d_10">
      <g>
       <use xlink:href="#md70c42c09e" x="54" y="65.52" style="stroke: #000000; stroke-width: 0.8"/>
      </g>
     </g>
     <g id="text_11">
      <!-- 0.8 -->
      <g transform="translate(31.096875 69.319219)scale(0.1 -0.1)">
       <use xlink:href="#DejaVuSans-30"/>
       <use xlink:href="#DejaVuSans-2e" x="63.623047"/>
       <use xlink:href="#DejaVuSans-38" x="95.410156"/>
      </g>
     </g>
    </g>
    <g id="ytick_6">
     <g id="line2d_11">
      <g>
       <use xlink:href="#md70c42c09e" x="54" y="33.84" style="stroke: #000000; stroke-width: 0.8"/>
      </g>
     </g>
     <g id="text_12">
      <!-- 1.0 -->
      <g transform="translate(31.096875 37.639219)scale(0.1 -0.1)">
       <use xlink:href="#DejaVuSans-31"/>
       <use xlink:href="#DejaVuSans-2e" x="63.623047"/>
       <use xlink:href="#DejaVuSans-30" x="95.410156"/>
      </g>
     </g>
    </g>
    <g id="text_13">
     <!-- Weights -->
     <g transform="translate(25.017187 129.103437)rotate(-90)scale(0.1 -0.1)">
      <defs>
       <path id="DejaVuSans-57" d="M 213 4666 
L 850 4666 
L 1831 722 
L 2809 4666 
L 3519 4666 
L 4500 722 
L 5478 4666 
L 6119 4666 
L 4947 0 
L 4153 0 
L 3169 4050 
L 2175 0 
L 1381 0 
L 213 4666 
z
" transform="scale(0.015625)"/>
       <path id="DejaVuSans-67" d="M 2906 1791 
Q 2906 2416 2648 2759 
Q 2391 3103 1925 3103 
Q 1463 3103 1205 2759 
Q 947 2416 947 1791 
Q 947 1169 1205 825 
Q 1463 481 1925 481 
Q 2391 481 2648 825 
Q 2906 1169 2906 1791 
z
M 3481 434 
Q 3481 -459 3084 -895 
Q 2688 -1331 1869 -1331 
Q 1566 -1331 1297 -1286 
Q 1028 -1241 775 -1147 
L 775 -588 
Q 1028 -725 1275 -790 
Q 1522 -856 1778 -856 
Q 2344 -856 2625 -561 
Q 2906 -266 2906 331 
L 2906 616 
Q 2728 306 2450 153 
Q 2172 0 1784 0 
Q 1141 0 747 490 
Q 353 981 353 1791 
Q 353 2603 747 3093 
Q 1141 3584 1784 3584 
Q 2172 3584 2450 3431 
Q 2728 3278 2906 2969 
L 2906 3500 
L 3481 3500 
L 3481 434 
z
" transform="scale(0.015625)"/>
       <path id="DejaVuSans-68" d="M 3513 2113 
L 3513 0 
L 2938 0 
L 2938 2094 
Q 2938 2591 2744 2837 
Q 2550 3084 2163 3084 
Q 1697 3084 1428 2787 
Q 1159 2491 1159 1978 
L 1159 0 
L 581 0 
L 581 4863 
L 1159 4863 
L 1159 2956 
Q 1366 3272 1645 3428 
Q 1925 3584 2291 3584 
Q 2894 3584 3203 3211 
Q 3513 2838 3513 2113 
z
" transform="scale(0.015625)"/>
       <path id="DejaVuSans-74" d="M 1172 4494 
L 1172 3500 
L 2356 3500 
L 2356 3053 
L 1172 3053 
L 1172 1153 
Q 1172 725 1289 603 
Q 1406 481 1766 481 
L 2356 481 
L 2356 0 
L 1766 0 
Q 1100 0 847 248 
Q 594 497 594 1153 
L 594 3053 
L 172 3053 
L 172 3500 
L 594 3500 
L 594 4494 
L 1172 4494 
z
" transform="scale(0.015625)"/>
       <path id="DejaVuSans-73" d="M 2834 3397 
L 2834 2853 
Q 2591 2978 2328 3040 
Q 2066 3103 1784 3103 
Q 1356 3103 1142 2972 
Q 928 2841 928 2578 
Q 928 2378 1081 2264 
Q 1234 2150 1697 2047 
L 1894 2003 
Q 2506 1872 2764 1633 
Q 3022 1394 3022 966 
Q 3022 478 2636 193 
Q 2250 -91 1575 -91 
Q 1294 -91 989 -36 
Q 684 19 347 128 
L 347 722 
Q 666 556 975 473 
Q 1284 391 1588 391 
Q 1994 391 2212 530 
Q 2431 669 2431 922 
Q 2431 1156 2273 1281 
Q 2116 1406 1581 1522 
L 1381 1569 
Q 847 1681 609 1914 
Q 372 2147 372 2553 
Q 372 3047 722 3315 
Q 1072 3584 1716 3584 
Q 2034 3584 2315 3537 
Q 2597 3491 2834 3397 
z
" transform="scale(0.015625)"/>
      </defs>
      <use xlink:href="#DejaVuSans-57"/>
      <use xlink:href="#DejaVuSans-65" x="93.001953"/>
      <use xlink:href="#DejaVuSans-69" x="154.525391"/>
      <use xlink:href="#DejaVuSans-67" x="182.308594"/>
      <use xlink:href="#DejaVuSans-68" x="245.785156"/>
      <use xlink:href="#DejaVuSans-74" x="309.164062"/>
      <use xlink:href="#DejaVuSans-73" x="348.373047"/>
     </g>
    </g>
   </g>
   <g id="line2d_12">
    <path d="M 69.218182 192.24 
L 99.654545 192.24 
L 130.090909 192.24 
L 160.527273 192.24 
L 190.963636 192.24 
L 221.4 192.24 
L 251.836364 192.24 
L 282.272727 192.24 
L 312.709091 192.24 
L 343.145455 192.24 
L 373.581818 179.998387 
" clip-path="url(#p4e5a8ffc46)" style="fill: none; stroke: #1f77b4; stroke-width: 1.5; stroke-linecap: square"/>
   </g>
   <g id="line2d_13">
    <path d="M 69.218182 192.24 
L 99.654545 192.24 
L 130.090909 192.24 
L 160.527273 192.24 
L 190.963636 192.24 
L 221.4 192.24 
L 251.836364 192.24 
L 282.272727 192.24 
L 312.709091 192.24 
L 343.145455 192.24 
L 373.581818 179.998387 
" clip-path="url(#p4e5a8ffc46)" style="fill: none; stroke: #ff7f0e; stroke-width: 1.5; stroke-linecap: square"/>
   </g>
   <g id="line2d_14">
    <path d="M 69.218182 165.973581 
L 99.654545 174.346956 
L 130.090909 173.818713 
L 160.527273 172.064135 
L 190.963636 176.145234 
L 221.4 183.166923 
L 251.836364 180.754995 
L 282.272727 180.114002 
L 312.709091 192.24 
L 343.145455 192.24 
L 373.581818 179.998387 
" clip-path="url(#p4e5a8ffc46)" style="fill: none; stroke: #2ca02c; stroke-width: 1.5; stroke-linecap: square"/>
   </g>
   <g id="line2d_15">
    <path d="M 69.218182 165.973581 
L 99.654545 174.346956 
L 130.090909 173.818713 
L 160.527273 172.064135 
L 190.963636 176.145234 
L 221.4 183.166923 
L 251.836364 180.754995 
L 282.272727 180.114002 
L 312.709091 192.24 
L 343.145455 192.24 
L 373.581818 179.998387 
" clip-path="url(#p4e5a8ffc46)" style="fill: none; stroke: #d62728; stroke-width: 1.5; stroke-linecap: square"/>
   </g>
   <g id="line2d_16">
    <path d="M 69.218182 165.973581 
L 99.654545 174.346956 
L 130.090909 173.818713 
L 160.527273 172.064135 
L 190.963636 176.145234 
L 221.4 183.166923 
L 251.836364 180.754995 
L 282.272727 180.114002 
L 312.709091 164.538439 
L 343.145455 179.655037 
L 373.581818 172.078387 
" clip-path="url(#p4e5a8ffc46)" style="fill: none; stroke: #9467bd; stroke-width: 1.5; stroke-linecap: square"/>
   </g>
   <g id="line2d_17">
    <path d="M 69.218182 165.973581 
L 99.654545 174.346956 
L 130.090909 173.818713 
L 160.527273 172.064135 
L 190.963636 176.145234 
L 221.4 183.166923 
L 251.836364 180.754995 
L 282.272727 180.114002 
L 312.709091 164.538439 
L 343.145455 179.655037 
L 373.581818 172.078387 
" clip-path="url(#p4e5a8ffc46)" style="fill: none; stroke: #8c564b; stroke-width: 1.5; stroke-linecap: square"/>
   </g>
   <g id="line2d_18">
    <path d="M 69.218182 158.053581 
L 99.654545 166.426956 
L 130.090909 165.898713 
L 160.527273 164.144135 
L 190.963636 168.225234 
L 221.4 175.246923 
L 251.836364 172.834995 
L 282.272727 172.194002 
L 312.709091 156.618439 
L 343.145455 179.655037 
L 373.581818 172.078387 
" clip-path="url(#p4e5a8ffc46)" style="fill: none; stroke: #e377c2; stroke-width: 1.5; stroke-linecap: square"/>
   </g>
   <g id="line2d_19">
    <path d="M 69.218182 158.053581 
L 99.654545 166.426956 
L 130.090909 165.898713 
L 160.527273 164.144135 
L 190.963636 168.225234 
L 221.4 175.246923 
L 251.836364 172.834995 
L 282.272727 172.194002 
L 312.709091 156.618439 
L 343.145455 179.655037 
L 373.581818 172.078387 
" clip-path="url(#p4e5a8ffc46)" style="fill: none; stroke: #7f7f7f; stroke-width: 1.5; stroke-linecap: square"/>
   </g>
   <g id="line2d_20">
    <path d="M 69.218182 158.053581 
L 99.654545 166.426956 
L 130.090909 165.898713 
L 160.527273 164.144135 
L 190.963636 168.225234 
L 221.4 175.246923 
L 251.836364 172.834995 
L 282.272727 172.194002 
L 312.709091 156.618439 
L 343.145455 179.655037 
L 373.581818 172.078387 
" clip-path="url(#p4e5a8ffc46)" style="fill: none; stroke: #bcbd22; stroke-width: 1.5; stroke-linecap: square"/>
   </g>
   <g id="line2d_21">
    <path d="M 69.218182 158.053581 
L 99.654545 166.426956 
L 130.090909 165.898713 
L 160.527273 164.144135 
L 190.963636 168.225234 
L 221.4 175.246923 
L 251.836364 172.834995 
L 282.272727 172.194002 
L 312.709091 156.618439 
L 343.145455 179.655037 
L 373.581818 172.078387 
" clip-path="url(#p4e5a8ffc46)" style="fill: none; stroke: #17becf; stroke-width: 1.5; stroke-linecap: square"/>
   </g>
   <g id="line2d_22">
    <path d="M 69.218182 158.053581 
L 99.654545 166.426956 
L 130.090909 165.898713 
L 160.527273 164.144135 
L 190.963636 168.225234 
L 221.4 175.246923 
L 251.836364 172.834995 
L 282.272727 172.194002 
L 312.709091 156.618439 
L 343.145455 179.655037 
L 373.581818 172.078387 
" clip-path="url(#p4e5a8ffc46)" style="fill: none; stroke: #1f77b4; stroke-width: 1.5; stroke-linecap: square"/>
   </g>
   <g id="line2d_23">
    <path d="M 69.218182 158.053581 
L 99.654545 166.426956 
L 130.090909 165.898713 
L 160.527273 164.144135 
L 190.963636 168.225234 
L 221.4 175.246923 
L 251.836364 172.834995 
L 282.272727 172.194002 
L 312.709091 142.503679 
L 343.145455 171.735037 
L 373.581818 172.078387 
" clip-path="url(#p4e5a8ffc46)" style="fill: none; stroke: #ff7f0e; stroke-width: 1.5; stroke-linecap: square"/>
   </g>
   <g id="line2d_24">
    <path d="M 69.218182 158.053581 
L 99.654545 166.426956 
L 130.090909 165.898713 
L 160.527273 164.144135 
L 190.963636 168.225234 
L 221.4 175.246923 
L 251.836364 172.834995 
L 282.272727 172.194002 
L 312.709091 142.503679 
L 343.145455 171.735037 
L 373.581818 172.078387 
" clip-path="url(#p4e5a8ffc46)" style="fill: none; stroke: #2ca02c; stroke-width: 1.5; stroke-linecap: square"/>
   </g>
   <g id="line2d_25">
    <path d="M 69.218182 158.053581 
L 99.654545 157.577425 
L 130.090909 157.978713 
L 160.527273 155.429796 
L 190.963636 160.305234 
L 221.4 167.326923 
L 251.836364 164.885506 
L 282.272727 162.209424 
L 312.709091 142.503679 
L 343.145455 171.735037 
L 373.581818 172.078387 
" clip-path="url(#p4e5a8ffc46)" style="fill: none; stroke: #d62728; stroke-width: 1.5; stroke-linecap: square"/>
   </g>
   <g id="line2d_26">
    <path d="M 69.218182 158.053581 
L 99.654545 157.577425 
L 130.090909 157.978713 
L 160.527273 155.429796 
L 190.963636 160.305234 
L 221.4 167.326923 
L 251.836364 164.885506 
L 282.272727 162.209424 
L 312.709091 142.503679 
L 343.145455 163.815037 
L 373.581818 172.078387 
" clip-path="url(#p4e5a8ffc46)" style="fill: none; stroke: #9467bd; stroke-width: 1.5; stroke-linecap: square"/>
   </g>
   <g id="line2d_27">
    <path d="M 69.218182 150.133581 
L 99.654545 149.657425 
L 130.090909 146.072465 
L 160.527273 147.403488 
L 190.963636 160.305234 
L 221.4 167.326923 
L 251.836364 164.885506 
L 282.272727 154.289424 
L 312.709091 126.952392 
L 343.145455 141.471236 
L 373.581818 155.842311 
" clip-path="url(#p4e5a8ffc46)" style="fill: none; stroke: #8c564b; stroke-width: 1.5; stroke-linecap: square"/>
   </g>
   <g id="line2d_28">
    <path d="M 69.218182 150.133581 
L 99.654545 149.657425 
L 130.090909 146.072465 
L 160.527273 147.403488 
L 190.963636 160.305234 
L 221.4 167.326923 
L 251.836364 164.885506 
L 282.272727 154.289424 
L 312.709091 126.952392 
L 343.145455 141.471236 
L 373.581818 155.842311 
" clip-path="url(#p4e5a8ffc46)" style="fill: none; stroke: #e377c2; stroke-width: 1.5; stroke-linecap: square"/>
   </g>
   <g id="line2d_29">
    <path d="M 69.218182 150.133581 
L 99.654545 149.657425 
L 130.090909 138.152465 
L 160.527273 139.483488 
L 190.963636 151.204879 
L 221.4 151.924323 
L 251.836364 147.623762 
L 282.272727 142.401868 
L 312.709091 108.222464 
L 343.145455 133.551236 
L 373.581818 144.332993 
" clip-path="url(#p4e5a8ffc46)" style="fill: none; stroke: #7f7f7f; stroke-width: 1.5; stroke-linecap: square"/>
   </g>
   <g id="line2d_30">
    <path d="M 69.218182 150.133581 
L 99.654545 149.657425 
L 130.090909 138.152465 
L 160.527273 139.483488 
L 190.963636 151.204879 
L 221.4 151.924323 
L 251.836364 147.623762 
L 282.272727 142.401868 
L 312.709091 108.222464 
L 343.145455 133.551236 
L 373.581818 144.332993 
" clip-path="url(#p4e5a8ffc46)" style="fill: none; stroke: #bcbd22; stroke-width: 1.5; stroke-linecap: square"/>
   </g>
   <g id="line2d_31">
    <path d="M 69.218182 138.467407 
L 99.654545 128.794247 
L 130.090909 117.230533 
L 160.527273 123.887488 
L 190.963636 140.267882 
L 221.4 144.004323 
L 251.836364 147.623762 
L 282.272727 142.401868 
L 312.709091 100.131057 
L 343.145455 133.551236 
L 373.581818 144.332993 
" clip-path="url(#p4e5a8ffc46)" style="fill: none; stroke: #17becf; stroke-width: 1.5; stroke-linecap: square"/>
   </g>
   <g id="line2d_32">
    <path d="M 69.218182 110.767032 
L 99.654545 120.874247 
L 130.090909 109.310533 
L 160.527273 115.967488 
L 190.963636 132.347882 
L 221.4 136.084323 
L 251.836364 139.703762 
L 282.272727 142.401868 
L 312.709091 100.131057 
L 343.145455 133.551236 
L 373.581818 144.332993 
" clip-path="url(#p4e5a8ffc46)" style="fill: none; stroke: #1f77b4; stroke-width: 1.5; stroke-linecap: square"/>
   </g>
   <g id="line2d_33">
    <path d="M 69.218182 102.847032 
L 99.654545 109.929673 
L 130.090909 94.08367 
L 160.527273 100.445971 
L 190.963636 111.958422 
L 221.4 112.001572 
L 251.836364 117.402434 
L 282.272727 115.304502 
L 312.709091 69.962881 
L 343.145455 112.907065 
L 373.581818 129.306719 
" clip-path="url(#p4e5a8ffc46)" style="fill: none; stroke: #ff7f0e; stroke-width: 1.5; stroke-linecap: square"/>
   </g>
   <g id="line2d_34">
    <path d="M 69.218182 71.167032 
L 99.654545 78.602219 
L 130.090909 62.40367 
L 160.527273 68.765971 
L 190.963636 80.278422 
L 221.4 80.321572 
L 251.836364 85.722434 
L 282.272727 83.624502 
L 312.709091 69.962881 
L 343.145455 84.460385 
L 373.581818 99.670354 
" clip-path="url(#p4e5a8ffc46)" style="fill: none; stroke: #2ca02c; stroke-width: 1.5; stroke-linecap: square"/>
   </g>
   <g id="line2d_35">
    <path d="M 69.218182 71.167032 
L 99.654545 78.602219 
L 130.090909 62.40367 
L 160.527273 68.765971 
L 190.963636 80.278422 
L 221.4 80.321572 
L 251.836364 85.722434 
L 282.272727 83.624502 
L 312.709091 69.962881 
L 343.145455 84.460385 
L 373.581818 99.670354 
" clip-path="url(#p4e5a8ffc46)" style="fill: none; stroke: #d62728; stroke-width: 1.5; stroke-linecap: square"/>
   </g>
   <g id="line2d_36">
    <path d="M 69.218182 71.167032 
L 99.654545 78.602219 
L 130.090909 62.40367 
L 160.527273 68.765971 
L 190.963636 80.278422 
L 221.4 80.321572 
L 251.836364 85.722434 
L 282.272727 83.624502 
L 312.709091 69.962881 
L 343.145455 84.460385 
L 373.581818 99.670354 
" clip-path="url(#p4e5a8ffc46)" style="fill: none; stroke: #9467bd; stroke-width: 1.5; stroke-linecap: square"/>
   </g>
   <g id="line2d_37">
    <path d="M 69.218182 71.167032 
L 99.654545 70.682219 
L 130.090909 51.73373 
L 160.527273 60.845971 
L 190.963636 67.924513 
L 221.4 65.069275 
L 251.836364 71.452343 
L 282.272727 72.136473 
L 312.709091 52.035749 
L 343.145455 71.990425 
L 373.581818 89.465647 
" clip-path="url(#p4e5a8ffc46)" style="fill: none; stroke: #8c564b; stroke-width: 1.5; stroke-linecap: square"/>
   </g>
   <g id="line2d_38">
    <path d="M 69.218182 71.167032 
L 99.654545 70.682219 
L 130.090909 51.73373 
L 160.527273 60.845971 
L 190.963636 67.924513 
L 221.4 65.069275 
L 251.836364 71.452343 
L 282.272727 72.136473 
L 312.709091 52.035749 
L 343.145455 71.990425 
L 373.581818 89.465647 
" clip-path="url(#p4e5a8ffc46)" style="fill: none; stroke: #e377c2; stroke-width: 1.5; stroke-linecap: square"/>
   </g>
   <g id="line2d_39">
    <path d="M 69.218182 71.167032 
L 99.654545 70.682219 
L 130.090909 51.73373 
L 160.527273 60.845971 
L 190.963636 67.924513 
L 221.4 65.069275 
L 251.836364 71.452343 
L 282.272727 72.136473 
L 312.709091 52.035749 
L 343.145455 64.070425 
L 373.581818 89.465647 
" clip-path="url(#p4e5a8ffc46)" style="fill: none; stroke: #7f7f7f; stroke-width: 1.5; stroke-linecap: square"/>
   </g>
   <g id="line2d_40">
    <path d="M 69.218182 71.167032 
L 99.654545 70.682219 
L 130.090909 51.73373 
L 160.527273 51.966772 
L 190.963636 58.521781 
L 221.4 54.343757 
L 251.836364 60.022296 
L 282.272727 59.940895 
L 312.709091 52.035749 
L 343.145455 64.070425 
L 373.581818 89.465647 
" clip-path="url(#p4e5a8ffc46)" style="fill: none; stroke: #bcbd22; stroke-width: 1.5; stroke-linecap: square"/>
   </g>
   <g id="line2d_41">
    <path d="M 69.218182 60.341336 
L 99.654545 62.762219 
L 130.090909 51.73373 
L 160.527273 51.966772 
L 190.963636 58.521781 
L 221.4 54.343757 
L 251.836364 60.022296 
L 282.272727 59.940895 
L 312.709091 52.035749 
L 343.145455 53.198914 
L 373.581818 62.943255 
" clip-path="url(#p4e5a8ffc46)" style="fill: none; stroke: #17becf; stroke-width: 1.5; stroke-linecap: square"/>
   </g>
   <g id="line2d_42">
    <path d="M 69.218182 60.341336 
L 99.654545 62.762219 
L 130.090909 51.73373 
L 160.527273 51.966772 
L 190.963636 58.521781 
L 221.4 54.343757 
L 251.836364 60.022296 
L 282.272727 59.940895 
L 312.709091 52.035749 
L 343.145455 53.198914 
L 373.581818 62.943255 
" clip-path="url(#p4e5a8ffc46)" style="fill: none; stroke: #1f77b4; stroke-width: 1.5; stroke-linecap: square"/>
   </g>
   <g id="line2d_43">
    <path d="M 69.218182 60.341336 
L 99.654545 62.762219 
L 130.090909 51.73373 
L 160.527273 51.966772 
L 190.963636 58.521781 
L 221.4 54.343757 
L 251.836364 60.022296 
L 282.272727 59.940895 
L 312.709091 52.035749 
L 343.145455 53.198914 
L 373.581818 62.943255 
" clip-path="url(#p4e5a8ffc46)" style="fill: none; stroke: #ff7f0e; stroke-width: 1.5; stroke-linecap: square"/>
   </g>
   <g id="line2d_44">
    <path d="M 69.218182 60.341336 
L 99.654545 62.762219 
L 130.090909 51.73373 
L 160.527273 51.966772 
L 190.963636 58.521781 
L 221.4 54.343757 
L 251.836364 60.022296 
L 282.272727 59.940895 
L 312.709091 52.035749 
L 343.145455 53.198914 
L 373.581818 62.943255 
" clip-path="url(#p4e5a8ffc46)" style="fill: none; stroke: #2ca02c; stroke-width: 1.5; stroke-linecap: square"/>
   </g>
   <g id="line2d_45">
    <path d="M 69.218182 60.341336 
L 99.654545 54.842219 
L 130.090909 43.81373 
L 160.527273 44.046772 
L 190.963636 46.066254 
L 221.4 43.620351 
L 251.836364 45.370728 
L 282.272727 45.345797 
L 312.709091 44.115749 
L 343.145455 45.278914 
L 373.581818 45.764934 
" clip-path="url(#p4e5a8ffc46)" style="fill: none; stroke: #d62728; stroke-width: 1.5; stroke-linecap: square"/>
   </g>
   <g id="line2d_46">
    <path d="M 69.218182 41.76 
L 99.654545 33.84 
L 130.090909 33.84 
L 160.527273 33.84 
L 190.963636 33.84 
L 221.4 33.84 
L 251.836364 33.84 
L 282.272727 33.84 
L 312.709091 33.84 
L 343.145455 33.84 
L 373.581818 33.84 
" clip-path="url(#p4e5a8ffc46)" style="fill: none; stroke: #9467bd; stroke-width: 1.5; stroke-linecap: square"/>
   </g>
   <g id="line2d_47">
    <path d="M 69.218182 33.84 
L 99.654545 33.84 
L 130.090909 33.84 
L 160.527273 33.84 
L 190.963636 33.84 
L 221.4 33.84 
L 251.836364 33.84 
L 282.272727 33.84 
L 312.709091 33.84 
L 343.145455 33.84 
L 373.581818 33.84 
" clip-path="url(#p4e5a8ffc46)" style="fill: none; stroke: #8c564b; stroke-width: 1.5; stroke-linecap: square"/>
   </g>
   <g id="line2d_48">
    <path d="M 69.218182 33.84 
L 99.654545 33.84 
L 130.090909 33.84 
L 160.527273 33.84 
L 190.963636 33.84 
L 221.4 33.84 
L 251.836364 33.84 
L 282.272727 33.84 
L 312.709091 33.84 
L 343.145455 33.84 
L 373.581818 33.84 
" clip-path="url(#p4e5a8ffc46)" style="fill: none; stroke: #e377c2; stroke-width: 1.5; stroke-linecap: square"/>
   </g>
   <g id="patch_3">
    <path d="M 54 192.24 
L 54 25.92 
" style="fill: none; stroke: #000000; stroke-width: 0.8; stroke-linejoin: miter; stroke-linecap: square"/>
   </g>
   <g id="patch_4">
    <path d="M 388.8 192.24 
L 388.8 25.92 
" style="fill: none; stroke: #000000; stroke-width: 0.8; stroke-linejoin: miter; stroke-linecap: square"/>
   </g>
   <g id="patch_5">
    <path d="M 54 192.24 
L 388.8 192.24 
" style="fill: none; stroke: #000000; stroke-width: 0.8; stroke-linejoin: miter; stroke-linecap: square"/>
   </g>
   <g id="patch_6">
    <path d="M 54 25.92 
L 388.8 25.92 
" style="fill: none; stroke: #000000; stroke-width: 0.8; stroke-linejoin: miter; stroke-linecap: square"/>
   </g>
   <g id="text_14">
    <!-- Portfolio weights -->
    <g transform="translate(171.459375 19.92)scale(0.12 -0.12)">
     <defs>
      <path id="DejaVuSans-66" d="M 2375 4863 
L 2375 4384 
L 1825 4384 
Q 1516 4384 1395 4259 
Q 1275 4134 1275 3809 
L 1275 3500 
L 2222 3500 
L 2222 3053 
L 1275 3053 
L 1275 0 
L 697 0 
L 697 3053 
L 147 3053 
L 147 3500 
L 697 3500 
L 697 3744 
Q 697 4328 969 4595 
Q 1241 4863 1831 4863 
L 2375 4863 
z
" transform="scale(0.015625)"/>
      <path id="DejaVuSans-77" d="M 269 3500 
L 844 3500 
L 1563 769 
L 2278 3500 
L 2956 3500 
L 3675 769 
L 4391 3500 
L 4966 3500 
L 4050 0 
L 3372 0 
L 2619 2869 
L 1863 0 
L 1184 0 
L 269 3500 
z
" transform="scale(0.015625)"/>
     </defs>
     <use xlink:href="#DejaVuSans-50"/>
     <use xlink:href="#DejaVuSans-6f" x="56.677734"/>
     <use xlink:href="#DejaVuSans-72" x="117.859375"/>
     <use xlink:href="#DejaVuSans-74" x="158.972656"/>
     <use xlink:href="#DejaVuSans-66" x="198.181641"/>
     <use xlink:href="#DejaVuSans-6f" x="233.386719"/>
     <use xlink:href="#DejaVuSans-6c" x="294.568359"/>
     <use xlink:href="#DejaVuSans-69" x="322.351562"/>
     <use xlink:href="#DejaVuSans-6f" x="350.134766"/>
     <use xlink:href="#DejaVuSans-20" x="411.316406"/>
     <use xlink:href="#DejaVuSans-77" x="443.103516"/>
     <use xlink:href="#DejaVuSans-65" x="524.890625"/>
     <use xlink:href="#DejaVuSans-69" x="586.414062"/>
     <use xlink:href="#DejaVuSans-67" x="614.197266"/>
     <use xlink:href="#DejaVuSans-68" x="677.673828"/>
     <use xlink:href="#DejaVuSans-74" x="741.052734"/>
     <use xlink:href="#DejaVuSans-73" x="780.261719"/>
    </g>
   </g>
   <g id="legend_1">
    <g id="patch_7">
     <path d="M 395.8 382.125313 
L 455.110937 382.125313 
Q 457.110937 382.125313 457.110937 380.125313 
L 457.110937 -161.965313 
Q 457.110937 -163.965313 455.110937 -163.965313 
L 395.8 -163.965313 
Q 393.8 -163.965313 393.8 -161.965313 
L 393.8 380.125313 
Q 393.8 382.125313 395.8 382.125313 
z
" style="fill: #ffffff; opacity: 0.8; stroke: #cccccc; stroke-linejoin: miter"/>
    </g>
    <g id="patch_8">
     <path d="M 397.8 -152.366875 
L 417.8 -152.366875 
L 417.8 -159.366875 
L 397.8 -159.366875 
z
" style="fill: #1f77b4; stroke: #1f77b4; stroke-linejoin: miter"/>
    </g>
    <g id="text_15">
     <!-- EFX -->
     <g transform="translate(425.8 -152.366875)scale(0.1 -0.1)">
      <defs>
       <path id="DejaVuSans-45" d="M 628 4666 
L 3578 4666 
L 3578 4134 
L 1259 4134 
L 1259 2753 
L 3481 2753 
L 3481 2222 
L 1259 2222 
L 1259 531 
L 3634 531 
L 3634 0 
L 628 0 
L 628 4666 
z
" transform="scale(0.015625)"/>
       <path id="DejaVuSans-46" d="M 628 4666 
L 3309 4666 
L 3309 4134 
L 1259 4134 
L 1259 2759 
L 3109 2759 
L 3109 2228 
L 1259 2228 
L 1259 0 
L 628 0 
L 628 4666 
z
" transform="scale(0.015625)"/>
       <path id="DejaVuSans-58" d="M 403 4666 
L 1081 4666 
L 2241 2931 
L 3406 4666 
L 4084 4666 
L 2584 2425 
L 4184 0 
L 3506 0 
L 2194 1984 
L 872 0 
L 191 0 
L 1856 2491 
L 403 4666 
z
" transform="scale(0.015625)"/>
      </defs>
      <use xlink:href="#DejaVuSans-45"/>
      <use xlink:href="#DejaVuSans-46" x="63.183594"/>
      <use xlink:href="#DejaVuSans-58" x="120.703125"/>
     </g>
    </g>
    <g id="patch_9">
     <path d="M 397.8 -137.68875 
L 417.8 -137.68875 
L 417.8 -144.68875 
L 397.8 -144.68875 
z
" style="fill: #ff7f0e; stroke: #ff7f0e; stroke-linejoin: miter"/>
    </g>
    <g id="text_16">
     <!-- NTAP -->
     <g transform="translate(425.8 -137.68875)scale(0.1 -0.1)">
      <defs>
       <path id="DejaVuSans-4e" d="M 628 4666 
L 1478 4666 
L 3547 763 
L 3547 4666 
L 4159 4666 
L 4159 0 
L 3309 0 
L 1241 3903 
L 1241 0 
L 628 0 
L 628 4666 
z
" transform="scale(0.015625)"/>
       <path id="DejaVuSans-54" d="M -19 4666 
L 3928 4666 
L 3928 4134 
L 2272 4134 
L 2272 0 
L 1638 0 
L 1638 4134 
L -19 4134 
L -19 4666 
z
" transform="scale(0.015625)"/>
       <path id="DejaVuSans-41" d="M 2188 4044 
L 1331 1722 
L 3047 1722 
L 2188 4044 
z
M 1831 4666 
L 2547 4666 
L 4325 0 
L 3669 0 
L 3244 1197 
L 1141 1197 
L 716 0 
L 50 0 
L 1831 4666 
z
" transform="scale(0.015625)"/>
      </defs>
      <use xlink:href="#DejaVuSans-4e"/>
      <use xlink:href="#DejaVuSans-54" x="74.804688"/>
      <use xlink:href="#DejaVuSans-41" x="128.138672"/>
      <use xlink:href="#DejaVuSans-50" x="196.546875"/>
     </g>
    </g>
    <g id="patch_10">
     <path d="M 397.8 -123.010625 
L 417.8 -123.010625 
L 417.8 -130.010625 
L 397.8 -130.010625 
z
" style="fill: #2ca02c; stroke: #2ca02c; stroke-linejoin: miter"/>
    </g>
    <g id="text_17">
     <!-- LH -->
     <g transform="translate(425.8 -123.010625)scale(0.1 -0.1)">
      <defs>
       <path id="DejaVuSans-4c" d="M 628 4666 
L 1259 4666 
L 1259 531 
L 3531 531 
L 3531 0 
L 628 0 
L 628 4666 
z
" transform="scale(0.015625)"/>
       <path id="DejaVuSans-48" d="M 628 4666 
L 1259 4666 
L 1259 2753 
L 3553 2753 
L 3553 4666 
L 4184 4666 
L 4184 0 
L 3553 0 
L 3553 2222 
L 1259 2222 
L 1259 0 
L 628 0 
L 628 4666 
z
" transform="scale(0.015625)"/>
      </defs>
      <use xlink:href="#DejaVuSans-4c"/>
      <use xlink:href="#DejaVuSans-48" x="55.712891"/>
     </g>
    </g>
    <g id="patch_11">
     <path d="M 397.8 -108.3325 
L 417.8 -108.3325 
L 417.8 -115.3325 
L 397.8 -115.3325 
z
" style="fill: #d62728; stroke: #d62728; stroke-linejoin: miter"/>
    </g>
    <g id="text_18">
     <!-- DRI -->
     <g transform="translate(425.8 -108.3325)scale(0.1 -0.1)">
      <defs>
       <path id="DejaVuSans-44" d="M 1259 4147 
L 1259 519 
L 2022 519 
Q 2988 519 3436 956 
Q 3884 1394 3884 2338 
Q 3884 3275 3436 3711 
Q 2988 4147 2022 4147 
L 1259 4147 
z
M 628 4666 
L 1925 4666 
Q 3281 4666 3915 4102 
Q 4550 3538 4550 2338 
Q 4550 1131 3912 565 
Q 3275 0 1925 0 
L 628 0 
L 628 4666 
z
" transform="scale(0.015625)"/>
       <path id="DejaVuSans-49" d="M 628 4666 
L 1259 4666 
L 1259 0 
L 628 0 
L 628 4666 
z
" transform="scale(0.015625)"/>
      </defs>
      <use xlink:href="#DejaVuSans-44"/>
      <use xlink:href="#DejaVuSans-52" x="77.001953"/>
      <use xlink:href="#DejaVuSans-49" x="146.484375"/>
     </g>
    </g>
    <g id="patch_12">
     <path d="M 397.8 -93.654375 
L 417.8 -93.654375 
L 417.8 -100.654375 
L 397.8 -100.654375 
z
" style="fill: #9467bd; stroke: #9467bd; stroke-linejoin: miter"/>
    </g>
    <g id="text_19">
     <!-- TSCO -->
     <g transform="translate(425.8 -93.654375)scale(0.1 -0.1)">
      <defs>
       <path id="DejaVuSans-53" d="M 3425 4513 
L 3425 3897 
Q 3066 4069 2747 4153 
Q 2428 4238 2131 4238 
Q 1616 4238 1336 4038 
Q 1056 3838 1056 3469 
Q 1056 3159 1242 3001 
Q 1428 2844 1947 2747 
L 2328 2669 
Q 3034 2534 3370 2195 
Q 3706 1856 3706 1288 
Q 3706 609 3251 259 
Q 2797 -91 1919 -91 
Q 1588 -91 1214 -16 
Q 841 59 441 206 
L 441 856 
Q 825 641 1194 531 
Q 1563 422 1919 422 
Q 2459 422 2753 634 
Q 3047 847 3047 1241 
Q 3047 1584 2836 1778 
Q 2625 1972 2144 2069 
L 1759 2144 
Q 1053 2284 737 2584 
Q 422 2884 422 3419 
Q 422 4038 858 4394 
Q 1294 4750 2059 4750 
Q 2388 4750 2728 4690 
Q 3069 4631 3425 4513 
z
" transform="scale(0.015625)"/>
       <path id="DejaVuSans-43" d="M 4122 4306 
L 4122 3641 
Q 3803 3938 3442 4084 
Q 3081 4231 2675 4231 
Q 1875 4231 1450 3742 
Q 1025 3253 1025 2328 
Q 1025 1406 1450 917 
Q 1875 428 2675 428 
Q 3081 428 3442 575 
Q 3803 722 4122 1019 
L 4122 359 
Q 3791 134 3420 21 
Q 3050 -91 2638 -91 
Q 1578 -91 968 557 
Q 359 1206 359 2328 
Q 359 3453 968 4101 
Q 1578 4750 2638 4750 
Q 3056 4750 3426 4639 
Q 3797 4528 4122 4306 
z
" transform="scale(0.015625)"/>
       <path id="DejaVuSans-4f" d="M 2522 4238 
Q 1834 4238 1429 3725 
Q 1025 3213 1025 2328 
Q 1025 1447 1429 934 
Q 1834 422 2522 422 
Q 3209 422 3611 934 
Q 4013 1447 4013 2328 
Q 4013 3213 3611 3725 
Q 3209 4238 2522 4238 
z
M 2522 4750 
Q 3503 4750 4090 4092 
Q 4678 3434 4678 2328 
Q 4678 1225 4090 567 
Q 3503 -91 2522 -91 
Q 1538 -91 948 565 
Q 359 1222 359 2328 
Q 359 3434 948 4092 
Q 1538 4750 2522 4750 
z
" transform="scale(0.015625)"/>
      </defs>
      <use xlink:href="#DejaVuSans-54"/>
      <use xlink:href="#DejaVuSans-53" x="61.083984"/>
      <use xlink:href="#DejaVuSans-43" x="124.560547"/>
      <use xlink:href="#DejaVuSans-4f" x="194.384766"/>
     </g>
    </g>
    <g id="patch_13">
     <path d="M 397.8 -78.97625 
L 417.8 -78.97625 
L 417.8 -85.97625 
L 397.8 -85.97625 
z
" style="fill: #8c564b; stroke: #8c564b; stroke-linejoin: miter"/>
    </g>
    <g id="text_20">
     <!-- RHI -->
     <g transform="translate(425.8 -78.97625)scale(0.1 -0.1)">
      <use xlink:href="#DejaVuSans-52"/>
      <use xlink:href="#DejaVuSans-48" x="69.482422"/>
      <use xlink:href="#DejaVuSans-49" x="144.677734"/>
     </g>
    </g>
    <g id="patch_14">
     <path d="M 397.8 -64.298125 
L 417.8 -64.298125 
L 417.8 -71.298125 
L 397.8 -71.298125 
z
" style="fill: #e377c2; stroke: #e377c2; stroke-linejoin: miter"/>
    </g>
    <g id="text_21">
     <!-- ADM -->
     <g transform="translate(425.8 -64.298125)scale(0.1 -0.1)">
      <defs>
       <path id="DejaVuSans-4d" d="M 628 4666 
L 1569 4666 
L 2759 1491 
L 3956 4666 
L 4897 4666 
L 4897 0 
L 4281 0 
L 4281 4097 
L 3078 897 
L 2444 897 
L 1241 4097 
L 1241 0 
L 628 0 
L 628 4666 
z
" transform="scale(0.015625)"/>
      </defs>
      <use xlink:href="#DejaVuSans-41"/>
      <use xlink:href="#DejaVuSans-44" x="68.408203"/>
      <use xlink:href="#DejaVuSans-4d" x="145.410156"/>
     </g>
    </g>
    <g id="patch_15">
     <path d="M 397.8 -49.62 
L 417.8 -49.62 
L 417.8 -56.62 
L 397.8 -56.62 
z
" style="fill: #7f7f7f; stroke: #7f7f7f; stroke-linejoin: miter"/>
    </g>
    <g id="text_22">
     <!-- RSG -->
     <g transform="translate(425.8 -49.62)scale(0.1 -0.1)">
      <defs>
       <path id="DejaVuSans-47" d="M 3809 666 
L 3809 1919 
L 2778 1919 
L 2778 2438 
L 4434 2438 
L 4434 434 
Q 4069 175 3628 42 
Q 3188 -91 2688 -91 
Q 1594 -91 976 548 
Q 359 1188 359 2328 
Q 359 3472 976 4111 
Q 1594 4750 2688 4750 
Q 3144 4750 3555 4637 
Q 3966 4525 4313 4306 
L 4313 3634 
Q 3963 3931 3569 4081 
Q 3175 4231 2741 4231 
Q 1884 4231 1454 3753 
Q 1025 3275 1025 2328 
Q 1025 1384 1454 906 
Q 1884 428 2741 428 
Q 3075 428 3337 486 
Q 3600 544 3809 666 
z
" transform="scale(0.015625)"/>
      </defs>
      <use xlink:href="#DejaVuSans-52"/>
      <use xlink:href="#DejaVuSans-53" x="69.482422"/>
      <use xlink:href="#DejaVuSans-47" x="132.958984"/>
     </g>
    </g>
    <g id="patch_16">
     <path d="M 397.8 -34.941875 
L 417.8 -34.941875 
L 417.8 -41.941875 
L 397.8 -41.941875 
z
" style="fill: #bcbd22; stroke: #bcbd22; stroke-linejoin: miter"/>
    </g>
    <g id="text_23">
     <!-- F -->
     <g transform="translate(425.8 -34.941875)scale(0.1 -0.1)">
      <use xlink:href="#DejaVuSans-46"/>
     </g>
    </g>
    <g id="patch_17">
     <path d="M 397.8 -20.26375 
L 417.8 -20.26375 
L 417.8 -27.26375 
L 397.8 -27.26375 
z
" style="fill: #17becf; stroke: #17becf; stroke-linejoin: miter"/>
    </g>
    <g id="text_24">
     <!-- EBAY -->
     <g transform="translate(425.8 -20.26375)scale(0.1 -0.1)">
      <defs>
       <path id="DejaVuSans-42" d="M 1259 2228 
L 1259 519 
L 2272 519 
Q 2781 519 3026 730 
Q 3272 941 3272 1375 
Q 3272 1813 3026 2020 
Q 2781 2228 2272 2228 
L 1259 2228 
z
M 1259 4147 
L 1259 2741 
L 2194 2741 
Q 2656 2741 2882 2914 
Q 3109 3088 3109 3444 
Q 3109 3797 2882 3972 
Q 2656 4147 2194 4147 
L 1259 4147 
z
M 628 4666 
L 2241 4666 
Q 2963 4666 3353 4366 
Q 3744 4066 3744 3513 
Q 3744 3084 3544 2831 
Q 3344 2578 2956 2516 
Q 3422 2416 3680 2098 
Q 3938 1781 3938 1306 
Q 3938 681 3513 340 
Q 3088 0 2303 0 
L 628 0 
L 628 4666 
z
" transform="scale(0.015625)"/>
       <path id="DejaVuSans-59" d="M -13 4666 
L 666 4666 
L 1959 2747 
L 3244 4666 
L 3922 4666 
L 2272 2222 
L 2272 0 
L 1638 0 
L 1638 2222 
L -13 4666 
z
" transform="scale(0.015625)"/>
      </defs>
      <use xlink:href="#DejaVuSans-45"/>
      <use xlink:href="#DejaVuSans-42" x="63.183594"/>
      <use xlink:href="#DejaVuSans-41" x="131.787109"/>
      <use xlink:href="#DejaVuSans-59" x="192.445312"/>
     </g>
    </g>
    <g id="patch_18">
     <path d="M 397.8 -5.585625 
L 417.8 -5.585625 
L 417.8 -12.585625 
L 397.8 -12.585625 
z
" style="fill: #1f77b4; stroke: #1f77b4; stroke-linejoin: miter"/>
    </g>
    <g id="text_25">
     <!-- FDX -->
     <g transform="translate(425.8 -5.585625)scale(0.1 -0.1)">
      <use xlink:href="#DejaVuSans-46"/>
      <use xlink:href="#DejaVuSans-44" x="57.519531"/>
      <use xlink:href="#DejaVuSans-58" x="134.521484"/>
     </g>
    </g>
    <g id="patch_19">
     <path d="M 397.8 9.0925 
L 417.8 9.0925 
L 417.8 2.0925 
L 397.8 2.0925 
z
" style="fill: #ff7f0e; stroke: #ff7f0e; stroke-linejoin: miter"/>
    </g>
    <g id="text_26">
     <!-- ECL -->
     <g transform="translate(425.8 9.0925)scale(0.1 -0.1)">
      <use xlink:href="#DejaVuSans-45"/>
      <use xlink:href="#DejaVuSans-43" x="63.183594"/>
      <use xlink:href="#DejaVuSans-4c" x="133.007812"/>
     </g>
    </g>
    <g id="patch_20">
     <path d="M 397.8 23.770625 
L 417.8 23.770625 
L 417.8 16.770625 
L 397.8 16.770625 
z
" style="fill: #2ca02c; stroke: #2ca02c; stroke-linejoin: miter"/>
    </g>
    <g id="text_27">
     <!-- EMR -->
     <g transform="translate(425.8 23.770625)scale(0.1 -0.1)">
      <use xlink:href="#DejaVuSans-45"/>
      <use xlink:href="#DejaVuSans-4d" x="63.183594"/>
      <use xlink:href="#DejaVuSans-52" x="149.462891"/>
     </g>
    </g>
    <g id="patch_21">
     <path d="M 397.8 38.44875 
L 417.8 38.44875 
L 417.8 31.44875 
L 397.8 31.44875 
z
" style="fill: #d62728; stroke: #d62728; stroke-linejoin: miter"/>
    </g>
    <g id="text_28">
     <!-- HSIC -->
     <g transform="translate(425.8 38.44875)scale(0.1 -0.1)">
      <use xlink:href="#DejaVuSans-48"/>
      <use xlink:href="#DejaVuSans-53" x="75.195312"/>
      <use xlink:href="#DejaVuSans-49" x="138.671875"/>
      <use xlink:href="#DejaVuSans-43" x="168.164062"/>
     </g>
    </g>
    <g id="patch_22">
     <path d="M 397.8 53.126875 
L 417.8 53.126875 
L 417.8 46.126875 
L 397.8 46.126875 
z
" style="fill: #9467bd; stroke: #9467bd; stroke-linejoin: miter"/>
    </g>
    <g id="text_29">
     <!-- VTR -->
     <g transform="translate(425.8 53.126875)scale(0.1 -0.1)">
      <defs>
       <path id="DejaVuSans-56" d="M 1831 0 
L 50 4666 
L 709 4666 
L 2188 738 
L 3669 4666 
L 4325 4666 
L 2547 0 
L 1831 0 
z
" transform="scale(0.015625)"/>
      </defs>
      <use xlink:href="#DejaVuSans-56"/>
      <use xlink:href="#DejaVuSans-54" x="68.408203"/>
      <use xlink:href="#DejaVuSans-52" x="129.492188"/>
     </g>
    </g>
    <g id="patch_23">
     <path d="M 397.8 67.805 
L 417.8 67.805 
L 417.8 60.805 
L 397.8 60.805 
z
" style="fill: #8c564b; stroke: #8c564b; stroke-linejoin: miter"/>
    </g>
    <g id="text_30">
     <!-- ALK -->
     <g transform="translate(425.8 67.805)scale(0.1 -0.1)">
      <defs>
       <path id="DejaVuSans-4b" d="M 628 4666 
L 1259 4666 
L 1259 2694 
L 3353 4666 
L 4166 4666 
L 1850 2491 
L 4331 0 
L 3500 0 
L 1259 2247 
L 1259 0 
L 628 0 
L 628 4666 
z
" transform="scale(0.015625)"/>
      </defs>
      <use xlink:href="#DejaVuSans-41"/>
      <use xlink:href="#DejaVuSans-4c" x="68.408203"/>
      <use xlink:href="#DejaVuSans-4b" x="124.121094"/>
     </g>
    </g>
    <g id="patch_24">
     <path d="M 397.8 82.483125 
L 417.8 82.483125 
L 417.8 75.483125 
L 397.8 75.483125 
z
" style="fill: #e377c2; stroke: #e377c2; stroke-linejoin: miter"/>
    </g>
    <g id="text_31">
     <!-- LEG -->
     <g transform="translate(425.8 82.483125)scale(0.1 -0.1)">
      <use xlink:href="#DejaVuSans-4c"/>
      <use xlink:href="#DejaVuSans-45" x="55.712891"/>
      <use xlink:href="#DejaVuSans-47" x="118.896484"/>
     </g>
    </g>
    <g id="patch_25">
     <path d="M 397.8 97.16125 
L 417.8 97.16125 
L 417.8 90.16125 
L 397.8 90.16125 
z
" style="fill: #7f7f7f; stroke: #7f7f7f; stroke-linejoin: miter"/>
    </g>
    <g id="text_32">
     <!-- ROST -->
     <g transform="translate(425.8 97.16125)scale(0.1 -0.1)">
      <use xlink:href="#DejaVuSans-52"/>
      <use xlink:href="#DejaVuSans-4f" x="69.482422"/>
      <use xlink:href="#DejaVuSans-53" x="148.193359"/>
      <use xlink:href="#DejaVuSans-54" x="211.669922"/>
     </g>
    </g>
    <g id="patch_26">
     <path d="M 397.8 111.839375 
L 417.8 111.839375 
L 417.8 104.839375 
L 397.8 104.839375 
z
" style="fill: #bcbd22; stroke: #bcbd22; stroke-linejoin: miter"/>
    </g>
    <g id="text_33">
     <!-- ITW -->
     <g transform="translate(425.8 111.839375)scale(0.1 -0.1)">
      <use xlink:href="#DejaVuSans-49"/>
      <use xlink:href="#DejaVuSans-54" x="29.492188"/>
      <use xlink:href="#DejaVuSans-57" x="90.576172"/>
     </g>
    </g>
    <g id="patch_27">
     <path d="M 397.8 126.5175 
L 417.8 126.5175 
L 417.8 119.5175 
L 397.8 119.5175 
z
" style="fill: #17becf; stroke: #17becf; stroke-linejoin: miter"/>
    </g>
    <g id="text_34">
     <!-- ILMN -->
     <g transform="translate(425.8 126.5175)scale(0.1 -0.1)">
      <use xlink:href="#DejaVuSans-49"/>
      <use xlink:href="#DejaVuSans-4c" x="29.492188"/>
      <use xlink:href="#DejaVuSans-4d" x="85.205078"/>
      <use xlink:href="#DejaVuSans-4e" x="171.484375"/>
     </g>
    </g>
    <g id="patch_28">
     <path d="M 397.8 141.195625 
L 417.8 141.195625 
L 417.8 134.195625 
L 397.8 134.195625 
z
" style="fill: #1f77b4; stroke: #1f77b4; stroke-linejoin: miter"/>
    </g>
    <g id="text_35">
     <!-- CB -->
     <g transform="translate(425.8 141.195625)scale(0.1 -0.1)">
      <use xlink:href="#DejaVuSans-43"/>
      <use xlink:href="#DejaVuSans-42" x="69.824219"/>
     </g>
    </g>
    <g id="patch_29">
     <path d="M 397.8 155.87375 
L 417.8 155.87375 
L 417.8 148.87375 
L 397.8 148.87375 
z
" style="fill: #ff7f0e; stroke: #ff7f0e; stroke-linejoin: miter"/>
    </g>
    <g id="text_36">
     <!-- DLTR -->
     <g transform="translate(425.8 155.87375)scale(0.1 -0.1)">
      <use xlink:href="#DejaVuSans-44"/>
      <use xlink:href="#DejaVuSans-4c" x="77.001953"/>
      <use xlink:href="#DejaVuSans-54" x="118.964844"/>
      <use xlink:href="#DejaVuSans-52" x="180.048828"/>
     </g>
    </g>
    <g id="patch_30">
     <path d="M 397.8 170.551875 
L 417.8 170.551875 
L 417.8 163.551875 
L 397.8 163.551875 
z
" style="fill: #2ca02c; stroke: #2ca02c; stroke-linejoin: miter"/>
    </g>
    <g id="text_37">
     <!-- SO -->
     <g transform="translate(425.8 170.551875)scale(0.1 -0.1)">
      <use xlink:href="#DejaVuSans-53"/>
      <use xlink:href="#DejaVuSans-4f" x="63.476562"/>
     </g>
    </g>
    <g id="patch_31">
     <path d="M 397.8 185.23 
L 417.8 185.23 
L 417.8 178.23 
L 397.8 178.23 
z
" style="fill: #d62728; stroke: #d62728; stroke-linejoin: miter"/>
    </g>
    <g id="text_38">
     <!-- APD -->
     <g transform="translate(425.8 185.23)scale(0.1 -0.1)">
      <use xlink:href="#DejaVuSans-41"/>
      <use xlink:href="#DejaVuSans-50" x="68.408203"/>
      <use xlink:href="#DejaVuSans-44" x="128.710938"/>
     </g>
    </g>
    <g id="patch_32">
     <path d="M 397.8 199.908125 
L 417.8 199.908125 
L 417.8 192.908125 
L 397.8 192.908125 
z
" style="fill: #9467bd; stroke: #9467bd; stroke-linejoin: miter"/>
    </g>
    <g id="text_39">
     <!-- PRU -->
     <g transform="translate(425.8 199.908125)scale(0.1 -0.1)">
      <defs>
       <path id="DejaVuSans-55" d="M 556 4666 
L 1191 4666 
L 1191 1831 
Q 1191 1081 1462 751 
Q 1734 422 2344 422 
Q 2950 422 3222 751 
Q 3494 1081 3494 1831 
L 3494 4666 
L 4128 4666 
L 4128 1753 
Q 4128 841 3676 375 
Q 3225 -91 2344 -91 
Q 1459 -91 1007 375 
Q 556 841 556 1753 
L 556 4666 
z
" transform="scale(0.015625)"/>
      </defs>
      <use xlink:href="#DejaVuSans-50"/>
      <use xlink:href="#DejaVuSans-52" x="60.302734"/>
      <use xlink:href="#DejaVuSans-55" x="129.785156"/>
     </g>
    </g>
    <g id="patch_33">
     <path d="M 397.8 214.58625 
L 417.8 214.58625 
L 417.8 207.58625 
L 397.8 207.58625 
z
" style="fill: #8c564b; stroke: #8c564b; stroke-linejoin: miter"/>
    </g>
    <g id="text_40">
     <!-- CNP -->
     <g transform="translate(425.8 214.58625)scale(0.1 -0.1)">
      <use xlink:href="#DejaVuSans-43"/>
      <use xlink:href="#DejaVuSans-4e" x="69.824219"/>
      <use xlink:href="#DejaVuSans-50" x="144.628906"/>
     </g>
    </g>
    <g id="patch_34">
     <path d="M 397.8 229.264375 
L 417.8 229.264375 
L 417.8 222.264375 
L 397.8 222.264375 
z
" style="fill: #e377c2; stroke: #e377c2; stroke-linejoin: miter"/>
    </g>
    <g id="text_41">
     <!-- NOXL -->
     <g transform="translate(425.8 229.264375)scale(0.1 -0.1)">
      <use xlink:href="#DejaVuSans-4e"/>
      <use xlink:href="#DejaVuSans-4f" x="74.804688"/>
      <use xlink:href="#DejaVuSans-58" x="147.140625"/>
      <use xlink:href="#DejaVuSans-4c" x="215.646484"/>
     </g>
    </g>
    <g id="patch_35">
     <path d="M 397.8 243.9425 
L 417.8 243.9425 
L 417.8 236.9425 
L 397.8 236.9425 
z
" style="fill: #7f7f7f; stroke: #7f7f7f; stroke-linejoin: miter"/>
    </g>
    <g id="text_42">
     <!-- ESS -->
     <g transform="translate(425.8 243.9425)scale(0.1 -0.1)">
      <use xlink:href="#DejaVuSans-45"/>
      <use xlink:href="#DejaVuSans-53" x="63.183594"/>
      <use xlink:href="#DejaVuSans-53" x="126.660156"/>
     </g>
    </g>
    <g id="patch_36">
     <path d="M 397.8 258.620625 
L 417.8 258.620625 
L 417.8 251.620625 
L 397.8 251.620625 
z
" style="fill: #bcbd22; stroke: #bcbd22; stroke-linejoin: miter"/>
    </g>
    <g id="text_43">
     <!-- CPRT -->
     <g transform="translate(425.8 258.620625)scale(0.1 -0.1)">
      <use xlink:href="#DejaVuSans-43"/>
      <use xlink:href="#DejaVuSans-50" x="69.824219"/>
      <use xlink:href="#DejaVuSans-52" x="130.126953"/>
      <use xlink:href="#DejaVuSans-54" x="192.359375"/>
     </g>
    </g>
    <g id="patch_37">
     <path d="M 397.8 273.29875 
L 417.8 273.29875 
L 417.8 266.29875 
L 397.8 266.29875 
z
" style="fill: #17becf; stroke: #17becf; stroke-linejoin: miter"/>
    </g>
    <g id="text_44">
     <!-- LMT -->
     <g transform="translate(425.8 273.29875)scale(0.1 -0.1)">
      <use xlink:href="#DejaVuSans-4c"/>
      <use xlink:href="#DejaVuSans-4d" x="55.712891"/>
      <use xlink:href="#DejaVuSans-54" x="141.992188"/>
     </g>
    </g>
    <g id="patch_38">
     <path d="M 397.8 287.976875 
L 417.8 287.976875 
L 417.8 280.976875 
L 397.8 280.976875 
z
" style="fill: #1f77b4; stroke: #1f77b4; stroke-linejoin: miter"/>
    </g>
    <g id="text_45">
     <!-- MLM -->
     <g transform="translate(425.8 287.976875)scale(0.1 -0.1)">
      <use xlink:href="#DejaVuSans-4d"/>
      <use xlink:href="#DejaVuSans-4c" x="86.279297"/>
      <use xlink:href="#DejaVuSans-4d" x="141.992188"/>
     </g>
    </g>
    <g id="patch_39">
     <path d="M 397.8 302.655 
L 417.8 302.655 
L 417.8 295.655 
L 397.8 295.655 
z
" style="fill: #ff7f0e; stroke: #ff7f0e; stroke-linejoin: miter"/>
    </g>
    <g id="text_46">
     <!-- BWA -->
     <g transform="translate(425.8 302.655)scale(0.1 -0.1)">
      <use xlink:href="#DejaVuSans-42"/>
      <use xlink:href="#DejaVuSans-57" x="64.978516"/>
      <use xlink:href="#DejaVuSans-41" x="158.355469"/>
     </g>
    </g>
    <g id="patch_40">
     <path d="M 397.8 317.333125 
L 417.8 317.333125 
L 417.8 310.333125 
L 397.8 310.333125 
z
" style="fill: #2ca02c; stroke: #2ca02c; stroke-linejoin: miter"/>
    </g>
    <g id="text_47">
     <!-- EMN -->
     <g transform="translate(425.8 317.333125)scale(0.1 -0.1)">
      <use xlink:href="#DejaVuSans-45"/>
      <use xlink:href="#DejaVuSans-4d" x="63.183594"/>
      <use xlink:href="#DejaVuSans-4e" x="149.462891"/>
     </g>
    </g>
    <g id="patch_41">
     <path d="M 397.8 332.01125 
L 417.8 332.01125 
L 417.8 325.01125 
L 397.8 325.01125 
z
" style="fill: #d62728; stroke: #d62728; stroke-linejoin: miter"/>
    </g>
    <g id="text_48">
     <!-- EIX -->
     <g transform="translate(425.8 332.01125)scale(0.1 -0.1)">
      <use xlink:href="#DejaVuSans-45"/>
      <use xlink:href="#DejaVuSans-49" x="63.183594"/>
      <use xlink:href="#DejaVuSans-58" x="92.675781"/>
     </g>
    </g>
    <g id="patch_42">
     <path d="M 397.8 346.689375 
L 417.8 346.689375 
L 417.8 339.689375 
L 397.8 339.689375 
z
" style="fill: #9467bd; stroke: #9467bd; stroke-linejoin: miter"/>
    </g>
    <g id="text_49">
     <!-- GILD -->
     <g transform="translate(425.8 346.689375)scale(0.1 -0.1)">
      <use xlink:href="#DejaVuSans-47"/>
      <use xlink:href="#DejaVuSans-49" x="77.490234"/>
      <use xlink:href="#DejaVuSans-4c" x="106.982422"/>
      <use xlink:href="#DejaVuSans-44" x="162.695312"/>
     </g>
    </g>
    <g id="patch_43">
     <path d="M 397.8 361.3675 
L 417.8 361.3675 
L 417.8 354.3675 
L 397.8 354.3675 
z
" style="fill: #8c564b; stroke: #8c564b; stroke-linejoin: miter"/>
    </g>
    <g id="text_50">
     <!-- MMM -->
     <g transform="translate(425.8 361.3675)scale(0.1 -0.1)">
      <use xlink:href="#DejaVuSans-4d"/>
      <use xlink:href="#DejaVuSans-4d" x="86.279297"/>
      <use xlink:href="#DejaVuSans-4d" x="172.558594"/>
     </g>
    </g>
    <g id="patch_44">
     <path d="M 397.8 376.045625 
L 417.8 376.045625 
L 417.8 369.045625 
L 397.8 369.045625 
z
" style="fill: #e377c2; stroke: #e377c2; stroke-linejoin: miter"/>
    </g>
    <g id="text_51">
     <!-- TXT -->
     <g transform="translate(425.8 376.045625)scale(0.1 -0.1)">
      <use xlink:href="#DejaVuSans-54"/>
      <use xlink:href="#DejaVuSans-58" x="61.083984"/>
      <use xlink:href="#DejaVuSans-54" x="127.839844"/>
     </g>
    </g>
   </g>
  </g>
 </g>
 <defs>
  <clipPath id="p4e5a8ffc46">
   <rect x="54" y="25.92" width="334.8" height="166.32"/>
  </clipPath>
 </defs>
</svg>
