<?xml version="1.0" encoding="utf-8" standalone="no"?>
<!DOCTYPE svg PUBLIC "-//W3C//DTD SVG 1.1//EN"
  "http://www.w3.org/Graphics/SVG/1.1/DTD/svg11.dtd">
<svg xmlns:xlink="http://www.w3.org/1999/xlink" width="432pt" height="216pt" viewBox="0 0 432 216" xmlns="http://www.w3.org/2000/svg" version="1.1">
 <metadata>
  <rdf:RDF xmlns:dc="http://purl.org/dc/elements/1.1/" xmlns:cc="http://creativecommons.org/ns#" xmlns:rdf="http://www.w3.org/1999/02/22-rdf-syntax-ns#">
   <cc:Work>
    <dc:type rdf:resource="http://purl.org/dc/dcmitype/StillImage"/>
    <dc:date>2024-03-16T17:27:05.597737</dc:date>
    <dc:format>image/svg+xml</dc:format>
    <dc:creator>
     <cc:Agent>
      <dc:title>Matplotlib v3.5.2, https://matplotlib.org/</dc:title>
     </cc:Agent>
    </dc:creator>
   </cc:Work>
  </rdf:RDF>
 </metadata>
 <defs>
  <style type="text/css">*{stroke-linejoin: round; stroke-linecap: butt}</style>
 </defs>
 <g id="figure_1">
  <g id="patch_1">
   <path d="M 0 216 
L 432 216 
L 432 0 
L 0 0 
z
" style="fill: #ffffff"/>
  </g>
  <g id="axes_1">
   <g id="patch_2">
    <path d="M 54 192.24 
L 388.8 192.24 
L 388.8 25.92 
L 54 25.92 
z
" style="fill: #ffffff"/>
   </g>
   <g id="PolyCollection_1">
    <defs>
     <path id="mf1b024f3db" d="M 69.218182 -23.760001 
L 69.218182 -23.76 
L 85.237321 -23.76 
L 101.256459 -23.76 
L 117.275598 -23.76 
L 133.294737 -23.76 
L 149.313876 -23.76 
L 165.333014 -23.76 
L 181.352153 -23.76 
L 197.371292 -23.76 
L 213.390431 -23.76 
L 229.409569 -23.76 
L 245.428708 -23.76 
L 261.447847 -23.76 
L 277.466986 -23.76 
L 293.486124 -23.76 
L 309.505263 -23.76 
L 325.524402 -23.76 
L 341.543541 -23.76 
L 357.562679 -23.76 
L 373.581818 -23.76 
L 373.581818 -23.760001 
L 373.581818 -23.760001 
L 357.562679 -23.760004 
L 341.543541 -29.857295 
L 325.524402 -31.911371 
L 309.505263 -28.792779 
L 293.486124 -29.12595 
L 277.466986 -23.907772 
L 261.447847 -23.760011 
L 245.428708 -23.76 
L 229.409569 -23.76 
L 213.390431 -23.76 
L 197.371292 -23.76 
L 181.352153 -23.76 
L 165.333014 -23.76 
L 149.313876 -23.76 
L 133.294737 -23.76 
L 117.275598 -23.760001 
L 101.256459 -23.760001 
L 85.237321 -23.760001 
L 69.218182 -23.760001 
z
" style="stroke: #1f77b4"/>
    </defs>
    <g clip-path="url(#p7a87b44d0c)">
     <use xlink:href="#mf1b024f3db" x="0" y="216" style="fill: #1f77b4; stroke: #1f77b4"/>
    </g>
   </g>
   <g id="PolyCollection_2">
    <defs>
     <path id="mcc45617d0c" d="M 69.218182 -26.016663 
L 69.218182 -23.760001 
L 85.237321 -23.760001 
L 101.256459 -23.760001 
L 117.275598 -23.760001 
L 133.294737 -23.76 
L 149.313876 -23.76 
L 165.333014 -23.76 
L 181.352153 -23.76 
L 197.371292 -23.76 
L 213.390431 -23.76 
L 229.409569 -23.76 
L 245.428708 -23.76 
L 261.447847 -23.760011 
L 277.466986 -23.907772 
L 293.486124 -29.12595 
L 309.505263 -28.792779 
L 325.524402 -31.911371 
L 341.543541 -29.857295 
L 357.562679 -23.760004 
L 373.581818 -23.760001 
L 373.581818 -23.760002 
L 373.581818 -23.760002 
L 357.562679 -24.522985 
L 341.543541 -32.703449 
L 325.524402 -37.705934 
L 309.505263 -28.792781 
L 293.486124 -29.125951 
L 277.466986 -23.907772 
L 261.447847 -23.760012 
L 245.428708 -23.760001 
L 229.409569 -23.76 
L 213.390431 -23.76 
L 197.371292 -23.76 
L 181.352153 -23.76 
L 165.333014 -23.76 
L 149.313876 -23.76 
L 133.294737 -23.76 
L 117.275598 -23.760005 
L 101.256459 -23.760006 
L 85.237321 -23.760004 
L 69.218182 -26.016663 
z
" style="stroke: #ff7f0e"/>
    </defs>
    <g clip-path="url(#p7a87b44d0c)">
     <use xlink:href="#mcc45617d0c" x="0" y="216" style="fill: #ff7f0e; stroke: #ff7f0e"/>
    </g>
   </g>
   <g id="PolyCollection_3">
    <defs>
     <path id="m0cb93cb3d7" d="M 69.218182 -26.016667 
L 69.218182 -26.016663 
L 85.237321 -23.760004 
L 101.256459 -23.760006 
L 117.275598 -23.760005 
L 133.294737 -23.76 
L 149.313876 -23.76 
L 165.333014 -23.76 
L 181.352153 -23.76 
L 197.371292 -23.76 
L 213.390431 -23.76 
L 229.409569 -23.76 
L 245.428708 -23.760001 
L 261.447847 -23.760012 
L 277.466986 -23.907772 
L 293.486124 -29.125951 
L 309.505263 -28.792781 
L 325.524402 -37.705934 
L 341.543541 -32.703449 
L 357.562679 -24.522985 
L 373.581818 -23.760002 
L 373.581818 -23.760003 
L 373.581818 -23.760003 
L 357.562679 -24.522986 
L 341.543541 -32.70345 
L 325.524402 -41.326958 
L 309.505263 -28.792783 
L 293.486124 -29.125953 
L 277.466986 -23.907772 
L 261.447847 -23.760014 
L 245.428708 -23.760002 
L 229.409569 -23.76 
L 213.390431 -23.760001 
L 197.371292 -23.76 
L 181.352153 -23.76 
L 165.333014 -23.76 
L 149.313876 -23.760001 
L 133.294737 -23.760011 
L 117.275598 -44.570205 
L 101.256459 -33.124428 
L 85.237321 -27.37378 
L 69.218182 -26.016667 
z
" style="stroke: #2ca02c"/>
    </defs>
    <g clip-path="url(#p7a87b44d0c)">
     <use xlink:href="#m0cb93cb3d7" x="0" y="216" style="fill: #2ca02c; stroke: #2ca02c"/>
    </g>
   </g>
   <g id="PolyCollection_4">
    <defs>
     <path id="m4c0c86516e" d="M 69.218182 -26.016668 
L 69.218182 -26.016667 
L 85.237321 -27.37378 
L 101.256459 -33.124428 
L 117.275598 -44.570205 
L 133.294737 -23.760011 
L 149.313876 -23.760001 
L 165.333014 -23.76 
L 181.352153 -23.76 
L 197.371292 -23.76 
L 213.390431 -23.760001 
L 229.409569 -23.76 
L 245.428708 -23.760002 
L 261.447847 -23.760014 
L 277.466986 -23.907772 
L 293.486124 -29.125953 
L 309.505263 -28.792783 
L 325.524402 -41.326958 
L 341.543541 -32.70345 
L 357.562679 -24.522986 
L 373.581818 -23.760003 
L 373.581818 -35.272559 
L 373.581818 -35.272559 
L 357.562679 -38.04905 
L 341.543541 -63.961916 
L 325.524402 -56.139781 
L 309.505263 -57.405974 
L 293.486124 -62.301951 
L 277.466986 -64.057166 
L 261.447847 -63.492792 
L 245.428708 -61.694748 
L 229.409569 -64.745262 
L 213.390431 -61.954243 
L 197.371292 -38.732988 
L 181.352153 -23.76 
L 165.333014 -23.760001 
L 149.313876 -23.760002 
L 133.294737 -23.760011 
L 117.275598 -44.570209 
L 101.256459 -33.12443 
L 85.237321 -27.373783 
L 69.218182 -26.016668 
z
" style="stroke: #d62728"/>
    </defs>
    <g clip-path="url(#p7a87b44d0c)">
     <use xlink:href="#m4c0c86516e" x="0" y="216" style="fill: #d62728; stroke: #d62728"/>
    </g>
   </g>
   <g id="PolyCollection_5">
    <defs>
     <path id="m024d210347" d="M 69.218182 -26.016669 
L 69.218182 -26.016668 
L 85.237321 -27.373783 
L 101.256459 -33.12443 
L 117.275598 -44.570209 
L 133.294737 -23.760011 
L 149.313876 -23.760002 
L 165.333014 -23.760001 
L 181.352153 -23.76 
L 197.371292 -38.732988 
L 213.390431 -61.954243 
L 229.409569 -64.745262 
L 245.428708 -61.694748 
L 261.447847 -63.492792 
L 277.466986 -64.057166 
L 293.486124 -62.301951 
L 309.505263 -57.405974 
L 325.524402 -56.139781 
L 341.543541 -63.961916 
L 357.562679 -38.04905 
L 373.581818 -35.272559 
L 373.581818 -35.27256 
L 373.581818 -35.27256 
L 357.562679 -38.049051 
L 341.543541 -63.961917 
L 325.524402 -56.139782 
L 309.505263 -57.405979 
L 293.486124 -62.301956 
L 277.466986 -64.057167 
L 261.447847 -63.4928 
L 245.428708 -61.694755 
L 229.409569 -64.745263 
L 213.390431 -61.954244 
L 197.371292 -38.732989 
L 181.352153 -23.760001 
L 165.333014 -23.760001 
L 149.313876 -23.760002 
L 133.294737 -23.760012 
L 117.275598 -44.570217 
L 101.256459 -33.124595 
L 85.237321 -27.373785 
L 69.218182 -26.016669 
z
" style="stroke: #9467bd"/>
    </defs>
    <g clip-path="url(#p7a87b44d0c)">
     <use xlink:href="#m024d210347" x="0" y="216" style="fill: #9467bd; stroke: #9467bd"/>
    </g>
   </g>
   <g id="PolyCollection_6">
    <defs>
     <path id="m6cf2d35291" d="M 69.218182 -49.30101 
L 69.218182 -26.016669 
L 85.237321 -27.373785 
L 101.256459 -33.124595 
L 117.275598 -44.570217 
L 133.294737 -23.760012 
L 149.313876 -23.760002 
L 165.333014 -23.760001 
L 181.352153 -23.760001 
L 197.371292 -38.732989 
L 213.390431 -61.954244 
L 229.409569 -64.745263 
L 245.428708 -61.694755 
L 261.447847 -63.4928 
L 277.466986 -64.057167 
L 293.486124 -62.301956 
L 309.505263 -57.405979 
L 325.524402 -56.139782 
L 341.543541 -63.961917 
L 357.562679 -38.049051 
L 373.581818 -35.27256 
L 373.581818 -35.272562 
L 373.581818 -35.272562 
L 357.562679 -38.049056 
L 341.543541 -63.961921 
L 325.524402 -74.829281 
L 309.505263 -74.384473 
L 293.486124 -88.928148 
L 277.466986 -68.24327 
L 261.447847 -75.699472 
L 245.428708 -92.324217 
L 229.409569 -89.291022 
L 213.390431 -61.954244 
L 197.371292 -38.73299 
L 181.352153 -23.760001 
L 165.333014 -23.760001 
L 149.313876 -23.760003 
L 133.294737 -25.658691 
L 117.275598 -84.348073 
L 101.256459 -80.099674 
L 85.237321 -47.992992 
L 69.218182 -49.30101 
z
" style="stroke: #8c564b"/>
    </defs>
    <g clip-path="url(#p7a87b44d0c)">
     <use xlink:href="#m6cf2d35291" x="0" y="216" style="fill: #8c564b; stroke: #8c564b"/>
    </g>
   </g>
   <g id="PolyCollection_7">
    <defs>
     <path id="me3e4cbabfd" d="M 69.218182 -67.302719 
L 69.218182 -49.30101 
L 85.237321 -47.992992 
L 101.256459 -80.099674 
L 117.275598 -84.348073 
L 133.294737 -25.658691 
L 149.313876 -23.760003 
L 165.333014 -23.760001 
L 181.352153 -23.760001 
L 197.371292 -38.73299 
L 213.390431 -61.954244 
L 229.409569 -89.291022 
L 245.428708 -92.324217 
L 261.447847 -75.699472 
L 277.466986 -68.24327 
L 293.486124 -88.928148 
L 309.505263 -74.384473 
L 325.524402 -74.829281 
L 341.543541 -63.961921 
L 357.562679 -38.049056 
L 373.581818 -35.272562 
L 373.581818 -51.214637 
L 373.581818 -51.214637 
L 357.562679 -43.599535 
L 341.543541 -63.961924 
L 325.524402 -76.825403 
L 309.505263 -76.825045 
L 293.486124 -93.69671 
L 277.466986 -83.470204 
L 261.447847 -86.848689 
L 245.428708 -95.45525 
L 229.409569 -91.848332 
L 213.390431 -80.31081 
L 197.371292 -85.205244 
L 181.352153 -71.534497 
L 165.333014 -74.044205 
L 149.313876 -75.375035 
L 133.294737 -82.626622 
L 117.275598 -128.943869 
L 101.256459 -109.655883 
L 85.237321 -75.637337 
L 69.218182 -67.302719 
z
" style="stroke: #e377c2"/>
    </defs>
    <g clip-path="url(#p7a87b44d0c)">
     <use xlink:href="#me3e4cbabfd" x="0" y="216" style="fill: #e377c2; stroke: #e377c2"/>
    </g>
   </g>
   <g id="PolyCollection_8">
    <defs>
     <path id="ma5b7e2fc8f" d="M 69.218182 -74.207017 
L 69.218182 -67.302719 
L 85.237321 -75.637337 
L 101.256459 -109.655883 
L 117.275598 -128.943869 
L 133.294737 -82.626622 
L 149.313876 -75.375035 
L 165.333014 -74.044205 
L 181.352153 -71.534497 
L 197.371292 -85.205244 
L 213.390431 -80.31081 
L 229.409569 -91.848332 
L 245.428708 -95.45525 
L 261.447847 -86.848689 
L 277.466986 -83.470204 
L 293.486124 -93.69671 
L 309.505263 -76.825045 
L 325.524402 -76.825403 
L 341.543541 -63.961924 
L 357.562679 -43.599535 
L 373.581818 -51.214637 
L 373.581818 -51.214638 
L 373.581818 -51.214638 
L 357.562679 -43.599537 
L 341.543541 -63.961926 
L 325.524402 -76.825404 
L 309.505263 -76.825046 
L 293.486124 -93.696711 
L 277.466986 -83.470204 
L 261.447847 -86.848692 
L 245.428708 -95.455251 
L 229.409569 -91.848332 
L 213.390431 -80.310811 
L 197.371292 -85.205244 
L 181.352153 -71.534497 
L 165.333014 -74.044205 
L 149.313876 -75.375035 
L 133.294737 -82.626622 
L 117.275598 -128.94387 
L 101.256459 -109.655885 
L 85.237321 -79.121849 
L 69.218182 -74.207017 
z
" style="stroke: #7f7f7f"/>
    </defs>
    <g clip-path="url(#p7a87b44d0c)">
     <use xlink:href="#ma5b7e2fc8f" x="0" y="216" style="fill: #7f7f7f; stroke: #7f7f7f"/>
    </g>
   </g>
   <g id="PolyCollection_9">
    <defs>
     <path id="m842c632524" d="M 69.218182 -96.143927 
L 69.218182 -74.207017 
L 85.237321 -79.121849 
L 101.256459 -109.655885 
L 117.275598 -128.94387 
L 133.294737 -82.626622 
L 149.313876 -75.375035 
L 165.333014 -74.044205 
L 181.352153 -71.534497 
L 197.371292 -85.205244 
L 213.390431 -80.310811 
L 229.409569 -91.848332 
L 245.428708 -95.455251 
L 261.447847 -86.848692 
L 277.466986 -83.470204 
L 293.486124 -93.696711 
L 309.505263 -76.825046 
L 325.524402 -76.825404 
L 341.543541 -63.961926 
L 357.562679 -43.599537 
L 373.581818 -51.214638 
L 373.581818 -111.478315 
L 373.581818 -111.478315 
L 357.562679 -91.720238 
L 341.543541 -119.510941 
L 325.524402 -122.555413 
L 309.505263 -110.68129 
L 293.486124 -104.067516 
L 277.466986 -95.603382 
L 261.447847 -86.848696 
L 245.428708 -95.455265 
L 229.409569 -91.848332 
L 213.390431 -80.310811 
L 197.371292 -85.205244 
L 181.352153 -71.534497 
L 165.333014 -74.044205 
L 149.313876 -75.375036 
L 133.294737 -82.626624 
L 117.275598 -136.72633 
L 101.256459 -122.597254 
L 85.237321 -94.141217 
L 69.218182 -96.143927 
z
" style="stroke: #bcbd22"/>
    </defs>
    <g clip-path="url(#p7a87b44d0c)">
     <use xlink:href="#m842c632524" x="0" y="216" style="fill: #bcbd22; stroke: #bcbd22"/>
    </g>
   </g>
   <g id="PolyCollection_10">
    <defs>
     <path id="m927df32ae0" d="M 69.218182 -96.143928 
L 69.218182 -96.143927 
L 85.237321 -94.141217 
L 101.256459 -122.597254 
L 117.275598 -136.72633 
L 133.294737 -82.626624 
L 149.313876 -75.375036 
L 165.333014 -74.044205 
L 181.352153 -71.534497 
L 197.371292 -85.205244 
L 213.390431 -80.310811 
L 229.409569 -91.848332 
L 245.428708 -95.455265 
L 261.447847 -86.848696 
L 277.466986 -95.603382 
L 293.486124 -104.067516 
L 309.505263 -110.68129 
L 325.524402 -122.555413 
L 341.543541 -119.510941 
L 357.562679 -91.720238 
L 373.581818 -111.478315 
L 373.581818 -111.478317 
L 373.581818 -111.478317 
L 357.562679 -93.642594 
L 341.543541 -121.25758 
L 325.524402 -122.555413 
L 309.505263 -110.681291 
L 293.486124 -104.067517 
L 277.466986 -95.603383 
L 261.447847 -86.848697 
L 245.428708 -95.455265 
L 229.409569 -91.848332 
L 213.390431 -80.310811 
L 197.371292 -85.205244 
L 181.352153 -71.534497 
L 165.333014 -74.044205 
L 149.313876 -75.375036 
L 133.294737 -82.626624 
L 117.275598 -136.726331 
L 101.256459 -122.597255 
L 85.237321 -94.141221 
L 69.218182 -96.143928 
z
" style="stroke: #17becf"/>
    </defs>
    <g clip-path="url(#p7a87b44d0c)">
     <use xlink:href="#m927df32ae0" x="0" y="216" style="fill: #17becf; stroke: #17becf"/>
    </g>
   </g>
   <g id="PolyCollection_11">
    <defs>
     <path id="mdfb519c076" d="M 69.218182 -99.239069 
L 69.218182 -96.143928 
L 85.237321 -94.141221 
L 101.256459 -122.597255 
L 117.275598 -136.726331 
L 133.294737 -82.626624 
L 149.313876 -75.375036 
L 165.333014 -74.044205 
L 181.352153 -71.534497 
L 197.371292 -85.205244 
L 213.390431 -80.310811 
L 229.409569 -91.848332 
L 245.428708 -95.455265 
L 261.447847 -86.848697 
L 277.466986 -95.603383 
L 293.486124 -104.067517 
L 309.505263 -110.681291 
L 325.524402 -122.555413 
L 341.543541 -121.25758 
L 357.562679 -93.642594 
L 373.581818 -111.478317 
L 373.581818 -111.478318 
L 373.581818 -111.478318 
L 357.562679 -96.909403 
L 341.543541 -125.617208 
L 325.524402 -122.555415 
L 309.505263 -119.845375 
L 293.486124 -121.246144 
L 277.466986 -106.066196 
L 261.447847 -98.332089 
L 245.428708 -98.514194 
L 229.409569 -91.848332 
L 213.390431 -80.316643 
L 197.371292 -85.205245 
L 181.352153 -71.534497 
L 165.333014 -74.044205 
L 149.313876 -75.375036 
L 133.294737 -82.626624 
L 117.275598 -136.726333 
L 101.256459 -124.953712 
L 85.237321 -99.925574 
L 69.218182 -99.239069 
z
" style="stroke: #1f77b4"/>
    </defs>
    <g clip-path="url(#p7a87b44d0c)">
     <use xlink:href="#mdfb519c076" x="0" y="216" style="fill: #1f77b4; stroke: #1f77b4"/>
    </g>
   </g>
   <g id="PolyCollection_12">
    <defs>
     <path id="ma616fdbdc3" d="M 69.218182 -99.23907 
L 69.218182 -99.239069 
L 85.237321 -99.925574 
L 101.256459 -124.953712 
L 117.275598 -136.726333 
L 133.294737 -82.626624 
L 149.313876 -75.375036 
L 165.333014 -74.044205 
L 181.352153 -71.534497 
L 197.371292 -85.205245 
L 213.390431 -80.316643 
L 229.409569 -91.848332 
L 245.428708 -98.514194 
L 261.447847 -98.332089 
L 277.466986 -106.066196 
L 293.486124 -121.246144 
L 309.505263 -119.845375 
L 325.524402 -122.555415 
L 341.543541 -125.617208 
L 357.562679 -96.909403 
L 373.581818 -111.478318 
L 373.581818 -120.069547 
L 373.581818 -120.069547 
L 357.562679 -118.859889 
L 341.543541 -135.898587 
L 325.524402 -124.741763 
L 309.505263 -125.43792 
L 293.486124 -141.936256 
L 277.466986 -117.559202 
L 261.447847 -125.471727 
L 245.428708 -132.139649 
L 229.409569 -149.228395 
L 213.390431 -95.266225 
L 197.371292 -99.559469 
L 181.352153 -93.480594 
L 165.333014 -94.686775 
L 149.313876 -90.331584 
L 133.294737 -84.579615 
L 117.275598 -140.278857 
L 101.256459 -124.953715 
L 85.237321 -99.925575 
L 69.218182 -99.23907 
z
" style="stroke: #ff7f0e"/>
    </defs>
    <g clip-path="url(#p7a87b44d0c)">
     <use xlink:href="#ma616fdbdc3" x="0" y="216" style="fill: #ff7f0e; stroke: #ff7f0e"/>
    </g>
   </g>
   <g id="PolyCollection_13">
    <defs>
     <path id="m60a77131e9" d="M 69.218182 -99.239071 
L 69.218182 -99.23907 
L 85.237321 -99.925575 
L 101.256459 -124.953715 
L 117.275598 -140.278857 
L 133.294737 -84.579615 
L 149.313876 -90.331584 
L 165.333014 -94.686775 
L 181.352153 -93.480594 
L 197.371292 -99.559469 
L 213.390431 -95.266225 
L 229.409569 -149.228395 
L 245.428708 -132.139649 
L 261.447847 -125.471727 
L 277.466986 -117.559202 
L 293.486124 -141.936256 
L 309.505263 -125.43792 
L 325.524402 -124.741763 
L 341.543541 -135.898587 
L 357.562679 -118.859889 
L 373.581818 -120.069547 
L 373.581818 -120.069549 
L 373.581818 -120.069549 
L 357.562679 -118.859891 
L 341.543541 -135.898592 
L 325.524402 -125.920097 
L 309.505263 -125.437923 
L 293.486124 -141.936258 
L 277.466986 -117.559203 
L 261.447847 -131.51486 
L 245.428708 -132.139652 
L 229.409569 -149.228396 
L 213.390431 -95.266225 
L 197.371292 -99.559469 
L 181.352153 -93.480594 
L 165.333014 -94.686775 
L 149.313876 -90.331585 
L 133.294737 -103.851101 
L 117.275598 -140.278866 
L 101.256459 -124.953716 
L 85.237321 -99.925576 
L 69.218182 -99.239071 
z
" style="stroke: #2ca02c"/>
    </defs>
    <g clip-path="url(#p7a87b44d0c)">
     <use xlink:href="#m60a77131e9" x="0" y="216" style="fill: #2ca02c; stroke: #2ca02c"/>
    </g>
   </g>
   <g id="PolyCollection_14">
    <defs>
     <path id="m0c0e14de0f" d="M 69.218182 -137.982906 
L 69.218182 -99.239071 
L 85.237321 -99.925576 
L 101.256459 -124.953716 
L 117.275598 -140.278866 
L 133.294737 -103.851101 
L 149.313876 -90.331585 
L 165.333014 -94.686775 
L 181.352153 -93.480594 
L 197.371292 -99.559469 
L 213.390431 -95.266225 
L 229.409569 -149.228396 
L 245.428708 -132.139652 
L 261.447847 -131.51486 
L 277.466986 -117.559203 
L 293.486124 -141.936258 
L 309.505263 -125.437923 
L 325.524402 -125.920097 
L 341.543541 -135.898592 
L 357.562679 -118.859891 
L 373.581818 -120.069549 
L 373.581818 -120.06955 
L 373.581818 -120.06955 
L 357.562679 -118.859892 
L 341.543541 -135.898593 
L 325.524402 -125.920097 
L 309.505263 -125.437931 
L 293.486124 -141.936271 
L 277.466986 -138.058004 
L 261.447847 -131.51487 
L 245.428708 -132.139655 
L 229.409569 -149.228396 
L 213.390431 -95.266226 
L 197.371292 -99.55947 
L 181.352153 -93.480595 
L 165.333014 -94.686775 
L 149.313876 -90.331585 
L 133.294737 -103.851111 
L 117.275598 -140.27889 
L 101.256459 -133.200125 
L 85.237321 -121.743389 
L 69.218182 -137.982906 
z
" style="stroke: #d62728"/>
    </defs>
    <g clip-path="url(#p7a87b44d0c)">
     <use xlink:href="#m0c0e14de0f" x="0" y="216" style="fill: #d62728; stroke: #d62728"/>
    </g>
   </g>
   <g id="PolyCollection_15">
    <defs>
     <path id="m2280329979" d="M 69.218182 -137.982907 
L 69.218182 -137.982906 
L 85.237321 -121.743389 
L 101.256459 -133.200125 
L 117.275598 -140.27889 
L 133.294737 -103.851111 
L 149.313876 -90.331585 
L 165.333014 -94.686775 
L 181.352153 -93.480595 
L 197.371292 -99.55947 
L 213.390431 -95.266226 
L 229.409569 -149.228396 
L 245.428708 -132.139655 
L 261.447847 -131.51487 
L 277.466986 -138.058004 
L 293.486124 -141.936271 
L 309.505263 -125.437931 
L 325.524402 -125.920097 
L 341.543541 -135.898593 
L 357.562679 -118.859892 
L 373.581818 -120.06955 
L 373.581818 -120.069552 
L 373.581818 -120.069552 
L 357.562679 -118.859897 
L 341.543541 -135.898596 
L 325.524402 -125.920098 
L 309.505263 -125.437934 
L 293.486124 -141.936279 
L 277.466986 -146.522212 
L 261.447847 -131.514873 
L 245.428708 -132.139659 
L 229.409569 -149.228396 
L 213.390431 -104.337165 
L 197.371292 -104.7259 
L 181.352153 -125.247182 
L 165.333014 -132.862148 
L 149.313876 -119.541679 
L 133.294737 -131.818218 
L 117.275598 -157.35979 
L 101.256459 -133.200133 
L 85.237321 -121.743391 
L 69.218182 -137.982907 
z
" style="stroke: #9467bd"/>
    </defs>
    <g clip-path="url(#p7a87b44d0c)">
     <use xlink:href="#m2280329979" x="0" y="216" style="fill: #9467bd; stroke: #9467bd"/>
    </g>
   </g>
   <g id="PolyCollection_16">
    <defs>
     <path id="md27f81a6eb" d="M 69.218182 -150.995231 
L 69.218182 -137.982907 
L 85.237321 -121.743391 
L 101.256459 -133.200133 
L 117.275598 -157.35979 
L 133.294737 -131.818218 
L 149.313876 -119.541679 
L 165.333014 -132.862148 
L 181.352153 -125.247182 
L 197.371292 -104.7259 
L 213.390431 -104.337165 
L 229.409569 -149.228396 
L 245.428708 -132.139659 
L 261.447847 -131.514873 
L 277.466986 -146.522212 
L 293.486124 -141.936279 
L 309.505263 -125.437934 
L 325.524402 -125.920098 
L 341.543541 -135.898596 
L 357.562679 -118.859897 
L 373.581818 -120.069552 
L 373.581818 -120.069552 
L 373.581818 -120.069552 
L 357.562679 -118.859898 
L 341.543541 -135.898598 
L 325.524402 -125.920099 
L 309.505263 -125.437935 
L 293.486124 -141.93628 
L 277.466986 -146.522212 
L 261.447847 -131.514877 
L 245.428708 -132.13966 
L 229.409569 -149.228397 
L 213.390431 -104.337165 
L 197.371292 -104.7259 
L 181.352153 -125.247182 
L 165.333014 -132.862148 
L 149.313876 -119.54168 
L 133.294737 -131.818218 
L 117.275598 -160.119891 
L 101.256459 -146.335847 
L 85.237321 -136.697545 
L 69.218182 -150.995231 
z
" style="stroke: #8c564b"/>
    </defs>
    <g clip-path="url(#p7a87b44d0c)">
     <use xlink:href="#md27f81a6eb" x="0" y="216" style="fill: #8c564b; stroke: #8c564b"/>
    </g>
   </g>
   <g id="PolyCollection_17">
    <defs>
     <path id="ma09894d77d" d="M 69.218182 -157.790234 
L 69.218182 -150.995231 
L 85.237321 -136.697545 
L 101.256459 -146.335847 
L 117.275598 -160.119891 
L 133.294737 -131.818218 
L 149.313876 -119.54168 
L 165.333014 -132.862148 
L 181.352153 -125.247182 
L 197.371292 -104.7259 
L 213.390431 -104.337165 
L 229.409569 -149.228397 
L 245.428708 -132.13966 
L 261.447847 -131.514877 
L 277.466986 -146.522212 
L 293.486124 -141.93628 
L 309.505263 -125.437935 
L 325.524402 -125.920099 
L 341.543541 -135.898598 
L 357.562679 -118.859898 
L 373.581818 -120.069552 
L 373.581818 -152.345495 
L 373.581818 -152.345495 
L 357.562679 -158.267722 
L 341.543541 -167.559807 
L 325.524402 -143.060898 
L 309.505263 -139.230384 
L 293.486124 -152.943987 
L 277.466986 -170.358843 
L 261.447847 -177.955128 
L 245.428708 -181.435754 
L 229.409569 -181.397133 
L 213.390431 -176.798482 
L 197.371292 -171.362836 
L 181.352153 -178.749604 
L 165.333014 -180.050705 
L 149.313876 -173.124834 
L 133.294737 -175.167003 
L 117.275598 -160.119898 
L 101.256459 -161.755548 
L 85.237321 -154.080379 
L 69.218182 -157.790234 
z
" style="stroke: #e377c2"/>
    </defs>
    <g clip-path="url(#p7a87b44d0c)">
     <use xlink:href="#ma09894d77d" x="0" y="216" style="fill: #e377c2; stroke: #e377c2"/>
    </g>
   </g>
   <g id="PolyCollection_18">
    <defs>
     <path id="m6d4fc589d1" d="M 69.218182 -178.917858 
L 69.218182 -157.790234 
L 85.237321 -154.080379 
L 101.256459 -161.755548 
L 117.275598 -160.119898 
L 133.294737 -175.167003 
L 149.313876 -173.124834 
L 165.333014 -180.050705 
L 181.352153 -178.749604 
L 197.371292 -171.362836 
L 213.390431 -176.798482 
L 229.409569 -181.397133 
L 245.428708 -181.435754 
L 261.447847 -177.955128 
L 277.466986 -170.358843 
L 293.486124 -152.943987 
L 309.505263 -139.230384 
L 325.524402 -143.060898 
L 341.543541 -167.559807 
L 357.562679 -158.267722 
L 373.581818 -152.345495 
L 373.581818 -157.429742 
L 373.581818 -157.429742 
L 357.562679 -170.173634 
L 341.543541 -167.559811 
L 325.524402 -143.0609 
L 309.505263 -139.230388 
L 293.486124 -152.94399 
L 277.466986 -170.358847 
L 261.447847 -177.955132 
L 245.428708 -181.435761 
L 229.409569 -181.397134 
L 213.390431 -179.42251 
L 197.371292 -171.362836 
L 181.352153 -178.749605 
L 165.333014 -180.050705 
L 149.313876 -173.124835 
L 133.294737 -175.167009 
L 117.275598 -160.119913 
L 101.256459 -173.58453 
L 85.237321 -179.229919 
L 69.218182 -178.917858 
z
" style="stroke: #7f7f7f"/>
    </defs>
    <g clip-path="url(#p7a87b44d0c)">
     <use xlink:href="#m6d4fc589d1" x="0" y="216" style="fill: #7f7f7f; stroke: #7f7f7f"/>
    </g>
   </g>
   <g id="PolyCollection_19">
    <defs>
     <path id="ma7f6dea381" d="M 69.218182 -178.91786 
L 69.218182 -178.917858 
L 85.237321 -179.229919 
L 101.256459 -173.58453 
L 117.275598 -160.119913 
L 133.294737 -175.167009 
L 149.313876 -173.124835 
L 165.333014 -180.050705 
L 181.352153 -178.749605 
L 197.371292 -171.362836 
L 213.390431 -179.42251 
L 229.409569 -181.397134 
L 245.428708 -181.435761 
L 261.447847 -177.955132 
L 277.466986 -170.358847 
L 293.486124 -152.94399 
L 309.505263 -139.230388 
L 325.524402 -143.0609 
L 341.543541 -167.559811 
L 357.562679 -170.173634 
L 373.581818 -157.429742 
L 373.581818 -175.999954 
L 373.581818 -175.999954 
L 357.562679 -177.973956 
L 341.543541 -178.502871 
L 325.524402 -171.604242 
L 309.505263 -170.180749 
L 293.486124 -178.356188 
L 277.466986 -181.581284 
L 261.447847 -177.955151 
L 245.428708 -181.435765 
L 229.409569 -181.397135 
L 213.390431 -179.422522 
L 197.371292 -171.362836 
L 181.352153 -178.749605 
L 165.333014 -180.050705 
L 149.313876 -173.124836 
L 133.294737 -175.167019 
L 117.275598 -160.119916 
L 101.256459 -173.584532 
L 85.237321 -179.22992 
L 69.218182 -178.91786 
z
" style="stroke: #bcbd22"/>
    </defs>
    <g clip-path="url(#p7a87b44d0c)">
     <use xlink:href="#ma7f6dea381" x="0" y="216" style="fill: #bcbd22; stroke: #bcbd22"/>
    </g>
   </g>
   <g id="PolyCollection_20">
    <defs>
     <path id="m43099b9876" d="M 69.218182 -182.16 
L 69.218182 -178.91786 
L 85.237321 -179.22992 
L 101.256459 -173.584532 
L 117.275598 -160.119916 
L 133.294737 -175.167019 
L 149.313876 -173.124836 
L 165.333014 -180.050705 
L 181.352153 -178.749605 
L 197.371292 -171.362836 
L 213.390431 -179.422522 
L 229.409569 -181.397135 
L 245.428708 -181.435765 
L 261.447847 -177.955151 
L 277.466986 -181.581284 
L 293.486124 -178.356188 
L 309.505263 -170.180749 
L 325.524402 -171.604242 
L 341.543541 -178.502871 
L 357.562679 -177.973956 
L 373.581818 -175.999954 
L 373.581818 -182.16 
L 373.581818 -182.16 
L 357.562679 -182.16 
L 341.543541 -182.16 
L 325.524402 -182.16 
L 309.505263 -182.16 
L 293.486124 -182.16 
L 277.466986 -182.16 
L 261.447847 -182.16 
L 245.428708 -182.16 
L 229.409569 -182.16 
L 213.390431 -182.16 
L 197.371292 -182.16 
L 181.352153 -182.16 
L 165.333014 -182.16 
L 149.313876 -182.16 
L 133.294737 -182.16 
L 117.275598 -182.16 
L 101.256459 -182.16 
L 85.237321 -182.16 
L 69.218182 -182.16 
z
" style="stroke: #17becf"/>
    </defs>
    <g clip-path="url(#p7a87b44d0c)">
     <use xlink:href="#m43099b9876" x="0" y="216" style="fill: #17becf; stroke: #17becf"/>
    </g>
   </g>
   <g id="matplotlib.axis_1">
    <g id="xtick_1">
     <g id="line2d_1">
      <defs>
       <path id="m9f015bd0fb" d="M 0 0 
L 0 3.5 
" style="stroke: #000000; stroke-width: 0.8"/>
      </defs>
      <g>
       <use xlink:href="#m9f015bd0fb" x="93.24689" y="192.24" style="stroke: #000000; stroke-width: 0.8"/>
      </g>
     </g>
     <g id="text_1">
      <!-- 2.5 -->
      <g transform="translate(85.295327 206.838437)scale(0.1 -0.1)">
       <defs>
        <path id="DejaVuSans-32" d="M 1228 531 
L 3431 531 
L 3431 0 
L 469 0 
L 469 531 
Q 828 903 1448 1529 
Q 2069 2156 2228 2338 
Q 2531 2678 2651 2914 
Q 2772 3150 2772 3378 
Q 2772 3750 2511 3984 
Q 2250 4219 1831 4219 
Q 1534 4219 1204 4116 
Q 875 4013 500 3803 
L 500 4441 
Q 881 4594 1212 4672 
Q 1544 4750 1819 4750 
Q 2544 4750 2975 4387 
Q 3406 4025 3406 3419 
Q 3406 3131 3298 2873 
Q 3191 2616 2906 2266 
Q 2828 2175 2409 1742 
Q 1991 1309 1228 531 
z
" transform="scale(0.015625)"/>
        <path id="DejaVuSans-2e" d="M 684 794 
L 1344 794 
L 1344 0 
L 684 0 
L 684 794 
z
" transform="scale(0.015625)"/>
        <path id="DejaVuSans-35" d="M 691 4666 
L 3169 4666 
L 3169 4134 
L 1269 4134 
L 1269 2991 
Q 1406 3038 1543 3061 
Q 1681 3084 1819 3084 
Q 2600 3084 3056 2656 
Q 3513 2228 3513 1497 
Q 3513 744 3044 326 
Q 2575 -91 1722 -91 
Q 1428 -91 1123 -41 
Q 819 9 494 109 
L 494 744 
Q 775 591 1075 516 
Q 1375 441 1709 441 
Q 2250 441 2565 725 
Q 2881 1009 2881 1497 
Q 2881 1984 2565 2268 
Q 2250 2553 1709 2553 
Q 1456 2553 1204 2497 
Q 953 2441 691 2322 
L 691 4666 
z
" transform="scale(0.015625)"/>
       </defs>
       <use xlink:href="#DejaVuSans-32"/>
       <use xlink:href="#DejaVuSans-2e" x="63.623047"/>
       <use xlink:href="#DejaVuSans-35" x="95.410156"/>
      </g>
     </g>
    </g>
    <g id="xtick_2">
     <g id="line2d_2">
      <g>
       <use xlink:href="#m9f015bd0fb" x="133.294737" y="192.24" style="stroke: #000000; stroke-width: 0.8"/>
      </g>
     </g>
     <g id="text_2">
      <!-- 5.0 -->
      <g transform="translate(125.343174 206.838437)scale(0.1 -0.1)">
       <defs>
        <path id="DejaVuSans-30" d="M 2034 4250 
Q 1547 4250 1301 3770 
Q 1056 3291 1056 2328 
Q 1056 1369 1301 889 
Q 1547 409 2034 409 
Q 2525 409 2770 889 
Q 3016 1369 3016 2328 
Q 3016 3291 2770 3770 
Q 2525 4250 2034 4250 
z
M 2034 4750 
Q 2819 4750 3233 4129 
Q 3647 3509 3647 2328 
Q 3647 1150 3233 529 
Q 2819 -91 2034 -91 
Q 1250 -91 836 529 
Q 422 1150 422 2328 
Q 422 3509 836 4129 
Q 1250 4750 2034 4750 
z
" transform="scale(0.015625)"/>
       </defs>
       <use xlink:href="#DejaVuSans-35"/>
       <use xlink:href="#DejaVuSans-2e" x="63.623047"/>
       <use xlink:href="#DejaVuSans-30" x="95.410156"/>
      </g>
     </g>
    </g>
    <g id="xtick_3">
     <g id="line2d_3">
      <g>
       <use xlink:href="#m9f015bd0fb" x="173.342584" y="192.24" style="stroke: #000000; stroke-width: 0.8"/>
      </g>
     </g>
     <g id="text_3">
      <!-- 7.5 -->
      <g transform="translate(165.391021 206.838437)scale(0.1 -0.1)">
       <defs>
        <path id="DejaVuSans-37" d="M 525 4666 
L 3525 4666 
L 3525 4397 
L 1831 0 
L 1172 0 
L 2766 4134 
L 525 4134 
L 525 4666 
z
" transform="scale(0.015625)"/>
       </defs>
       <use xlink:href="#DejaVuSans-37"/>
       <use xlink:href="#DejaVuSans-2e" x="63.623047"/>
       <use xlink:href="#DejaVuSans-35" x="95.410156"/>
      </g>
     </g>
    </g>
    <g id="xtick_4">
     <g id="line2d_4">
      <g>
       <use xlink:href="#m9f015bd0fb" x="213.390431" y="192.24" style="stroke: #000000; stroke-width: 0.8"/>
      </g>
     </g>
     <g id="text_4">
      <!-- 10.0 -->
      <g transform="translate(202.257618 206.838437)scale(0.1 -0.1)">
       <defs>
        <path id="DejaVuSans-31" d="M 794 531 
L 1825 531 
L 1825 4091 
L 703 3866 
L 703 4441 
L 1819 4666 
L 2450 4666 
L 2450 531 
L 3481 531 
L 3481 0 
L 794 0 
L 794 531 
z
" transform="scale(0.015625)"/>
       </defs>
       <use xlink:href="#DejaVuSans-31"/>
       <use xlink:href="#DejaVuSans-30" x="63.623047"/>
       <use xlink:href="#DejaVuSans-2e" x="127.246094"/>
       <use xlink:href="#DejaVuSans-30" x="159.033203"/>
      </g>
     </g>
    </g>
    <g id="xtick_5">
     <g id="line2d_5">
      <g>
       <use xlink:href="#m9f015bd0fb" x="253.438278" y="192.24" style="stroke: #000000; stroke-width: 0.8"/>
      </g>
     </g>
     <g id="text_5">
      <!-- 12.5 -->
      <g transform="translate(242.305465 206.838437)scale(0.1 -0.1)">
       <use xlink:href="#DejaVuSans-31"/>
       <use xlink:href="#DejaVuSans-32" x="63.623047"/>
       <use xlink:href="#DejaVuSans-2e" x="127.246094"/>
       <use xlink:href="#DejaVuSans-35" x="159.033203"/>
      </g>
     </g>
    </g>
    <g id="xtick_6">
     <g id="line2d_6">
      <g>
       <use xlink:href="#m9f015bd0fb" x="293.486124" y="192.24" style="stroke: #000000; stroke-width: 0.8"/>
      </g>
     </g>
     <g id="text_6">
      <!-- 15.0 -->
      <g transform="translate(282.353312 206.838437)scale(0.1 -0.1)">
       <use xlink:href="#DejaVuSans-31"/>
       <use xlink:href="#DejaVuSans-35" x="63.623047"/>
       <use xlink:href="#DejaVuSans-2e" x="127.246094"/>
       <use xlink:href="#DejaVuSans-30" x="159.033203"/>
      </g>
     </g>
    </g>
    <g id="xtick_7">
     <g id="line2d_7">
      <g>
       <use xlink:href="#m9f015bd0fb" x="333.533971" y="192.24" style="stroke: #000000; stroke-width: 0.8"/>
      </g>
     </g>
     <g id="text_7">
      <!-- 17.5 -->
      <g transform="translate(322.401159 206.838437)scale(0.1 -0.1)">
       <use xlink:href="#DejaVuSans-31"/>
       <use xlink:href="#DejaVuSans-37" x="63.623047"/>
       <use xlink:href="#DejaVuSans-2e" x="127.246094"/>
       <use xlink:href="#DejaVuSans-35" x="159.033203"/>
      </g>
     </g>
    </g>
    <g id="xtick_8">
     <g id="line2d_8">
      <g>
       <use xlink:href="#m9f015bd0fb" x="373.581818" y="192.24" style="stroke: #000000; stroke-width: 0.8"/>
      </g>
     </g>
     <g id="text_8">
      <!-- 20.0 -->
      <g transform="translate(362.449006 206.838437)scale(0.1 -0.1)">
       <use xlink:href="#DejaVuSans-32"/>
       <use xlink:href="#DejaVuSans-30" x="63.623047"/>
       <use xlink:href="#DejaVuSans-2e" x="127.246094"/>
       <use xlink:href="#DejaVuSans-30" x="159.033203"/>
      </g>
     </g>
    </g>
    <g id="text_9">
     <!-- Rebalance Period -->
     <g transform="translate(178.210938 220.516562)scale(0.1 -0.1)">
      <defs>
       <path id="DejaVuSans-52" d="M 2841 2188 
Q 3044 2119 3236 1894 
Q 3428 1669 3622 1275 
L 4263 0 
L 3584 0 
L 2988 1197 
Q 2756 1666 2539 1819 
Q 2322 1972 1947 1972 
L 1259 1972 
L 1259 0 
L 628 0 
L 628 4666 
L 2053 4666 
Q 2853 4666 3247 4331 
Q 3641 3997 3641 3322 
Q 3641 2881 3436 2590 
Q 3231 2300 2841 2188 
z
M 1259 4147 
L 1259 2491 
L 2053 2491 
Q 2509 2491 2742 2702 
Q 2975 2913 2975 3322 
Q 2975 3731 2742 3939 
Q 2509 4147 2053 4147 
L 1259 4147 
z
" transform="scale(0.015625)"/>
       <path id="DejaVuSans-65" d="M 3597 1894 
L 3597 1613 
L 953 1613 
Q 991 1019 1311 708 
Q 1631 397 2203 397 
Q 2534 397 2845 478 
Q 3156 559 3463 722 
L 3463 178 
Q 3153 47 2828 -22 
Q 2503 -91 2169 -91 
Q 1331 -91 842 396 
Q 353 884 353 1716 
Q 353 2575 817 3079 
Q 1281 3584 2069 3584 
Q 2775 3584 3186 3129 
Q 3597 2675 3597 1894 
z
M 3022 2063 
Q 3016 2534 2758 2815 
Q 2500 3097 2075 3097 
Q 1594 3097 1305 2825 
Q 1016 2553 972 2059 
L 3022 2063 
z
" transform="scale(0.015625)"/>
       <path id="DejaVuSans-62" d="M 3116 1747 
Q 3116 2381 2855 2742 
Q 2594 3103 2138 3103 
Q 1681 3103 1420 2742 
Q 1159 2381 1159 1747 
Q 1159 1113 1420 752 
Q 1681 391 2138 391 
Q 2594 391 2855 752 
Q 3116 1113 3116 1747 
z
M 1159 2969 
Q 1341 3281 1617 3432 
Q 1894 3584 2278 3584 
Q 2916 3584 3314 3078 
Q 3713 2572 3713 1747 
Q 3713 922 3314 415 
Q 2916 -91 2278 -91 
Q 1894 -91 1617 61 
Q 1341 213 1159 525 
L 1159 0 
L 581 0 
L 581 4863 
L 1159 4863 
L 1159 2969 
z
" transform="scale(0.015625)"/>
       <path id="DejaVuSans-61" d="M 2194 1759 
Q 1497 1759 1228 1600 
Q 959 1441 959 1056 
Q 959 750 1161 570 
Q 1363 391 1709 391 
Q 2188 391 2477 730 
Q 2766 1069 2766 1631 
L 2766 1759 
L 2194 1759 
z
M 3341 1997 
L 3341 0 
L 2766 0 
L 2766 531 
Q 2569 213 2275 61 
Q 1981 -91 1556 -91 
Q 1019 -91 701 211 
Q 384 513 384 1019 
Q 384 1609 779 1909 
Q 1175 2209 1959 2209 
L 2766 2209 
L 2766 2266 
Q 2766 2663 2505 2880 
Q 2244 3097 1772 3097 
Q 1472 3097 1187 3025 
Q 903 2953 641 2809 
L 641 3341 
Q 956 3463 1253 3523 
Q 1550 3584 1831 3584 
Q 2591 3584 2966 3190 
Q 3341 2797 3341 1997 
z
" transform="scale(0.015625)"/>
       <path id="DejaVuSans-6c" d="M 603 4863 
L 1178 4863 
L 1178 0 
L 603 0 
L 603 4863 
z
" transform="scale(0.015625)"/>
       <path id="DejaVuSans-6e" d="M 3513 2113 
L 3513 0 
L 2938 0 
L 2938 2094 
Q 2938 2591 2744 2837 
Q 2550 3084 2163 3084 
Q 1697 3084 1428 2787 
Q 1159 2491 1159 1978 
L 1159 0 
L 581 0 
L 581 3500 
L 1159 3500 
L 1159 2956 
Q 1366 3272 1645 3428 
Q 1925 3584 2291 3584 
Q 2894 3584 3203 3211 
Q 3513 2838 3513 2113 
z
" transform="scale(0.015625)"/>
       <path id="DejaVuSans-63" d="M 3122 3366 
L 3122 2828 
Q 2878 2963 2633 3030 
Q 2388 3097 2138 3097 
Q 1578 3097 1268 2742 
Q 959 2388 959 1747 
Q 959 1106 1268 751 
Q 1578 397 2138 397 
Q 2388 397 2633 464 
Q 2878 531 3122 666 
L 3122 134 
Q 2881 22 2623 -34 
Q 2366 -91 2075 -91 
Q 1284 -91 818 406 
Q 353 903 353 1747 
Q 353 2603 823 3093 
Q 1294 3584 2113 3584 
Q 2378 3584 2631 3529 
Q 2884 3475 3122 3366 
z
" transform="scale(0.015625)"/>
       <path id="DejaVuSans-20" transform="scale(0.015625)"/>
       <path id="DejaVuSans-50" d="M 1259 4147 
L 1259 2394 
L 2053 2394 
Q 2494 2394 2734 2622 
Q 2975 2850 2975 3272 
Q 2975 3691 2734 3919 
Q 2494 4147 2053 4147 
L 1259 4147 
z
M 628 4666 
L 2053 4666 
Q 2838 4666 3239 4311 
Q 3641 3956 3641 3272 
Q 3641 2581 3239 2228 
Q 2838 1875 2053 1875 
L 1259 1875 
L 1259 0 
L 628 0 
L 628 4666 
z
" transform="scale(0.015625)"/>
       <path id="DejaVuSans-72" d="M 2631 2963 
Q 2534 3019 2420 3045 
Q 2306 3072 2169 3072 
Q 1681 3072 1420 2755 
Q 1159 2438 1159 1844 
L 1159 0 
L 581 0 
L 581 3500 
L 1159 3500 
L 1159 2956 
Q 1341 3275 1631 3429 
Q 1922 3584 2338 3584 
Q 2397 3584 2469 3576 
Q 2541 3569 2628 3553 
L 2631 2963 
z
" transform="scale(0.015625)"/>
       <path id="DejaVuSans-69" d="M 603 3500 
L 1178 3500 
L 1178 0 
L 603 0 
L 603 3500 
z
M 603 4863 
L 1178 4863 
L 1178 4134 
L 603 4134 
L 603 4863 
z
" transform="scale(0.015625)"/>
       <path id="DejaVuSans-6f" d="M 1959 3097 
Q 1497 3097 1228 2736 
Q 959 2375 959 1747 
Q 959 1119 1226 758 
Q 1494 397 1959 397 
Q 2419 397 2687 759 
Q 2956 1122 2956 1747 
Q 2956 2369 2687 2733 
Q 2419 3097 1959 3097 
z
M 1959 3584 
Q 2709 3584 3137 3096 
Q 3566 2609 3566 1747 
Q 3566 888 3137 398 
Q 2709 -91 1959 -91 
Q 1206 -91 779 398 
Q 353 888 353 1747 
Q 353 2609 779 3096 
Q 1206 3584 1959 3584 
z
" transform="scale(0.015625)"/>
       <path id="DejaVuSans-64" d="M 2906 2969 
L 2906 4863 
L 3481 4863 
L 3481 0 
L 2906 0 
L 2906 525 
Q 2725 213 2448 61 
Q 2172 -91 1784 -91 
Q 1150 -91 751 415 
Q 353 922 353 1747 
Q 353 2572 751 3078 
Q 1150 3584 1784 3584 
Q 2172 3584 2448 3432 
Q 2725 3281 2906 2969 
z
M 947 1747 
Q 947 1113 1208 752 
Q 1469 391 1925 391 
Q 2381 391 2643 752 
Q 2906 1113 2906 1747 
Q 2906 2381 2643 2742 
Q 2381 3103 1925 3103 
Q 1469 3103 1208 2742 
Q 947 2381 947 1747 
z
" transform="scale(0.015625)"/>
      </defs>
      <use xlink:href="#DejaVuSans-52"/>
      <use xlink:href="#DejaVuSans-65" x="64.982422"/>
      <use xlink:href="#DejaVuSans-62" x="126.505859"/>
      <use xlink:href="#DejaVuSans-61" x="189.982422"/>
      <use xlink:href="#DejaVuSans-6c" x="251.261719"/>
      <use xlink:href="#DejaVuSans-61" x="279.044922"/>
      <use xlink:href="#DejaVuSans-6e" x="340.324219"/>
      <use xlink:href="#DejaVuSans-63" x="403.703125"/>
      <use xlink:href="#DejaVuSans-65" x="458.683594"/>
      <use xlink:href="#DejaVuSans-20" x="520.207031"/>
      <use xlink:href="#DejaVuSans-50" x="551.994141"/>
      <use xlink:href="#DejaVuSans-65" x="608.671875"/>
      <use xlink:href="#DejaVuSans-72" x="670.195312"/>
      <use xlink:href="#DejaVuSans-69" x="711.308594"/>
      <use xlink:href="#DejaVuSans-6f" x="739.091797"/>
      <use xlink:href="#DejaVuSans-64" x="800.273438"/>
     </g>
    </g>
   </g>
   <g id="matplotlib.axis_2">
    <g id="ytick_1">
     <g id="line2d_9">
      <defs>
       <path id="m1d15ab14f4" d="M 0 0 
L -3.5 0 
" style="stroke: #000000; stroke-width: 0.8"/>
      </defs>
      <g>
       <use xlink:href="#m1d15ab14f4" x="54" y="192.24" style="stroke: #000000; stroke-width: 0.8"/>
      </g>
     </g>
     <g id="text_10">
      <!-- 0.0 -->
      <g transform="translate(31.096875 196.039219)scale(0.1 -0.1)">
       <use xlink:href="#DejaVuSans-30"/>
       <use xlink:href="#DejaVuSans-2e" x="63.623047"/>
       <use xlink:href="#DejaVuSans-30" x="95.410156"/>
      </g>
     </g>
    </g>
    <g id="ytick_2">
     <g id="line2d_10">
      <g>
       <use xlink:href="#m1d15ab14f4" x="54" y="160.56" style="stroke: #000000; stroke-width: 0.8"/>
      </g>
     </g>
     <g id="text_11">
      <!-- 0.2 -->
      <g transform="translate(31.096875 164.359219)scale(0.1 -0.1)">
       <use xlink:href="#DejaVuSans-30"/>
       <use xlink:href="#DejaVuSans-2e" x="63.623047"/>
       <use xlink:href="#DejaVuSans-32" x="95.410156"/>
      </g>
     </g>
    </g>
    <g id="ytick_3">
     <g id="line2d_11">
      <g>
       <use xlink:href="#m1d15ab14f4" x="54" y="128.88" style="stroke: #000000; stroke-width: 0.8"/>
      </g>
     </g>
     <g id="text_12">
      <!-- 0.4 -->
      <g transform="translate(31.096875 132.679219)scale(0.1 -0.1)">
       <defs>
        <path id="DejaVuSans-34" d="M 2419 4116 
L 825 1625 
L 2419 1625 
L 2419 4116 
z
M 2253 4666 
L 3047 4666 
L 3047 1625 
L 3713 1625 
L 3713 1100 
L 3047 1100 
L 3047 0 
L 2419 0 
L 2419 1100 
L 313 1100 
L 313 1709 
L 2253 4666 
z
" transform="scale(0.015625)"/>
       </defs>
       <use xlink:href="#DejaVuSans-30"/>
       <use xlink:href="#DejaVuSans-2e" x="63.623047"/>
       <use xlink:href="#DejaVuSans-34" x="95.410156"/>
      </g>
     </g>
    </g>
    <g id="ytick_4">
     <g id="line2d_12">
      <g>
       <use xlink:href="#m1d15ab14f4" x="54" y="97.2" style="stroke: #000000; stroke-width: 0.8"/>
      </g>
     </g>
     <g id="text_13">
      <!-- 0.6 -->
      <g transform="translate(31.096875 100.999219)scale(0.1 -0.1)">
       <defs>
        <path id="DejaVuSans-36" d="M 2113 2584 
Q 1688 2584 1439 2293 
Q 1191 2003 1191 1497 
Q 1191 994 1439 701 
Q 1688 409 2113 409 
Q 2538 409 2786 701 
Q 3034 994 3034 1497 
Q 3034 2003 2786 2293 
Q 2538 2584 2113 2584 
z
M 3366 4563 
L 3366 3988 
Q 3128 4100 2886 4159 
Q 2644 4219 2406 4219 
Q 1781 4219 1451 3797 
Q 1122 3375 1075 2522 
Q 1259 2794 1537 2939 
Q 1816 3084 2150 3084 
Q 2853 3084 3261 2657 
Q 3669 2231 3669 1497 
Q 3669 778 3244 343 
Q 2819 -91 2113 -91 
Q 1303 -91 875 529 
Q 447 1150 447 2328 
Q 447 3434 972 4092 
Q 1497 4750 2381 4750 
Q 2619 4750 2861 4703 
Q 3103 4656 3366 4563 
z
" transform="scale(0.015625)"/>
       </defs>
       <use xlink:href="#DejaVuSans-30"/>
       <use xlink:href="#DejaVuSans-2e" x="63.623047"/>
       <use xlink:href="#DejaVuSans-36" x="95.410156"/>
      </g>
     </g>
    </g>
    <g id="ytick_5">
     <g id="line2d_13">
      <g>
       <use xlink:href="#m1d15ab14f4" x="54" y="65.52" style="stroke: #000000; stroke-width: 0.8"/>
      </g>
     </g>
     <g id="text_14">
      <!-- 0.8 -->
      <g transform="translate(31.096875 69.319219)scale(0.1 -0.1)">
       <defs>
        <path id="DejaVuSans-38" d="M 2034 2216 
Q 1584 2216 1326 1975 
Q 1069 1734 1069 1313 
Q 1069 891 1326 650 
Q 1584 409 2034 409 
Q 2484 409 2743 651 
Q 3003 894 3003 1313 
Q 3003 1734 2745 1975 
Q 2488 2216 2034 2216 
z
M 1403 2484 
Q 997 2584 770 2862 
Q 544 3141 544 3541 
Q 544 4100 942 4425 
Q 1341 4750 2034 4750 
Q 2731 4750 3128 4425 
Q 3525 4100 3525 3541 
Q 3525 3141 3298 2862 
Q 3072 2584 2669 2484 
Q 3125 2378 3379 2068 
Q 3634 1759 3634 1313 
Q 3634 634 3220 271 
Q 2806 -91 2034 -91 
Q 1263 -91 848 271 
Q 434 634 434 1313 
Q 434 1759 690 2068 
Q 947 2378 1403 2484 
z
M 1172 3481 
Q 1172 3119 1398 2916 
Q 1625 2713 2034 2713 
Q 2441 2713 2670 2916 
Q 2900 3119 2900 3481 
Q 2900 3844 2670 4047 
Q 2441 4250 2034 4250 
Q 1625 4250 1398 4047 
Q 1172 3844 1172 3481 
z
" transform="scale(0.015625)"/>
       </defs>
       <use xlink:href="#DejaVuSans-30"/>
       <use xlink:href="#DejaVuSans-2e" x="63.623047"/>
       <use xlink:href="#DejaVuSans-38" x="95.410156"/>
      </g>
     </g>
    </g>
    <g id="ytick_6">
     <g id="line2d_14">
      <g>
       <use xlink:href="#m1d15ab14f4" x="54" y="33.84" style="stroke: #000000; stroke-width: 0.8"/>
      </g>
     </g>
     <g id="text_15">
      <!-- 1.0 -->
      <g transform="translate(31.096875 37.639219)scale(0.1 -0.1)">
       <use xlink:href="#DejaVuSans-31"/>
       <use xlink:href="#DejaVuSans-2e" x="63.623047"/>
       <use xlink:href="#DejaVuSans-30" x="95.410156"/>
      </g>
     </g>
    </g>
    <g id="text_16">
     <!-- Weights -->
     <g transform="translate(25.017187 129.103437)rotate(-90)scale(0.1 -0.1)">
      <defs>
       <path id="DejaVuSans-57" d="M 213 4666 
L 850 4666 
L 1831 722 
L 2809 4666 
L 3519 4666 
L 4500 722 
L 5478 4666 
L 6119 4666 
L 4947 0 
L 4153 0 
L 3169 4050 
L 2175 0 
L 1381 0 
L 213 4666 
z
" transform="scale(0.015625)"/>
       <path id="DejaVuSans-67" d="M 2906 1791 
Q 2906 2416 2648 2759 
Q 2391 3103 1925 3103 
Q 1463 3103 1205 2759 
Q 947 2416 947 1791 
Q 947 1169 1205 825 
Q 1463 481 1925 481 
Q 2391 481 2648 825 
Q 2906 1169 2906 1791 
z
M 3481 434 
Q 3481 -459 3084 -895 
Q 2688 -1331 1869 -1331 
Q 1566 -1331 1297 -1286 
Q 1028 -1241 775 -1147 
L 775 -588 
Q 1028 -725 1275 -790 
Q 1522 -856 1778 -856 
Q 2344 -856 2625 -561 
Q 2906 -266 2906 331 
L 2906 616 
Q 2728 306 2450 153 
Q 2172 0 1784 0 
Q 1141 0 747 490 
Q 353 981 353 1791 
Q 353 2603 747 3093 
Q 1141 3584 1784 3584 
Q 2172 3584 2450 3431 
Q 2728 3278 2906 2969 
L 2906 3500 
L 3481 3500 
L 3481 434 
z
" transform="scale(0.015625)"/>
       <path id="DejaVuSans-68" d="M 3513 2113 
L 3513 0 
L 2938 0 
L 2938 2094 
Q 2938 2591 2744 2837 
Q 2550 3084 2163 3084 
Q 1697 3084 1428 2787 
Q 1159 2491 1159 1978 
L 1159 0 
L 581 0 
L 581 4863 
L 1159 4863 
L 1159 2956 
Q 1366 3272 1645 3428 
Q 1925 3584 2291 3584 
Q 2894 3584 3203 3211 
Q 3513 2838 3513 2113 
z
" transform="scale(0.015625)"/>
       <path id="DejaVuSans-74" d="M 1172 4494 
L 1172 3500 
L 2356 3500 
L 2356 3053 
L 1172 3053 
L 1172 1153 
Q 1172 725 1289 603 
Q 1406 481 1766 481 
L 2356 481 
L 2356 0 
L 1766 0 
Q 1100 0 847 248 
Q 594 497 594 1153 
L 594 3053 
L 172 3053 
L 172 3500 
L 594 3500 
L 594 4494 
L 1172 4494 
z
" transform="scale(0.015625)"/>
       <path id="DejaVuSans-73" d="M 2834 3397 
L 2834 2853 
Q 2591 2978 2328 3040 
Q 2066 3103 1784 3103 
Q 1356 3103 1142 2972 
Q 928 2841 928 2578 
Q 928 2378 1081 2264 
Q 1234 2150 1697 2047 
L 1894 2003 
Q 2506 1872 2764 1633 
Q 3022 1394 3022 966 
Q 3022 478 2636 193 
Q 2250 -91 1575 -91 
Q 1294 -91 989 -36 
Q 684 19 347 128 
L 347 722 
Q 666 556 975 473 
Q 1284 391 1588 391 
Q 1994 391 2212 530 
Q 2431 669 2431 922 
Q 2431 1156 2273 1281 
Q 2116 1406 1581 1522 
L 1381 1569 
Q 847 1681 609 1914 
Q 372 2147 372 2553 
Q 372 3047 722 3315 
Q 1072 3584 1716 3584 
Q 2034 3584 2315 3537 
Q 2597 3491 2834 3397 
z
" transform="scale(0.015625)"/>
      </defs>
      <use xlink:href="#DejaVuSans-57"/>
      <use xlink:href="#DejaVuSans-65" x="93.001953"/>
      <use xlink:href="#DejaVuSans-69" x="154.525391"/>
      <use xlink:href="#DejaVuSans-67" x="182.308594"/>
      <use xlink:href="#DejaVuSans-68" x="245.785156"/>
      <use xlink:href="#DejaVuSans-74" x="309.164062"/>
      <use xlink:href="#DejaVuSans-73" x="348.373047"/>
     </g>
    </g>
   </g>
   <g id="line2d_15">
    <path d="M 69.218182 192.239999 
L 85.237321 192.239999 
L 101.256459 192.239999 
L 117.275598 192.239999 
L 133.294737 192.24 
L 149.313876 192.24 
L 165.333014 192.24 
L 181.352153 192.24 
L 197.371292 192.24 
L 213.390431 192.24 
L 229.409569 192.24 
L 245.428708 192.24 
L 261.447847 192.239989 
L 277.466986 192.092228 
L 293.486124 186.87405 
L 309.505263 187.207221 
L 325.524402 184.088629 
L 341.543541 186.142705 
L 357.562679 192.239996 
L 373.581818 192.239999 
" clip-path="url(#p7a87b44d0c)" style="fill: none; stroke: #1f77b4; stroke-width: 1.5; stroke-linecap: square"/>
   </g>
   <g id="line2d_16">
    <path d="M 69.218182 189.983337 
L 85.237321 192.239996 
L 101.256459 192.239994 
L 117.275598 192.239995 
L 133.294737 192.24 
L 149.313876 192.24 
L 165.333014 192.24 
L 181.352153 192.24 
L 197.371292 192.24 
L 213.390431 192.24 
L 229.409569 192.24 
L 245.428708 192.239999 
L 261.447847 192.239988 
L 277.466986 192.092228 
L 293.486124 186.874049 
L 309.505263 187.207219 
L 325.524402 178.294066 
L 341.543541 183.296551 
L 357.562679 191.477015 
L 373.581818 192.239998 
" clip-path="url(#p7a87b44d0c)" style="fill: none; stroke: #ff7f0e; stroke-width: 1.5; stroke-linecap: square"/>
   </g>
   <g id="line2d_17">
    <path d="M 69.218182 189.983333 
L 85.237321 188.62622 
L 101.256459 182.875572 
L 117.275598 171.429795 
L 133.294737 192.239989 
L 149.313876 192.239999 
L 165.333014 192.24 
L 181.352153 192.24 
L 197.371292 192.24 
L 213.390431 192.239999 
L 229.409569 192.24 
L 245.428708 192.239998 
L 261.447847 192.239986 
L 277.466986 192.092228 
L 293.486124 186.874047 
L 309.505263 187.207217 
L 325.524402 174.673042 
L 341.543541 183.29655 
L 357.562679 191.477014 
L 373.581818 192.239997 
" clip-path="url(#p7a87b44d0c)" style="fill: none; stroke: #2ca02c; stroke-width: 1.5; stroke-linecap: square"/>
   </g>
   <g id="line2d_18">
    <path d="M 69.218182 189.983332 
L 85.237321 188.626217 
L 101.256459 182.87557 
L 117.275598 171.429791 
L 133.294737 192.239989 
L 149.313876 192.239998 
L 165.333014 192.239999 
L 181.352153 192.24 
L 197.371292 177.267012 
L 213.390431 154.045757 
L 229.409569 151.254738 
L 245.428708 154.305252 
L 261.447847 152.507208 
L 277.466986 151.942834 
L 293.486124 153.698049 
L 309.505263 158.594026 
L 325.524402 159.860219 
L 341.543541 152.038084 
L 357.562679 177.95095 
L 373.581818 180.727441 
" clip-path="url(#p7a87b44d0c)" style="fill: none; stroke: #d62728; stroke-width: 1.5; stroke-linecap: square"/>
   </g>
   <g id="line2d_19">
    <path d="M 69.218182 189.983331 
L 85.237321 188.626215 
L 101.256459 182.875405 
L 117.275598 171.429783 
L 133.294737 192.239988 
L 149.313876 192.239998 
L 165.333014 192.239999 
L 181.352153 192.239999 
L 197.371292 177.267011 
L 213.390431 154.045756 
L 229.409569 151.254737 
L 245.428708 154.305245 
L 261.447847 152.5072 
L 277.466986 151.942833 
L 293.486124 153.698044 
L 309.505263 158.594021 
L 325.524402 159.860218 
L 341.543541 152.038083 
L 357.562679 177.950949 
L 373.581818 180.72744 
" clip-path="url(#p7a87b44d0c)" style="fill: none; stroke: #9467bd; stroke-width: 1.5; stroke-linecap: square"/>
   </g>
   <g id="line2d_20">
    <path d="M 69.218182 166.69899 
L 85.237321 168.007008 
L 101.256459 135.900326 
L 117.275598 131.651927 
L 133.294737 190.341309 
L 149.313876 192.239997 
L 165.333014 192.239999 
L 181.352153 192.239999 
L 197.371292 177.26701 
L 213.390431 154.045756 
L 229.409569 126.708978 
L 245.428708 123.675783 
L 261.447847 140.300528 
L 277.466986 147.75673 
L 293.486124 127.071852 
L 309.505263 141.615527 
L 325.524402 141.170719 
L 341.543541 152.038079 
L 357.562679 177.950944 
L 373.581818 180.727438 
" clip-path="url(#p7a87b44d0c)" style="fill: none; stroke: #8c564b; stroke-width: 1.5; stroke-linecap: square"/>
   </g>
   <g id="line2d_21">
    <path d="M 69.218182 148.697281 
L 85.237321 140.362663 
L 101.256459 106.344117 
L 117.275598 87.056131 
L 133.294737 133.373378 
L 149.313876 140.624965 
L 165.333014 141.955795 
L 181.352153 144.465503 
L 197.371292 130.794756 
L 213.390431 135.68919 
L 229.409569 124.151668 
L 245.428708 120.54475 
L 261.447847 129.151311 
L 277.466986 132.529796 
L 293.486124 122.30329 
L 309.505263 139.174955 
L 325.524402 139.174597 
L 341.543541 152.038076 
L 357.562679 172.400465 
L 373.581818 164.785363 
" clip-path="url(#p7a87b44d0c)" style="fill: none; stroke: #e377c2; stroke-width: 1.5; stroke-linecap: square"/>
   </g>
   <g id="line2d_22">
    <path d="M 69.218182 141.792983 
L 85.237321 136.878151 
L 101.256459 106.344115 
L 117.275598 87.05613 
L 133.294737 133.373378 
L 149.313876 140.624965 
L 165.333014 141.955795 
L 181.352153 144.465503 
L 197.371292 130.794756 
L 213.390431 135.689189 
L 229.409569 124.151668 
L 245.428708 120.544749 
L 261.447847 129.151308 
L 277.466986 132.529796 
L 293.486124 122.303289 
L 309.505263 139.174954 
L 325.524402 139.174596 
L 341.543541 152.038074 
L 357.562679 172.400463 
L 373.581818 164.785362 
" clip-path="url(#p7a87b44d0c)" style="fill: none; stroke: #7f7f7f; stroke-width: 1.5; stroke-linecap: square"/>
   </g>
   <g id="line2d_23">
    <path d="M 69.218182 119.856073 
L 85.237321 121.858783 
L 101.256459 93.402746 
L 117.275598 79.27367 
L 133.294737 133.373376 
L 149.313876 140.624964 
L 165.333014 141.955795 
L 181.352153 144.465503 
L 197.371292 130.794756 
L 213.390431 135.689189 
L 229.409569 124.151668 
L 245.428708 120.544735 
L 261.447847 129.151304 
L 277.466986 120.396618 
L 293.486124 111.932484 
L 309.505263 105.31871 
L 325.524402 93.444587 
L 341.543541 96.489059 
L 357.562679 124.279762 
L 373.581818 104.521685 
" clip-path="url(#p7a87b44d0c)" style="fill: none; stroke: #bcbd22; stroke-width: 1.5; stroke-linecap: square"/>
   </g>
   <g id="line2d_24">
    <path d="M 69.218182 119.856072 
L 85.237321 121.858779 
L 101.256459 93.402745 
L 117.275598 79.273669 
L 133.294737 133.373376 
L 149.313876 140.624964 
L 165.333014 141.955795 
L 181.352153 144.465503 
L 197.371292 130.794756 
L 213.390431 135.689189 
L 229.409569 124.151668 
L 245.428708 120.544735 
L 261.447847 129.151303 
L 277.466986 120.396617 
L 293.486124 111.932483 
L 309.505263 105.318709 
L 325.524402 93.444587 
L 341.543541 94.74242 
L 357.562679 122.357406 
L 373.581818 104.521683 
" clip-path="url(#p7a87b44d0c)" style="fill: none; stroke: #17becf; stroke-width: 1.5; stroke-linecap: square"/>
   </g>
   <g id="line2d_25">
    <path d="M 69.218182 116.760931 
L 85.237321 116.074426 
L 101.256459 91.046288 
L 117.275598 79.273667 
L 133.294737 133.373376 
L 149.313876 140.624964 
L 165.333014 141.955795 
L 181.352153 144.465503 
L 197.371292 130.794755 
L 213.390431 135.683357 
L 229.409569 124.151668 
L 245.428708 117.485806 
L 261.447847 117.667911 
L 277.466986 109.933804 
L 293.486124 94.753856 
L 309.505263 96.154625 
L 325.524402 93.444585 
L 341.543541 90.382792 
L 357.562679 119.090597 
L 373.581818 104.521682 
" clip-path="url(#p7a87b44d0c)" style="fill: none; stroke: #1f77b4; stroke-width: 1.5; stroke-linecap: square"/>
   </g>
   <g id="line2d_26">
    <path d="M 69.218182 116.76093 
L 85.237321 116.074425 
L 101.256459 91.046285 
L 117.275598 75.721143 
L 133.294737 131.420385 
L 149.313876 125.668416 
L 165.333014 121.313225 
L 181.352153 122.519406 
L 197.371292 116.440531 
L 213.390431 120.733775 
L 229.409569 66.771605 
L 245.428708 83.860351 
L 261.447847 90.528273 
L 277.466986 98.440798 
L 293.486124 74.063744 
L 309.505263 90.56208 
L 325.524402 91.258237 
L 341.543541 80.101413 
L 357.562679 97.140111 
L 373.581818 95.930453 
" clip-path="url(#p7a87b44d0c)" style="fill: none; stroke: #ff7f0e; stroke-width: 1.5; stroke-linecap: square"/>
   </g>
   <g id="line2d_27">
    <path d="M 69.218182 116.760929 
L 85.237321 116.074424 
L 101.256459 91.046284 
L 117.275598 75.721134 
L 133.294737 112.148899 
L 149.313876 125.668415 
L 165.333014 121.313225 
L 181.352153 122.519406 
L 197.371292 116.440531 
L 213.390431 120.733775 
L 229.409569 66.771604 
L 245.428708 83.860348 
L 261.447847 84.48514 
L 277.466986 98.440797 
L 293.486124 74.063742 
L 309.505263 90.562077 
L 325.524402 90.079903 
L 341.543541 80.101408 
L 357.562679 97.140109 
L 373.581818 95.930451 
" clip-path="url(#p7a87b44d0c)" style="fill: none; stroke: #2ca02c; stroke-width: 1.5; stroke-linecap: square"/>
   </g>
   <g id="line2d_28">
    <path d="M 69.218182 78.017094 
L 85.237321 94.256611 
L 101.256459 82.799875 
L 117.275598 75.72111 
L 133.294737 112.148889 
L 149.313876 125.668415 
L 165.333014 121.313225 
L 181.352153 122.519405 
L 197.371292 116.44053 
L 213.390431 120.733774 
L 229.409569 66.771604 
L 245.428708 83.860345 
L 261.447847 84.48513 
L 277.466986 77.941996 
L 293.486124 74.063729 
L 309.505263 90.562069 
L 325.524402 90.079903 
L 341.543541 80.101407 
L 357.562679 97.140108 
L 373.581818 95.93045 
" clip-path="url(#p7a87b44d0c)" style="fill: none; stroke: #d62728; stroke-width: 1.5; stroke-linecap: square"/>
   </g>
   <g id="line2d_29">
    <path d="M 69.218182 78.017093 
L 85.237321 94.256609 
L 101.256459 82.799867 
L 117.275598 58.64021 
L 133.294737 84.181782 
L 149.313876 96.458321 
L 165.333014 83.137852 
L 181.352153 90.752818 
L 197.371292 111.2741 
L 213.390431 111.662835 
L 229.409569 66.771604 
L 245.428708 83.860341 
L 261.447847 84.485127 
L 277.466986 69.477788 
L 293.486124 74.063721 
L 309.505263 90.562066 
L 325.524402 90.079902 
L 341.543541 80.101404 
L 357.562679 97.140103 
L 373.581818 95.930448 
" clip-path="url(#p7a87b44d0c)" style="fill: none; stroke: #9467bd; stroke-width: 1.5; stroke-linecap: square"/>
   </g>
   <g id="line2d_30">
    <path d="M 69.218182 65.004769 
L 85.237321 79.302455 
L 101.256459 69.664153 
L 117.275598 55.880109 
L 133.294737 84.181782 
L 149.313876 96.45832 
L 165.333014 83.137852 
L 181.352153 90.752818 
L 197.371292 111.2741 
L 213.390431 111.662835 
L 229.409569 66.771603 
L 245.428708 83.86034 
L 261.447847 84.485123 
L 277.466986 69.477788 
L 293.486124 74.06372 
L 309.505263 90.562065 
L 325.524402 90.079901 
L 341.543541 80.101402 
L 357.562679 97.140102 
L 373.581818 95.930448 
" clip-path="url(#p7a87b44d0c)" style="fill: none; stroke: #8c564b; stroke-width: 1.5; stroke-linecap: square"/>
   </g>
   <g id="line2d_31">
    <path d="M 69.218182 58.209766 
L 85.237321 61.919621 
L 101.256459 54.244452 
L 117.275598 55.880102 
L 133.294737 40.832997 
L 149.313876 42.875166 
L 165.333014 35.949295 
L 181.352153 37.250396 
L 197.371292 44.637164 
L 213.390431 39.201518 
L 229.409569 34.602867 
L 245.428708 34.564246 
L 261.447847 38.044872 
L 277.466986 45.641157 
L 293.486124 63.056013 
L 309.505263 76.769616 
L 325.524402 72.939102 
L 341.543541 48.440193 
L 357.562679 57.732278 
L 373.581818 63.654505 
" clip-path="url(#p7a87b44d0c)" style="fill: none; stroke: #e377c2; stroke-width: 1.5; stroke-linecap: square"/>
   </g>
   <g id="line2d_32">
    <path d="M 69.218182 37.082142 
L 85.237321 36.770081 
L 101.256459 42.41547 
L 117.275598 55.880087 
L 133.294737 40.832991 
L 149.313876 42.875165 
L 165.333014 35.949295 
L 181.352153 37.250395 
L 197.371292 44.637164 
L 213.390431 36.57749 
L 229.409569 34.602866 
L 245.428708 34.564239 
L 261.447847 38.044868 
L 277.466986 45.641153 
L 293.486124 63.05601 
L 309.505263 76.769612 
L 325.524402 72.9391 
L 341.543541 48.440189 
L 357.562679 45.826366 
L 373.581818 58.570258 
" clip-path="url(#p7a87b44d0c)" style="fill: none; stroke: #7f7f7f; stroke-width: 1.5; stroke-linecap: square"/>
   </g>
   <g id="line2d_33">
    <path d="M 69.218182 37.08214 
L 85.237321 36.77008 
L 101.256459 42.415468 
L 117.275598 55.880084 
L 133.294737 40.832981 
L 149.313876 42.875164 
L 165.333014 35.949295 
L 181.352153 37.250395 
L 197.371292 44.637164 
L 213.390431 36.577478 
L 229.409569 34.602865 
L 245.428708 34.564235 
L 261.447847 38.044849 
L 277.466986 34.418716 
L 293.486124 37.643812 
L 309.505263 45.819251 
L 325.524402 44.395758 
L 341.543541 37.497129 
L 357.562679 38.026044 
L 373.581818 40.000046 
" clip-path="url(#p7a87b44d0c)" style="fill: none; stroke: #bcbd22; stroke-width: 1.5; stroke-linecap: square"/>
   </g>
   <g id="line2d_34">
    <path d="M 69.218182 33.84 
L 85.237321 33.84 
L 101.256459 33.84 
L 117.275598 33.84 
L 133.294737 33.84 
L 149.313876 33.84 
L 165.333014 33.84 
L 181.352153 33.84 
L 197.371292 33.84 
L 213.390431 33.84 
L 229.409569 33.84 
L 245.428708 33.84 
L 261.447847 33.84 
L 277.466986 33.84 
L 293.486124 33.84 
L 309.505263 33.84 
L 325.524402 33.84 
L 341.543541 33.84 
L 357.562679 33.84 
L 373.581818 33.84 
" clip-path="url(#p7a87b44d0c)" style="fill: none; stroke: #17becf; stroke-width: 1.5; stroke-linecap: square"/>
   </g>
   <g id="patch_3">
    <path d="M 54 192.24 
L 54 25.92 
" style="fill: none; stroke: #000000; stroke-width: 0.8; stroke-linejoin: miter; stroke-linecap: square"/>
   </g>
   <g id="patch_4">
    <path d="M 388.8 192.24 
L 388.8 25.92 
" style="fill: none; stroke: #000000; stroke-width: 0.8; stroke-linejoin: miter; stroke-linecap: square"/>
   </g>
   <g id="patch_5">
    <path d="M 54 192.24 
L 388.8 192.24 
" style="fill: none; stroke: #000000; stroke-width: 0.8; stroke-linejoin: miter; stroke-linecap: square"/>
   </g>
   <g id="patch_6">
    <path d="M 54 25.92 
L 388.8 25.92 
" style="fill: none; stroke: #000000; stroke-width: 0.8; stroke-linejoin: miter; stroke-linecap: square"/>
   </g>
   <g id="text_17">
    <!-- Portfolio weights -->
    <g transform="translate(171.459375 19.92)scale(0.12 -0.12)">
     <defs>
      <path id="DejaVuSans-66" d="M 2375 4863 
L 2375 4384 
L 1825 4384 
Q 1516 4384 1395 4259 
Q 1275 4134 1275 3809 
L 1275 3500 
L 2222 3500 
L 2222 3053 
L 1275 3053 
L 1275 0 
L 697 0 
L 697 3053 
L 147 3053 
L 147 3500 
L 697 3500 
L 697 3744 
Q 697 4328 969 4595 
Q 1241 4863 1831 4863 
L 2375 4863 
z
" transform="scale(0.015625)"/>
      <path id="DejaVuSans-77" d="M 269 3500 
L 844 3500 
L 1563 769 
L 2278 3500 
L 2956 3500 
L 3675 769 
L 4391 3500 
L 4966 3500 
L 4050 0 
L 3372 0 
L 2619 2869 
L 1863 0 
L 1184 0 
L 269 3500 
z
" transform="scale(0.015625)"/>
     </defs>
     <use xlink:href="#DejaVuSans-50"/>
     <use xlink:href="#DejaVuSans-6f" x="56.677734"/>
     <use xlink:href="#DejaVuSans-72" x="117.859375"/>
     <use xlink:href="#DejaVuSans-74" x="158.972656"/>
     <use xlink:href="#DejaVuSans-66" x="198.181641"/>
     <use xlink:href="#DejaVuSans-6f" x="233.386719"/>
     <use xlink:href="#DejaVuSans-6c" x="294.568359"/>
     <use xlink:href="#DejaVuSans-69" x="322.351562"/>
     <use xlink:href="#DejaVuSans-6f" x="350.134766"/>
     <use xlink:href="#DejaVuSans-20" x="411.316406"/>
     <use xlink:href="#DejaVuSans-77" x="443.103516"/>
     <use xlink:href="#DejaVuSans-65" x="524.890625"/>
     <use xlink:href="#DejaVuSans-69" x="586.414062"/>
     <use xlink:href="#DejaVuSans-67" x="614.197266"/>
     <use xlink:href="#DejaVuSans-68" x="677.673828"/>
     <use xlink:href="#DejaVuSans-74" x="741.052734"/>
     <use xlink:href="#DejaVuSans-73" x="780.261719"/>
    </g>
   </g>
   <g id="legend_1">
    <g id="patch_7">
     <path d="M 395.8 257.36125 
L 453.357813 257.36125 
Q 455.357813 257.36125 455.357813 255.36125 
L 455.357813 -37.20125 
Q 455.357813 -39.20125 453.357813 -39.20125 
L 395.8 -39.20125 
Q 393.8 -39.20125 393.8 -37.20125 
L 393.8 255.36125 
Q 393.8 257.36125 395.8 257.36125 
z
" style="fill: #ffffff; opacity: 0.8; stroke: #cccccc; stroke-linejoin: miter"/>
    </g>
    <g id="patch_8">
     <path d="M 397.8 -27.602813 
L 417.8 -27.602813 
L 417.8 -34.602813 
L 397.8 -34.602813 
z
" style="fill: #1f77b4; stroke: #1f77b4; stroke-linejoin: miter"/>
    </g>
    <g id="text_18">
     <!-- F -->
     <g transform="translate(425.8 -27.602813)scale(0.1 -0.1)">
      <defs>
       <path id="DejaVuSans-46" d="M 628 4666 
L 3309 4666 
L 3309 4134 
L 1259 4134 
L 1259 2759 
L 3109 2759 
L 3109 2228 
L 1259 2228 
L 1259 0 
L 628 0 
L 628 4666 
z
" transform="scale(0.015625)"/>
      </defs>
      <use xlink:href="#DejaVuSans-46"/>
     </g>
    </g>
    <g id="patch_9">
     <path d="M 397.8 -12.924688 
L 417.8 -12.924688 
L 417.8 -19.924688 
L 397.8 -19.924688 
z
" style="fill: #ff7f0e; stroke: #ff7f0e; stroke-linejoin: miter"/>
    </g>
    <g id="text_19">
     <!-- CAT -->
     <g transform="translate(425.8 -12.924688)scale(0.1 -0.1)">
      <defs>
       <path id="DejaVuSans-43" d="M 4122 4306 
L 4122 3641 
Q 3803 3938 3442 4084 
Q 3081 4231 2675 4231 
Q 1875 4231 1450 3742 
Q 1025 3253 1025 2328 
Q 1025 1406 1450 917 
Q 1875 428 2675 428 
Q 3081 428 3442 575 
Q 3803 722 4122 1019 
L 4122 359 
Q 3791 134 3420 21 
Q 3050 -91 2638 -91 
Q 1578 -91 968 557 
Q 359 1206 359 2328 
Q 359 3453 968 4101 
Q 1578 4750 2638 4750 
Q 3056 4750 3426 4639 
Q 3797 4528 4122 4306 
z
" transform="scale(0.015625)"/>
       <path id="DejaVuSans-41" d="M 2188 4044 
L 1331 1722 
L 3047 1722 
L 2188 4044 
z
M 1831 4666 
L 2547 4666 
L 4325 0 
L 3669 0 
L 3244 1197 
L 1141 1197 
L 716 0 
L 50 0 
L 1831 4666 
z
" transform="scale(0.015625)"/>
       <path id="DejaVuSans-54" d="M -19 4666 
L 3928 4666 
L 3928 4134 
L 2272 4134 
L 2272 0 
L 1638 0 
L 1638 4134 
L -19 4134 
L -19 4666 
z
" transform="scale(0.015625)"/>
      </defs>
      <use xlink:href="#DejaVuSans-43"/>
      <use xlink:href="#DejaVuSans-41" x="69.824219"/>
      <use xlink:href="#DejaVuSans-54" x="130.482422"/>
     </g>
    </g>
    <g id="patch_10">
     <path d="M 397.8 1.753437 
L 417.8 1.753437 
L 417.8 -5.246563 
L 397.8 -5.246563 
z
" style="fill: #2ca02c; stroke: #2ca02c; stroke-linejoin: miter"/>
    </g>
    <g id="text_20">
     <!-- DIS -->
     <g transform="translate(425.8 1.753437)scale(0.1 -0.1)">
      <defs>
       <path id="DejaVuSans-44" d="M 1259 4147 
L 1259 519 
L 2022 519 
Q 2988 519 3436 956 
Q 3884 1394 3884 2338 
Q 3884 3275 3436 3711 
Q 2988 4147 2022 4147 
L 1259 4147 
z
M 628 4666 
L 1925 4666 
Q 3281 4666 3915 4102 
Q 4550 3538 4550 2338 
Q 4550 1131 3912 565 
Q 3275 0 1925 0 
L 628 0 
L 628 4666 
z
" transform="scale(0.015625)"/>
       <path id="DejaVuSans-49" d="M 628 4666 
L 1259 4666 
L 1259 0 
L 628 0 
L 628 4666 
z
" transform="scale(0.015625)"/>
       <path id="DejaVuSans-53" d="M 3425 4513 
L 3425 3897 
Q 3066 4069 2747 4153 
Q 2428 4238 2131 4238 
Q 1616 4238 1336 4038 
Q 1056 3838 1056 3469 
Q 1056 3159 1242 3001 
Q 1428 2844 1947 2747 
L 2328 2669 
Q 3034 2534 3370 2195 
Q 3706 1856 3706 1288 
Q 3706 609 3251 259 
Q 2797 -91 1919 -91 
Q 1588 -91 1214 -16 
Q 841 59 441 206 
L 441 856 
Q 825 641 1194 531 
Q 1563 422 1919 422 
Q 2459 422 2753 634 
Q 3047 847 3047 1241 
Q 3047 1584 2836 1778 
Q 2625 1972 2144 2069 
L 1759 2144 
Q 1053 2284 737 2584 
Q 422 2884 422 3419 
Q 422 4038 858 4394 
Q 1294 4750 2059 4750 
Q 2388 4750 2728 4690 
Q 3069 4631 3425 4513 
z
" transform="scale(0.015625)"/>
      </defs>
      <use xlink:href="#DejaVuSans-44"/>
      <use xlink:href="#DejaVuSans-49" x="77.001953"/>
      <use xlink:href="#DejaVuSans-53" x="106.494141"/>
     </g>
    </g>
    <g id="patch_11">
     <path d="M 397.8 16.431562 
L 417.8 16.431562 
L 417.8 9.431562 
L 397.8 9.431562 
z
" style="fill: #d62728; stroke: #d62728; stroke-linejoin: miter"/>
    </g>
    <g id="text_21">
     <!-- MCD -->
     <g transform="translate(425.8 16.431562)scale(0.1 -0.1)">
      <defs>
       <path id="DejaVuSans-4d" d="M 628 4666 
L 1569 4666 
L 2759 1491 
L 3956 4666 
L 4897 4666 
L 4897 0 
L 4281 0 
L 4281 4097 
L 3078 897 
L 2444 897 
L 1241 4097 
L 1241 0 
L 628 0 
L 628 4666 
z
" transform="scale(0.015625)"/>
      </defs>
      <use xlink:href="#DejaVuSans-4d"/>
      <use xlink:href="#DejaVuSans-43" x="86.279297"/>
      <use xlink:href="#DejaVuSans-44" x="156.103516"/>
     </g>
    </g>
    <g id="patch_12">
     <path d="M 397.8 31.109688 
L 417.8 31.109688 
L 417.8 24.109688 
L 397.8 24.109688 
z
" style="fill: #9467bd; stroke: #9467bd; stroke-linejoin: miter"/>
    </g>
    <g id="text_22">
     <!-- KO -->
     <g transform="translate(425.8 31.109688)scale(0.1 -0.1)">
      <defs>
       <path id="DejaVuSans-4b" d="M 628 4666 
L 1259 4666 
L 1259 2694 
L 3353 4666 
L 4166 4666 
L 1850 2491 
L 4331 0 
L 3500 0 
L 1259 2247 
L 1259 0 
L 628 0 
L 628 4666 
z
" transform="scale(0.015625)"/>
       <path id="DejaVuSans-4f" d="M 2522 4238 
Q 1834 4238 1429 3725 
Q 1025 3213 1025 2328 
Q 1025 1447 1429 934 
Q 1834 422 2522 422 
Q 3209 422 3611 934 
Q 4013 1447 4013 2328 
Q 4013 3213 3611 3725 
Q 3209 4238 2522 4238 
z
M 2522 4750 
Q 3503 4750 4090 4092 
Q 4678 3434 4678 2328 
Q 4678 1225 4090 567 
Q 3503 -91 2522 -91 
Q 1538 -91 948 565 
Q 359 1222 359 2328 
Q 359 3434 948 4092 
Q 1538 4750 2522 4750 
z
" transform="scale(0.015625)"/>
      </defs>
      <use xlink:href="#DejaVuSans-4b"/>
      <use xlink:href="#DejaVuSans-4f" x="60.076172"/>
     </g>
    </g>
    <g id="patch_13">
     <path d="M 397.8 45.787812 
L 417.8 45.787812 
L 417.8 38.787812 
L 397.8 38.787812 
z
" style="fill: #8c564b; stroke: #8c564b; stroke-linejoin: miter"/>
    </g>
    <g id="text_23">
     <!-- PEP -->
     <g transform="translate(425.8 45.787812)scale(0.1 -0.1)">
      <defs>
       <path id="DejaVuSans-45" d="M 628 4666 
L 3578 4666 
L 3578 4134 
L 1259 4134 
L 1259 2753 
L 3481 2753 
L 3481 2222 
L 1259 2222 
L 1259 531 
L 3634 531 
L 3634 0 
L 628 0 
L 628 4666 
z
" transform="scale(0.015625)"/>
      </defs>
      <use xlink:href="#DejaVuSans-50"/>
      <use xlink:href="#DejaVuSans-45" x="60.302734"/>
      <use xlink:href="#DejaVuSans-50" x="123.486328"/>
     </g>
    </g>
    <g id="patch_14">
     <path d="M 397.8 60.465937 
L 417.8 60.465937 
L 417.8 53.465937 
L 397.8 53.465937 
z
" style="fill: #e377c2; stroke: #e377c2; stroke-linejoin: miter"/>
    </g>
    <g id="text_24">
     <!-- WMT -->
     <g transform="translate(425.8 60.465937)scale(0.1 -0.1)">
      <use xlink:href="#DejaVuSans-57"/>
      <use xlink:href="#DejaVuSans-4d" x="98.876953"/>
      <use xlink:href="#DejaVuSans-54" x="185.15625"/>
     </g>
    </g>
    <g id="patch_15">
     <path d="M 397.8 75.144062 
L 417.8 75.144062 
L 417.8 68.144062 
L 397.8 68.144062 
z
" style="fill: #7f7f7f; stroke: #7f7f7f; stroke-linejoin: miter"/>
    </g>
    <g id="text_25">
     <!-- C -->
     <g transform="translate(425.8 75.144062)scale(0.1 -0.1)">
      <use xlink:href="#DejaVuSans-43"/>
     </g>
    </g>
    <g id="patch_16">
     <path d="M 397.8 89.822187 
L 417.8 89.822187 
L 417.8 82.822187 
L 397.8 82.822187 
z
" style="fill: #bcbd22; stroke: #bcbd22; stroke-linejoin: miter"/>
    </g>
    <g id="text_26">
     <!-- WFC -->
     <g transform="translate(425.8 89.822187)scale(0.1 -0.1)">
      <use xlink:href="#DejaVuSans-57"/>
      <use xlink:href="#DejaVuSans-46" x="98.876953"/>
      <use xlink:href="#DejaVuSans-43" x="156.396484"/>
     </g>
    </g>
    <g id="patch_17">
     <path d="M 397.8 104.500312 
L 417.8 104.500312 
L 417.8 97.500312 
L 397.8 97.500312 
z
" style="fill: #17becf; stroke: #17becf; stroke-linejoin: miter"/>
    </g>
    <g id="text_27">
     <!-- JPM -->
     <g transform="translate(425.8 104.500312)scale(0.1 -0.1)">
      <defs>
       <path id="DejaVuSans-4a" d="M 628 4666 
L 1259 4666 
L 1259 325 
Q 1259 -519 939 -900 
Q 619 -1281 -91 -1281 
L -331 -1281 
L -331 -750 
L -134 -750 
Q 284 -750 456 -515 
Q 628 -281 628 325 
L 628 4666 
z
" transform="scale(0.015625)"/>
      </defs>
      <use xlink:href="#DejaVuSans-4a"/>
      <use xlink:href="#DejaVuSans-50" x="29.492188"/>
      <use xlink:href="#DejaVuSans-4d" x="89.794922"/>
     </g>
    </g>
    <g id="patch_18">
     <path d="M 397.8 119.178437 
L 417.8 119.178437 
L 417.8 112.178437 
L 397.8 112.178437 
z
" style="fill: #1f77b4; stroke: #1f77b4; stroke-linejoin: miter"/>
    </g>
    <g id="text_28">
     <!-- AAPL -->
     <g transform="translate(425.8 119.178437)scale(0.1 -0.1)">
      <defs>
       <path id="DejaVuSans-4c" d="M 628 4666 
L 1259 4666 
L 1259 531 
L 3531 531 
L 3531 0 
L 628 0 
L 628 4666 
z
" transform="scale(0.015625)"/>
      </defs>
      <use xlink:href="#DejaVuSans-41"/>
      <use xlink:href="#DejaVuSans-41" x="71.158203"/>
      <use xlink:href="#DejaVuSans-50" x="139.566406"/>
      <use xlink:href="#DejaVuSans-4c" x="199.869141"/>
     </g>
    </g>
    <g id="patch_19">
     <path d="M 397.8 133.856562 
L 417.8 133.856562 
L 417.8 126.856562 
L 397.8 126.856562 
z
" style="fill: #ff7f0e; stroke: #ff7f0e; stroke-linejoin: miter"/>
    </g>
    <g id="text_29">
     <!-- IBM -->
     <g transform="translate(425.8 133.856562)scale(0.1 -0.1)">
      <defs>
       <path id="DejaVuSans-42" d="M 1259 2228 
L 1259 519 
L 2272 519 
Q 2781 519 3026 730 
Q 3272 941 3272 1375 
Q 3272 1813 3026 2020 
Q 2781 2228 2272 2228 
L 1259 2228 
z
M 1259 4147 
L 1259 2741 
L 2194 2741 
Q 2656 2741 2882 2914 
Q 3109 3088 3109 3444 
Q 3109 3797 2882 3972 
Q 2656 4147 2194 4147 
L 1259 4147 
z
M 628 4666 
L 2241 4666 
Q 2963 4666 3353 4366 
Q 3744 4066 3744 3513 
Q 3744 3084 3544 2831 
Q 3344 2578 2956 2516 
Q 3422 2416 3680 2098 
Q 3938 1781 3938 1306 
Q 3938 681 3513 340 
Q 3088 0 2303 0 
L 628 0 
L 628 4666 
z
" transform="scale(0.015625)"/>
      </defs>
      <use xlink:href="#DejaVuSans-49"/>
      <use xlink:href="#DejaVuSans-42" x="29.492188"/>
      <use xlink:href="#DejaVuSans-4d" x="98.095703"/>
     </g>
    </g>
    <g id="patch_20">
     <path d="M 397.8 148.534687 
L 417.8 148.534687 
L 417.8 141.534687 
L 397.8 141.534687 
z
" style="fill: #2ca02c; stroke: #2ca02c; stroke-linejoin: miter"/>
    </g>
    <g id="text_30">
     <!-- PFE -->
     <g transform="translate(425.8 148.534687)scale(0.1 -0.1)">
      <use xlink:href="#DejaVuSans-50"/>
      <use xlink:href="#DejaVuSans-46" x="60.302734"/>
      <use xlink:href="#DejaVuSans-45" x="117.822266"/>
     </g>
    </g>
    <g id="patch_21">
     <path d="M 397.8 163.212812 
L 417.8 163.212812 
L 417.8 156.212812 
L 397.8 156.212812 
z
" style="fill: #d62728; stroke: #d62728; stroke-linejoin: miter"/>
    </g>
    <g id="text_31">
     <!-- JNJ -->
     <g transform="translate(425.8 163.212812)scale(0.1 -0.1)">
      <defs>
       <path id="DejaVuSans-4e" d="M 628 4666 
L 1478 4666 
L 3547 763 
L 3547 4666 
L 4159 4666 
L 4159 0 
L 3309 0 
L 1241 3903 
L 1241 0 
L 628 0 
L 628 4666 
z
" transform="scale(0.015625)"/>
      </defs>
      <use xlink:href="#DejaVuSans-4a"/>
      <use xlink:href="#DejaVuSans-4e" x="29.492188"/>
      <use xlink:href="#DejaVuSans-4a" x="104.296875"/>
     </g>
    </g>
    <g id="patch_22">
     <path d="M 397.8 177.890937 
L 417.8 177.890937 
L 417.8 170.890937 
L 397.8 170.890937 
z
" style="fill: #9467bd; stroke: #9467bd; stroke-linejoin: miter"/>
    </g>
    <g id="text_32">
     <!-- XOM -->
     <g transform="translate(425.8 177.890937)scale(0.1 -0.1)">
      <defs>
       <path id="DejaVuSans-58" d="M 403 4666 
L 1081 4666 
L 2241 2931 
L 3406 4666 
L 4084 4666 
L 2584 2425 
L 4184 0 
L 3506 0 
L 2194 1984 
L 872 0 
L 191 0 
L 1856 2491 
L 403 4666 
z
" transform="scale(0.015625)"/>
      </defs>
      <use xlink:href="#DejaVuSans-58"/>
      <use xlink:href="#DejaVuSans-4f" x="62.130859"/>
      <use xlink:href="#DejaVuSans-4d" x="140.841797"/>
     </g>
    </g>
    <g id="patch_23">
     <path d="M 397.8 192.569062 
L 417.8 192.569062 
L 417.8 185.569062 
L 397.8 185.569062 
z
" style="fill: #8c564b; stroke: #8c564b; stroke-linejoin: miter"/>
    </g>
    <g id="text_33">
     <!-- MRO -->
     <g transform="translate(425.8 192.569062)scale(0.1 -0.1)">
      <use xlink:href="#DejaVuSans-4d"/>
      <use xlink:href="#DejaVuSans-52" x="86.279297"/>
      <use xlink:href="#DejaVuSans-4f" x="155.761719"/>
     </g>
    </g>
    <g id="patch_24">
     <path d="M 397.8 207.247187 
L 417.8 207.247187 
L 417.8 200.247187 
L 397.8 200.247187 
z
" style="fill: #e377c2; stroke: #e377c2; stroke-linejoin: miter"/>
    </g>
    <g id="text_34">
     <!-- ED -->
     <g transform="translate(425.8 207.247187)scale(0.1 -0.1)">
      <use xlink:href="#DejaVuSans-45"/>
      <use xlink:href="#DejaVuSans-44" x="63.183594"/>
     </g>
    </g>
    <g id="patch_25">
     <path d="M 397.8 221.925312 
L 417.8 221.925312 
L 417.8 214.925312 
L 397.8 214.925312 
z
" style="fill: #7f7f7f; stroke: #7f7f7f; stroke-linejoin: miter"/>
    </g>
    <g id="text_35">
     <!-- T -->
     <g transform="translate(425.8 221.925312)scale(0.1 -0.1)">
      <use xlink:href="#DejaVuSans-54"/>
     </g>
    </g>
    <g id="patch_26">
     <path d="M 397.8 236.603437 
L 417.8 236.603437 
L 417.8 229.603437 
L 397.8 229.603437 
z
" style="fill: #bcbd22; stroke: #bcbd22; stroke-linejoin: miter"/>
    </g>
    <g id="text_36">
     <!-- VZ -->
     <g transform="translate(425.8 236.603437)scale(0.1 -0.1)">
      <defs>
       <path id="DejaVuSans-56" d="M 1831 0 
L 50 4666 
L 709 4666 
L 2188 738 
L 3669 4666 
L 4325 4666 
L 2547 0 
L 1831 0 
z
" transform="scale(0.015625)"/>
       <path id="DejaVuSans-5a" d="M 359 4666 
L 4025 4666 
L 4025 4184 
L 1075 531 
L 4097 531 
L 4097 0 
L 288 0 
L 288 481 
L 3238 4134 
L 359 4134 
L 359 4666 
z
" transform="scale(0.015625)"/>
      </defs>
      <use xlink:href="#DejaVuSans-56"/>
      <use xlink:href="#DejaVuSans-5a" x="68.408203"/>
     </g>
    </g>
    <g id="patch_27">
     <path d="M 397.8 251.281562 
L 417.8 251.281562 
L 417.8 244.281562 
L 397.8 244.281562 
z
" style="fill: #17becf; stroke: #17becf; stroke-linejoin: miter"/>
    </g>
    <g id="text_37">
     <!-- NEM -->
     <g transform="translate(425.8 251.281562)scale(0.1 -0.1)">
      <use xlink:href="#DejaVuSans-4e"/>
      <use xlink:href="#DejaVuSans-45" x="74.804688"/>
      <use xlink:href="#DejaVuSans-4d" x="137.988281"/>
     </g>
    </g>
   </g>
  </g>
 </g>
 <defs>
  <clipPath id="p7a87b44d0c">
   <rect x="54" y="25.92" width="334.8" height="166.32"/>
  </clipPath>
 </defs>
</svg>
