<?xml version="1.0" encoding="utf-8" standalone="no"?>
<!DOCTYPE svg PUBLIC "-//W3C//DTD SVG 1.1//EN"
  "http://www.w3.org/Graphics/SVG/1.1/DTD/svg11.dtd">
<svg xmlns:xlink="http://www.w3.org/1999/xlink" width="432pt" height="216pt" viewBox="0 0 432 216" xmlns="http://www.w3.org/2000/svg" version="1.1">
 <metadata>
  <rdf:RDF xmlns:dc="http://purl.org/dc/elements/1.1/" xmlns:cc="http://creativecommons.org/ns#" xmlns:rdf="http://www.w3.org/1999/02/22-rdf-syntax-ns#">
   <cc:Work>
    <dc:type rdf:resource="http://purl.org/dc/dcmitype/StillImage"/>
    <dc:date>2024-03-17T10:20:40.898427</dc:date>
    <dc:format>image/svg+xml</dc:format>
    <dc:creator>
     <cc:Agent>
      <dc:title>Matplotlib v3.5.2, https://matplotlib.org/</dc:title>
     </cc:Agent>
    </dc:creator>
   </cc:Work>
  </rdf:RDF>
 </metadata>
 <defs>
  <style type="text/css">*{stroke-linejoin: round; stroke-linecap: butt}</style>
 </defs>
 <g id="figure_1">
  <g id="patch_1">
   <path d="M 0 216 
L 432 216 
L 432 0 
L 0 0 
z
" style="fill: #ffffff"/>
  </g>
  <g id="axes_1">
   <g id="patch_2">
    <path d="M 54 192.24 
L 388.8 192.24 
L 388.8 25.92 
L 54 25.92 
z
" style="fill: #ffffff"/>
   </g>
   <g id="PolyCollection_1">
    <defs>
     <path id="m99bf730d7c" d="M 69.218182 -31.68 
L 69.218182 -23.76 
L 85.237321 -23.76 
L 101.256459 -23.76 
L 117.275598 -23.76 
L 133.294737 -23.76 
L 149.313876 -23.76 
L 165.333014 -23.76 
L 181.352153 -23.76 
L 197.371292 -23.76 
L 213.390431 -23.76 
L 229.409569 -23.76 
L 245.428708 -23.76 
L 261.447847 -23.76 
L 277.466986 -23.76 
L 293.486124 -23.76 
L 309.505263 -23.76 
L 325.524402 -23.76 
L 341.543541 -23.76 
L 357.562679 -23.76 
L 373.581818 -23.76 
L 373.581818 -31.68 
L 373.581818 -31.68 
L 357.562679 -31.68 
L 341.543541 -31.68 
L 325.524402 -31.68 
L 309.505263 -31.68 
L 293.486124 -31.68 
L 277.466986 -31.68 
L 261.447847 -31.68 
L 245.428708 -31.68 
L 229.409569 -31.68 
L 213.390431 -31.68 
L 197.371292 -31.68 
L 181.352153 -31.68 
L 165.333014 -31.68 
L 149.313876 -31.68 
L 133.294737 -31.68 
L 117.275598 -31.68 
L 101.256459 -31.68 
L 85.237321 -31.68 
L 69.218182 -31.68 
z
" style="stroke: #1f77b4"/>
    </defs>
    <g clip-path="url(#p9a9ec615db)">
     <use xlink:href="#m99bf730d7c" x="0" y="216" style="fill: #1f77b4; stroke: #1f77b4"/>
    </g>
   </g>
   <g id="PolyCollection_2">
    <defs>
     <path id="m5aea61ff6f" d="M 69.218182 -39.6 
L 69.218182 -31.68 
L 85.237321 -31.68 
L 101.256459 -31.68 
L 117.275598 -31.68 
L 133.294737 -31.68 
L 149.313876 -31.68 
L 165.333014 -31.68 
L 181.352153 -31.68 
L 197.371292 -31.68 
L 213.390431 -31.68 
L 229.409569 -31.68 
L 245.428708 -31.68 
L 261.447847 -31.68 
L 277.466986 -31.68 
L 293.486124 -31.68 
L 309.505263 -31.68 
L 325.524402 -31.68 
L 341.543541 -31.68 
L 357.562679 -31.68 
L 373.581818 -31.68 
L 373.581818 -39.6 
L 373.581818 -39.6 
L 357.562679 -39.6 
L 341.543541 -39.6 
L 325.524402 -39.6 
L 309.505263 -39.6 
L 293.486124 -39.6 
L 277.466986 -39.6 
L 261.447847 -39.6 
L 245.428708 -39.6 
L 229.409569 -39.6 
L 213.390431 -39.6 
L 197.371292 -39.6 
L 181.352153 -39.6 
L 165.333014 -39.6 
L 149.313876 -39.6 
L 133.294737 -39.6 
L 117.275598 -39.6 
L 101.256459 -39.6 
L 85.237321 -39.6 
L 69.218182 -39.6 
z
" style="stroke: #ff7f0e"/>
    </defs>
    <g clip-path="url(#p9a9ec615db)">
     <use xlink:href="#m5aea61ff6f" x="0" y="216" style="fill: #ff7f0e; stroke: #ff7f0e"/>
    </g>
   </g>
   <g id="PolyCollection_3">
    <defs>
     <path id="m076bfc00f1" d="M 69.218182 -47.52 
L 69.218182 -39.6 
L 85.237321 -39.6 
L 101.256459 -39.6 
L 117.275598 -39.6 
L 133.294737 -39.6 
L 149.313876 -39.6 
L 165.333014 -39.6 
L 181.352153 -39.6 
L 197.371292 -39.6 
L 213.390431 -39.6 
L 229.409569 -39.6 
L 245.428708 -39.6 
L 261.447847 -39.6 
L 277.466986 -39.6 
L 293.486124 -39.6 
L 309.505263 -39.6 
L 325.524402 -39.6 
L 341.543541 -39.6 
L 357.562679 -39.6 
L 373.581818 -39.6 
L 373.581818 -47.52 
L 373.581818 -47.52 
L 357.562679 -47.52 
L 341.543541 -47.52 
L 325.524402 -47.52 
L 309.505263 -47.52 
L 293.486124 -47.52 
L 277.466986 -47.52 
L 261.447847 -47.52 
L 245.428708 -47.52 
L 229.409569 -47.52 
L 213.390431 -47.52 
L 197.371292 -47.52 
L 181.352153 -47.52 
L 165.333014 -47.52 
L 149.313876 -47.52 
L 133.294737 -47.52 
L 117.275598 -47.52 
L 101.256459 -47.52 
L 85.237321 -47.52 
L 69.218182 -47.52 
z
" style="stroke: #2ca02c"/>
    </defs>
    <g clip-path="url(#p9a9ec615db)">
     <use xlink:href="#m076bfc00f1" x="0" y="216" style="fill: #2ca02c; stroke: #2ca02c"/>
    </g>
   </g>
   <g id="PolyCollection_4">
    <defs>
     <path id="m310f2b782c" d="M 69.218182 -55.44 
L 69.218182 -47.52 
L 85.237321 -47.52 
L 101.256459 -47.52 
L 117.275598 -47.52 
L 133.294737 -47.52 
L 149.313876 -47.52 
L 165.333014 -47.52 
L 181.352153 -47.52 
L 197.371292 -47.52 
L 213.390431 -47.52 
L 229.409569 -47.52 
L 245.428708 -47.52 
L 261.447847 -47.52 
L 277.466986 -47.52 
L 293.486124 -47.52 
L 309.505263 -47.52 
L 325.524402 -47.52 
L 341.543541 -47.52 
L 357.562679 -47.52 
L 373.581818 -47.52 
L 373.581818 -55.44 
L 373.581818 -55.44 
L 357.562679 -55.44 
L 341.543541 -55.44 
L 325.524402 -55.44 
L 309.505263 -55.44 
L 293.486124 -55.44 
L 277.466986 -55.44 
L 261.447847 -55.44 
L 245.428708 -55.44 
L 229.409569 -55.44 
L 213.390431 -55.44 
L 197.371292 -55.44 
L 181.352153 -55.44 
L 165.333014 -55.44 
L 149.313876 -55.44 
L 133.294737 -55.44 
L 117.275598 -55.44 
L 101.256459 -55.44 
L 85.237321 -55.44 
L 69.218182 -55.44 
z
" style="stroke: #d62728"/>
    </defs>
    <g clip-path="url(#p9a9ec615db)">
     <use xlink:href="#m310f2b782c" x="0" y="216" style="fill: #d62728; stroke: #d62728"/>
    </g>
   </g>
   <g id="PolyCollection_5">
    <defs>
     <path id="m70add3c1b8" d="M 69.218182 -63.36 
L 69.218182 -55.44 
L 85.237321 -55.44 
L 101.256459 -55.44 
L 117.275598 -55.44 
L 133.294737 -55.44 
L 149.313876 -55.44 
L 165.333014 -55.44 
L 181.352153 -55.44 
L 197.371292 -55.44 
L 213.390431 -55.44 
L 229.409569 -55.44 
L 245.428708 -55.44 
L 261.447847 -55.44 
L 277.466986 -55.44 
L 293.486124 -55.44 
L 309.505263 -55.44 
L 325.524402 -55.44 
L 341.543541 -55.44 
L 357.562679 -55.44 
L 373.581818 -55.44 
L 373.581818 -63.36 
L 373.581818 -63.36 
L 357.562679 -63.36 
L 341.543541 -63.36 
L 325.524402 -63.36 
L 309.505263 -63.36 
L 293.486124 -63.36 
L 277.466986 -63.36 
L 261.447847 -63.36 
L 245.428708 -63.36 
L 229.409569 -63.36 
L 213.390431 -63.36 
L 197.371292 -63.36 
L 181.352153 -63.36 
L 165.333014 -63.36 
L 149.313876 -63.36 
L 133.294737 -63.36 
L 117.275598 -63.36 
L 101.256459 -63.36 
L 85.237321 -63.36 
L 69.218182 -63.36 
z
" style="stroke: #9467bd"/>
    </defs>
    <g clip-path="url(#p9a9ec615db)">
     <use xlink:href="#m70add3c1b8" x="0" y="216" style="fill: #9467bd; stroke: #9467bd"/>
    </g>
   </g>
   <g id="PolyCollection_6">
    <defs>
     <path id="m9147b8430a" d="M 69.218182 -71.28 
L 69.218182 -63.36 
L 85.237321 -63.36 
L 101.256459 -63.36 
L 117.275598 -63.36 
L 133.294737 -63.36 
L 149.313876 -63.36 
L 165.333014 -63.36 
L 181.352153 -63.36 
L 197.371292 -63.36 
L 213.390431 -63.36 
L 229.409569 -63.36 
L 245.428708 -63.36 
L 261.447847 -63.36 
L 277.466986 -63.36 
L 293.486124 -63.36 
L 309.505263 -63.36 
L 325.524402 -63.36 
L 341.543541 -63.36 
L 357.562679 -63.36 
L 373.581818 -63.36 
L 373.581818 -71.28 
L 373.581818 -71.28 
L 357.562679 -71.28 
L 341.543541 -71.28 
L 325.524402 -71.28 
L 309.505263 -71.28 
L 293.486124 -71.28 
L 277.466986 -71.28 
L 261.447847 -71.28 
L 245.428708 -71.28 
L 229.409569 -71.28 
L 213.390431 -71.28 
L 197.371292 -71.28 
L 181.352153 -71.28 
L 165.333014 -71.28 
L 149.313876 -71.28 
L 133.294737 -71.28 
L 117.275598 -71.28 
L 101.256459 -71.28 
L 85.237321 -71.28 
L 69.218182 -71.28 
z
" style="stroke: #8c564b"/>
    </defs>
    <g clip-path="url(#p9a9ec615db)">
     <use xlink:href="#m9147b8430a" x="0" y="216" style="fill: #8c564b; stroke: #8c564b"/>
    </g>
   </g>
   <g id="PolyCollection_7">
    <defs>
     <path id="mdbf13880d2" d="M 69.218182 -79.2 
L 69.218182 -71.28 
L 85.237321 -71.28 
L 101.256459 -71.28 
L 117.275598 -71.28 
L 133.294737 -71.28 
L 149.313876 -71.28 
L 165.333014 -71.28 
L 181.352153 -71.28 
L 197.371292 -71.28 
L 213.390431 -71.28 
L 229.409569 -71.28 
L 245.428708 -71.28 
L 261.447847 -71.28 
L 277.466986 -71.28 
L 293.486124 -71.28 
L 309.505263 -71.28 
L 325.524402 -71.28 
L 341.543541 -71.28 
L 357.562679 -71.28 
L 373.581818 -71.28 
L 373.581818 -79.2 
L 373.581818 -79.2 
L 357.562679 -79.2 
L 341.543541 -79.2 
L 325.524402 -79.2 
L 309.505263 -79.2 
L 293.486124 -79.2 
L 277.466986 -79.2 
L 261.447847 -79.2 
L 245.428708 -79.2 
L 229.409569 -79.2 
L 213.390431 -79.2 
L 197.371292 -79.2 
L 181.352153 -79.2 
L 165.333014 -79.2 
L 149.313876 -79.2 
L 133.294737 -79.2 
L 117.275598 -79.2 
L 101.256459 -79.2 
L 85.237321 -79.2 
L 69.218182 -79.2 
z
" style="stroke: #e377c2"/>
    </defs>
    <g clip-path="url(#p9a9ec615db)">
     <use xlink:href="#mdbf13880d2" x="0" y="216" style="fill: #e377c2; stroke: #e377c2"/>
    </g>
   </g>
   <g id="PolyCollection_8">
    <defs>
     <path id="mdac1923939" d="M 69.218182 -87.12 
L 69.218182 -79.2 
L 85.237321 -79.2 
L 101.256459 -79.2 
L 117.275598 -79.2 
L 133.294737 -79.2 
L 149.313876 -79.2 
L 165.333014 -79.2 
L 181.352153 -79.2 
L 197.371292 -79.2 
L 213.390431 -79.2 
L 229.409569 -79.2 
L 245.428708 -79.2 
L 261.447847 -79.2 
L 277.466986 -79.2 
L 293.486124 -79.2 
L 309.505263 -79.2 
L 325.524402 -79.2 
L 341.543541 -79.2 
L 357.562679 -79.2 
L 373.581818 -79.2 
L 373.581818 -87.12 
L 373.581818 -87.12 
L 357.562679 -87.12 
L 341.543541 -87.12 
L 325.524402 -87.12 
L 309.505263 -87.12 
L 293.486124 -87.12 
L 277.466986 -87.12 
L 261.447847 -87.12 
L 245.428708 -87.12 
L 229.409569 -87.12 
L 213.390431 -87.12 
L 197.371292 -87.12 
L 181.352153 -87.12 
L 165.333014 -87.12 
L 149.313876 -87.12 
L 133.294737 -87.12 
L 117.275598 -87.12 
L 101.256459 -87.12 
L 85.237321 -87.12 
L 69.218182 -87.12 
z
" style="stroke: #7f7f7f"/>
    </defs>
    <g clip-path="url(#p9a9ec615db)">
     <use xlink:href="#mdac1923939" x="0" y="216" style="fill: #7f7f7f; stroke: #7f7f7f"/>
    </g>
   </g>
   <g id="PolyCollection_9">
    <defs>
     <path id="m143592487e" d="M 69.218182 -95.04 
L 69.218182 -87.12 
L 85.237321 -87.12 
L 101.256459 -87.12 
L 117.275598 -87.12 
L 133.294737 -87.12 
L 149.313876 -87.12 
L 165.333014 -87.12 
L 181.352153 -87.12 
L 197.371292 -87.12 
L 213.390431 -87.12 
L 229.409569 -87.12 
L 245.428708 -87.12 
L 261.447847 -87.12 
L 277.466986 -87.12 
L 293.486124 -87.12 
L 309.505263 -87.12 
L 325.524402 -87.12 
L 341.543541 -87.12 
L 357.562679 -87.12 
L 373.581818 -87.12 
L 373.581818 -95.04 
L 373.581818 -95.04 
L 357.562679 -95.04 
L 341.543541 -95.04 
L 325.524402 -95.04 
L 309.505263 -95.04 
L 293.486124 -95.04 
L 277.466986 -95.04 
L 261.447847 -95.04 
L 245.428708 -95.04 
L 229.409569 -95.04 
L 213.390431 -95.04 
L 197.371292 -95.04 
L 181.352153 -95.04 
L 165.333014 -95.04 
L 149.313876 -95.04 
L 133.294737 -95.04 
L 117.275598 -95.04 
L 101.256459 -95.04 
L 85.237321 -95.04 
L 69.218182 -95.04 
z
" style="stroke: #bcbd22"/>
    </defs>
    <g clip-path="url(#p9a9ec615db)">
     <use xlink:href="#m143592487e" x="0" y="216" style="fill: #bcbd22; stroke: #bcbd22"/>
    </g>
   </g>
   <g id="PolyCollection_10">
    <defs>
     <path id="mf9b7371b48" d="M 69.218182 -102.96 
L 69.218182 -95.04 
L 85.237321 -95.04 
L 101.256459 -95.04 
L 117.275598 -95.04 
L 133.294737 -95.04 
L 149.313876 -95.04 
L 165.333014 -95.04 
L 181.352153 -95.04 
L 197.371292 -95.04 
L 213.390431 -95.04 
L 229.409569 -95.04 
L 245.428708 -95.04 
L 261.447847 -95.04 
L 277.466986 -95.04 
L 293.486124 -95.04 
L 309.505263 -95.04 
L 325.524402 -95.04 
L 341.543541 -95.04 
L 357.562679 -95.04 
L 373.581818 -95.04 
L 373.581818 -102.96 
L 373.581818 -102.96 
L 357.562679 -102.96 
L 341.543541 -102.96 
L 325.524402 -102.96 
L 309.505263 -102.96 
L 293.486124 -102.96 
L 277.466986 -102.96 
L 261.447847 -102.96 
L 245.428708 -102.96 
L 229.409569 -102.96 
L 213.390431 -102.96 
L 197.371292 -102.96 
L 181.352153 -102.96 
L 165.333014 -102.96 
L 149.313876 -102.96 
L 133.294737 -102.96 
L 117.275598 -102.96 
L 101.256459 -102.96 
L 85.237321 -102.96 
L 69.218182 -102.96 
z
" style="stroke: #17becf"/>
    </defs>
    <g clip-path="url(#p9a9ec615db)">
     <use xlink:href="#mf9b7371b48" x="0" y="216" style="fill: #17becf; stroke: #17becf"/>
    </g>
   </g>
   <g id="PolyCollection_11">
    <defs>
     <path id="mda2a5b84dc" d="M 69.218182 -110.88 
L 69.218182 -102.96 
L 85.237321 -102.96 
L 101.256459 -102.96 
L 117.275598 -102.96 
L 133.294737 -102.96 
L 149.313876 -102.96 
L 165.333014 -102.96 
L 181.352153 -102.96 
L 197.371292 -102.96 
L 213.390431 -102.96 
L 229.409569 -102.96 
L 245.428708 -102.96 
L 261.447847 -102.96 
L 277.466986 -102.96 
L 293.486124 -102.96 
L 309.505263 -102.96 
L 325.524402 -102.96 
L 341.543541 -102.96 
L 357.562679 -102.96 
L 373.581818 -102.96 
L 373.581818 -110.88 
L 373.581818 -110.88 
L 357.562679 -110.88 
L 341.543541 -110.88 
L 325.524402 -110.88 
L 309.505263 -110.88 
L 293.486124 -110.88 
L 277.466986 -110.88 
L 261.447847 -110.88 
L 245.428708 -110.88 
L 229.409569 -110.88 
L 213.390431 -110.88 
L 197.371292 -110.88 
L 181.352153 -110.88 
L 165.333014 -110.88 
L 149.313876 -110.88 
L 133.294737 -110.88 
L 117.275598 -110.88 
L 101.256459 -110.88 
L 85.237321 -110.88 
L 69.218182 -110.88 
z
" style="stroke: #1f77b4"/>
    </defs>
    <g clip-path="url(#p9a9ec615db)">
     <use xlink:href="#mda2a5b84dc" x="0" y="216" style="fill: #1f77b4; stroke: #1f77b4"/>
    </g>
   </g>
   <g id="PolyCollection_12">
    <defs>
     <path id="mefc7546d06" d="M 69.218182 -118.8 
L 69.218182 -110.88 
L 85.237321 -110.88 
L 101.256459 -110.88 
L 117.275598 -110.88 
L 133.294737 -110.88 
L 149.313876 -110.88 
L 165.333014 -110.88 
L 181.352153 -110.88 
L 197.371292 -110.88 
L 213.390431 -110.88 
L 229.409569 -110.88 
L 245.428708 -110.88 
L 261.447847 -110.88 
L 277.466986 -110.88 
L 293.486124 -110.88 
L 309.505263 -110.88 
L 325.524402 -110.88 
L 341.543541 -110.88 
L 357.562679 -110.88 
L 373.581818 -110.88 
L 373.581818 -118.8 
L 373.581818 -118.8 
L 357.562679 -118.8 
L 341.543541 -118.8 
L 325.524402 -118.8 
L 309.505263 -118.8 
L 293.486124 -118.8 
L 277.466986 -118.8 
L 261.447847 -118.8 
L 245.428708 -118.8 
L 229.409569 -118.8 
L 213.390431 -118.8 
L 197.371292 -118.8 
L 181.352153 -118.8 
L 165.333014 -118.8 
L 149.313876 -118.8 
L 133.294737 -118.8 
L 117.275598 -118.8 
L 101.256459 -118.8 
L 85.237321 -118.8 
L 69.218182 -118.8 
z
" style="stroke: #ff7f0e"/>
    </defs>
    <g clip-path="url(#p9a9ec615db)">
     <use xlink:href="#mefc7546d06" x="0" y="216" style="fill: #ff7f0e; stroke: #ff7f0e"/>
    </g>
   </g>
   <g id="PolyCollection_13">
    <defs>
     <path id="m8641b7502a" d="M 69.218182 -126.72 
L 69.218182 -118.8 
L 85.237321 -118.8 
L 101.256459 -118.8 
L 117.275598 -118.8 
L 133.294737 -118.8 
L 149.313876 -118.8 
L 165.333014 -118.8 
L 181.352153 -118.8 
L 197.371292 -118.8 
L 213.390431 -118.8 
L 229.409569 -118.8 
L 245.428708 -118.8 
L 261.447847 -118.8 
L 277.466986 -118.8 
L 293.486124 -118.8 
L 309.505263 -118.8 
L 325.524402 -118.8 
L 341.543541 -118.8 
L 357.562679 -118.8 
L 373.581818 -118.8 
L 373.581818 -126.72 
L 373.581818 -126.72 
L 357.562679 -126.72 
L 341.543541 -126.72 
L 325.524402 -126.72 
L 309.505263 -126.72 
L 293.486124 -126.72 
L 277.466986 -126.72 
L 261.447847 -126.72 
L 245.428708 -126.72 
L 229.409569 -126.72 
L 213.390431 -126.72 
L 197.371292 -126.72 
L 181.352153 -126.72 
L 165.333014 -126.72 
L 149.313876 -126.72 
L 133.294737 -126.72 
L 117.275598 -126.72 
L 101.256459 -126.72 
L 85.237321 -126.72 
L 69.218182 -126.72 
z
" style="stroke: #2ca02c"/>
    </defs>
    <g clip-path="url(#p9a9ec615db)">
     <use xlink:href="#m8641b7502a" x="0" y="216" style="fill: #2ca02c; stroke: #2ca02c"/>
    </g>
   </g>
   <g id="PolyCollection_14">
    <defs>
     <path id="m6d4dede90c" d="M 69.218182 -134.64 
L 69.218182 -126.72 
L 85.237321 -126.72 
L 101.256459 -126.72 
L 117.275598 -126.72 
L 133.294737 -126.72 
L 149.313876 -126.72 
L 165.333014 -126.72 
L 181.352153 -126.72 
L 197.371292 -126.72 
L 213.390431 -126.72 
L 229.409569 -126.72 
L 245.428708 -126.72 
L 261.447847 -126.72 
L 277.466986 -126.72 
L 293.486124 -126.72 
L 309.505263 -126.72 
L 325.524402 -126.72 
L 341.543541 -126.72 
L 357.562679 -126.72 
L 373.581818 -126.72 
L 373.581818 -134.64 
L 373.581818 -134.64 
L 357.562679 -134.64 
L 341.543541 -134.64 
L 325.524402 -134.64 
L 309.505263 -134.64 
L 293.486124 -134.64 
L 277.466986 -134.64 
L 261.447847 -134.64 
L 245.428708 -134.64 
L 229.409569 -134.64 
L 213.390431 -134.64 
L 197.371292 -134.64 
L 181.352153 -134.64 
L 165.333014 -134.64 
L 149.313876 -134.64 
L 133.294737 -134.64 
L 117.275598 -134.64 
L 101.256459 -134.64 
L 85.237321 -134.64 
L 69.218182 -134.64 
z
" style="stroke: #d62728"/>
    </defs>
    <g clip-path="url(#p9a9ec615db)">
     <use xlink:href="#m6d4dede90c" x="0" y="216" style="fill: #d62728; stroke: #d62728"/>
    </g>
   </g>
   <g id="PolyCollection_15">
    <defs>
     <path id="mc835bb4583" d="M 69.218182 -142.56 
L 69.218182 -134.64 
L 85.237321 -134.64 
L 101.256459 -134.64 
L 117.275598 -134.64 
L 133.294737 -134.64 
L 149.313876 -134.64 
L 165.333014 -134.64 
L 181.352153 -134.64 
L 197.371292 -134.64 
L 213.390431 -134.64 
L 229.409569 -134.64 
L 245.428708 -134.64 
L 261.447847 -134.64 
L 277.466986 -134.64 
L 293.486124 -134.64 
L 309.505263 -134.64 
L 325.524402 -134.64 
L 341.543541 -134.64 
L 357.562679 -134.64 
L 373.581818 -134.64 
L 373.581818 -142.56 
L 373.581818 -142.56 
L 357.562679 -142.56 
L 341.543541 -142.56 
L 325.524402 -142.56 
L 309.505263 -142.56 
L 293.486124 -142.56 
L 277.466986 -142.56 
L 261.447847 -142.56 
L 245.428708 -142.56 
L 229.409569 -142.56 
L 213.390431 -142.56 
L 197.371292 -142.56 
L 181.352153 -142.56 
L 165.333014 -142.56 
L 149.313876 -142.56 
L 133.294737 -142.56 
L 117.275598 -142.56 
L 101.256459 -142.56 
L 85.237321 -142.56 
L 69.218182 -142.56 
z
" style="stroke: #9467bd"/>
    </defs>
    <g clip-path="url(#p9a9ec615db)">
     <use xlink:href="#mc835bb4583" x="0" y="216" style="fill: #9467bd; stroke: #9467bd"/>
    </g>
   </g>
   <g id="PolyCollection_16">
    <defs>
     <path id="mb8b57191db" d="M 69.218182 -150.48 
L 69.218182 -142.56 
L 85.237321 -142.56 
L 101.256459 -142.56 
L 117.275598 -142.56 
L 133.294737 -142.56 
L 149.313876 -142.56 
L 165.333014 -142.56 
L 181.352153 -142.56 
L 197.371292 -142.56 
L 213.390431 -142.56 
L 229.409569 -142.56 
L 245.428708 -142.56 
L 261.447847 -142.56 
L 277.466986 -142.56 
L 293.486124 -142.56 
L 309.505263 -142.56 
L 325.524402 -142.56 
L 341.543541 -142.56 
L 357.562679 -142.56 
L 373.581818 -142.56 
L 373.581818 -150.48 
L 373.581818 -150.48 
L 357.562679 -150.48 
L 341.543541 -150.48 
L 325.524402 -150.48 
L 309.505263 -150.48 
L 293.486124 -150.48 
L 277.466986 -150.48 
L 261.447847 -150.48 
L 245.428708 -150.48 
L 229.409569 -150.48 
L 213.390431 -150.48 
L 197.371292 -150.48 
L 181.352153 -150.48 
L 165.333014 -150.48 
L 149.313876 -150.48 
L 133.294737 -150.48 
L 117.275598 -150.48 
L 101.256459 -150.48 
L 85.237321 -150.48 
L 69.218182 -150.48 
z
" style="stroke: #8c564b"/>
    </defs>
    <g clip-path="url(#p9a9ec615db)">
     <use xlink:href="#mb8b57191db" x="0" y="216" style="fill: #8c564b; stroke: #8c564b"/>
    </g>
   </g>
   <g id="PolyCollection_17">
    <defs>
     <path id="m81beaf2db2" d="M 69.218182 -158.4 
L 69.218182 -150.48 
L 85.237321 -150.48 
L 101.256459 -150.48 
L 117.275598 -150.48 
L 133.294737 -150.48 
L 149.313876 -150.48 
L 165.333014 -150.48 
L 181.352153 -150.48 
L 197.371292 -150.48 
L 213.390431 -150.48 
L 229.409569 -150.48 
L 245.428708 -150.48 
L 261.447847 -150.48 
L 277.466986 -150.48 
L 293.486124 -150.48 
L 309.505263 -150.48 
L 325.524402 -150.48 
L 341.543541 -150.48 
L 357.562679 -150.48 
L 373.581818 -150.48 
L 373.581818 -158.4 
L 373.581818 -158.4 
L 357.562679 -158.4 
L 341.543541 -158.4 
L 325.524402 -158.4 
L 309.505263 -158.4 
L 293.486124 -158.4 
L 277.466986 -158.4 
L 261.447847 -158.4 
L 245.428708 -158.4 
L 229.409569 -158.4 
L 213.390431 -158.4 
L 197.371292 -158.4 
L 181.352153 -158.4 
L 165.333014 -158.4 
L 149.313876 -158.4 
L 133.294737 -158.4 
L 117.275598 -158.4 
L 101.256459 -158.4 
L 85.237321 -158.4 
L 69.218182 -158.4 
z
" style="stroke: #e377c2"/>
    </defs>
    <g clip-path="url(#p9a9ec615db)">
     <use xlink:href="#m81beaf2db2" x="0" y="216" style="fill: #e377c2; stroke: #e377c2"/>
    </g>
   </g>
   <g id="PolyCollection_18">
    <defs>
     <path id="m277fe5e92b" d="M 69.218182 -166.32 
L 69.218182 -158.4 
L 85.237321 -158.4 
L 101.256459 -158.4 
L 117.275598 -158.4 
L 133.294737 -158.4 
L 149.313876 -158.4 
L 165.333014 -158.4 
L 181.352153 -158.4 
L 197.371292 -158.4 
L 213.390431 -158.4 
L 229.409569 -158.4 
L 245.428708 -158.4 
L 261.447847 -158.4 
L 277.466986 -158.4 
L 293.486124 -158.4 
L 309.505263 -158.4 
L 325.524402 -158.4 
L 341.543541 -158.4 
L 357.562679 -158.4 
L 373.581818 -158.4 
L 373.581818 -166.32 
L 373.581818 -166.32 
L 357.562679 -166.32 
L 341.543541 -166.32 
L 325.524402 -166.32 
L 309.505263 -166.32 
L 293.486124 -166.32 
L 277.466986 -166.32 
L 261.447847 -166.32 
L 245.428708 -166.32 
L 229.409569 -166.32 
L 213.390431 -166.32 
L 197.371292 -166.32 
L 181.352153 -166.32 
L 165.333014 -166.32 
L 149.313876 -166.32 
L 133.294737 -166.32 
L 117.275598 -166.32 
L 101.256459 -166.32 
L 85.237321 -166.32 
L 69.218182 -166.32 
z
" style="stroke: #7f7f7f"/>
    </defs>
    <g clip-path="url(#p9a9ec615db)">
     <use xlink:href="#m277fe5e92b" x="0" y="216" style="fill: #7f7f7f; stroke: #7f7f7f"/>
    </g>
   </g>
   <g id="PolyCollection_19">
    <defs>
     <path id="m9129279885" d="M 69.218182 -174.24 
L 69.218182 -166.32 
L 85.237321 -166.32 
L 101.256459 -166.32 
L 117.275598 -166.32 
L 133.294737 -166.32 
L 149.313876 -166.32 
L 165.333014 -166.32 
L 181.352153 -166.32 
L 197.371292 -166.32 
L 213.390431 -166.32 
L 229.409569 -166.32 
L 245.428708 -166.32 
L 261.447847 -166.32 
L 277.466986 -166.32 
L 293.486124 -166.32 
L 309.505263 -166.32 
L 325.524402 -166.32 
L 341.543541 -166.32 
L 357.562679 -166.32 
L 373.581818 -166.32 
L 373.581818 -174.24 
L 373.581818 -174.24 
L 357.562679 -174.24 
L 341.543541 -174.24 
L 325.524402 -174.24 
L 309.505263 -174.24 
L 293.486124 -174.24 
L 277.466986 -174.24 
L 261.447847 -174.24 
L 245.428708 -174.24 
L 229.409569 -174.24 
L 213.390431 -174.24 
L 197.371292 -174.24 
L 181.352153 -174.24 
L 165.333014 -174.24 
L 149.313876 -174.24 
L 133.294737 -174.24 
L 117.275598 -174.24 
L 101.256459 -174.24 
L 85.237321 -174.24 
L 69.218182 -174.24 
z
" style="stroke: #bcbd22"/>
    </defs>
    <g clip-path="url(#p9a9ec615db)">
     <use xlink:href="#m9129279885" x="0" y="216" style="fill: #bcbd22; stroke: #bcbd22"/>
    </g>
   </g>
   <g id="PolyCollection_20">
    <defs>
     <path id="m38247305fe" d="M 69.218182 -182.16 
L 69.218182 -174.24 
L 85.237321 -174.24 
L 101.256459 -174.24 
L 117.275598 -174.24 
L 133.294737 -174.24 
L 149.313876 -174.24 
L 165.333014 -174.24 
L 181.352153 -174.24 
L 197.371292 -174.24 
L 213.390431 -174.24 
L 229.409569 -174.24 
L 245.428708 -174.24 
L 261.447847 -174.24 
L 277.466986 -174.24 
L 293.486124 -174.24 
L 309.505263 -174.24 
L 325.524402 -174.24 
L 341.543541 -174.24 
L 357.562679 -174.24 
L 373.581818 -174.24 
L 373.581818 -182.16 
L 373.581818 -182.16 
L 357.562679 -182.16 
L 341.543541 -182.16 
L 325.524402 -182.16 
L 309.505263 -182.16 
L 293.486124 -182.16 
L 277.466986 -182.16 
L 261.447847 -182.16 
L 245.428708 -182.16 
L 229.409569 -182.16 
L 213.390431 -182.16 
L 197.371292 -182.16 
L 181.352153 -182.16 
L 165.333014 -182.16 
L 149.313876 -182.16 
L 133.294737 -182.16 
L 117.275598 -182.16 
L 101.256459 -182.16 
L 85.237321 -182.16 
L 69.218182 -182.16 
z
" style="stroke: #17becf"/>
    </defs>
    <g clip-path="url(#p9a9ec615db)">
     <use xlink:href="#m38247305fe" x="0" y="216" style="fill: #17becf; stroke: #17becf"/>
    </g>
   </g>
   <g id="matplotlib.axis_1">
    <g id="xtick_1">
     <g id="line2d_1">
      <defs>
       <path id="m219cbd778b" d="M 0 0 
L 0 3.5 
" style="stroke: #000000; stroke-width: 0.8"/>
      </defs>
      <g>
       <use xlink:href="#m219cbd778b" x="93.24689" y="192.24" style="stroke: #000000; stroke-width: 0.8"/>
      </g>
     </g>
     <g id="text_1">
      <!-- 2.5 -->
      <g transform="translate(85.295327 206.838437)scale(0.1 -0.1)">
       <defs>
        <path id="DejaVuSans-32" d="M 1228 531 
L 3431 531 
L 3431 0 
L 469 0 
L 469 531 
Q 828 903 1448 1529 
Q 2069 2156 2228 2338 
Q 2531 2678 2651 2914 
Q 2772 3150 2772 3378 
Q 2772 3750 2511 3984 
Q 2250 4219 1831 4219 
Q 1534 4219 1204 4116 
Q 875 4013 500 3803 
L 500 4441 
Q 881 4594 1212 4672 
Q 1544 4750 1819 4750 
Q 2544 4750 2975 4387 
Q 3406 4025 3406 3419 
Q 3406 3131 3298 2873 
Q 3191 2616 2906 2266 
Q 2828 2175 2409 1742 
Q 1991 1309 1228 531 
z
" transform="scale(0.015625)"/>
        <path id="DejaVuSans-2e" d="M 684 794 
L 1344 794 
L 1344 0 
L 684 0 
L 684 794 
z
" transform="scale(0.015625)"/>
        <path id="DejaVuSans-35" d="M 691 4666 
L 3169 4666 
L 3169 4134 
L 1269 4134 
L 1269 2991 
Q 1406 3038 1543 3061 
Q 1681 3084 1819 3084 
Q 2600 3084 3056 2656 
Q 3513 2228 3513 1497 
Q 3513 744 3044 326 
Q 2575 -91 1722 -91 
Q 1428 -91 1123 -41 
Q 819 9 494 109 
L 494 744 
Q 775 591 1075 516 
Q 1375 441 1709 441 
Q 2250 441 2565 725 
Q 2881 1009 2881 1497 
Q 2881 1984 2565 2268 
Q 2250 2553 1709 2553 
Q 1456 2553 1204 2497 
Q 953 2441 691 2322 
L 691 4666 
z
" transform="scale(0.015625)"/>
       </defs>
       <use xlink:href="#DejaVuSans-32"/>
       <use xlink:href="#DejaVuSans-2e" x="63.623047"/>
       <use xlink:href="#DejaVuSans-35" x="95.410156"/>
      </g>
     </g>
    </g>
    <g id="xtick_2">
     <g id="line2d_2">
      <g>
       <use xlink:href="#m219cbd778b" x="133.294737" y="192.24" style="stroke: #000000; stroke-width: 0.8"/>
      </g>
     </g>
     <g id="text_2">
      <!-- 5.0 -->
      <g transform="translate(125.343174 206.838437)scale(0.1 -0.1)">
       <defs>
        <path id="DejaVuSans-30" d="M 2034 4250 
Q 1547 4250 1301 3770 
Q 1056 3291 1056 2328 
Q 1056 1369 1301 889 
Q 1547 409 2034 409 
Q 2525 409 2770 889 
Q 3016 1369 3016 2328 
Q 3016 3291 2770 3770 
Q 2525 4250 2034 4250 
z
M 2034 4750 
Q 2819 4750 3233 4129 
Q 3647 3509 3647 2328 
Q 3647 1150 3233 529 
Q 2819 -91 2034 -91 
Q 1250 -91 836 529 
Q 422 1150 422 2328 
Q 422 3509 836 4129 
Q 1250 4750 2034 4750 
z
" transform="scale(0.015625)"/>
       </defs>
       <use xlink:href="#DejaVuSans-35"/>
       <use xlink:href="#DejaVuSans-2e" x="63.623047"/>
       <use xlink:href="#DejaVuSans-30" x="95.410156"/>
      </g>
     </g>
    </g>
    <g id="xtick_3">
     <g id="line2d_3">
      <g>
       <use xlink:href="#m219cbd778b" x="173.342584" y="192.24" style="stroke: #000000; stroke-width: 0.8"/>
      </g>
     </g>
     <g id="text_3">
      <!-- 7.5 -->
      <g transform="translate(165.391021 206.838437)scale(0.1 -0.1)">
       <defs>
        <path id="DejaVuSans-37" d="M 525 4666 
L 3525 4666 
L 3525 4397 
L 1831 0 
L 1172 0 
L 2766 4134 
L 525 4134 
L 525 4666 
z
" transform="scale(0.015625)"/>
       </defs>
       <use xlink:href="#DejaVuSans-37"/>
       <use xlink:href="#DejaVuSans-2e" x="63.623047"/>
       <use xlink:href="#DejaVuSans-35" x="95.410156"/>
      </g>
     </g>
    </g>
    <g id="xtick_4">
     <g id="line2d_4">
      <g>
       <use xlink:href="#m219cbd778b" x="213.390431" y="192.24" style="stroke: #000000; stroke-width: 0.8"/>
      </g>
     </g>
     <g id="text_4">
      <!-- 10.0 -->
      <g transform="translate(202.257618 206.838437)scale(0.1 -0.1)">
       <defs>
        <path id="DejaVuSans-31" d="M 794 531 
L 1825 531 
L 1825 4091 
L 703 3866 
L 703 4441 
L 1819 4666 
L 2450 4666 
L 2450 531 
L 3481 531 
L 3481 0 
L 794 0 
L 794 531 
z
" transform="scale(0.015625)"/>
       </defs>
       <use xlink:href="#DejaVuSans-31"/>
       <use xlink:href="#DejaVuSans-30" x="63.623047"/>
       <use xlink:href="#DejaVuSans-2e" x="127.246094"/>
       <use xlink:href="#DejaVuSans-30" x="159.033203"/>
      </g>
     </g>
    </g>
    <g id="xtick_5">
     <g id="line2d_5">
      <g>
       <use xlink:href="#m219cbd778b" x="253.438278" y="192.24" style="stroke: #000000; stroke-width: 0.8"/>
      </g>
     </g>
     <g id="text_5">
      <!-- 12.5 -->
      <g transform="translate(242.305465 206.838437)scale(0.1 -0.1)">
       <use xlink:href="#DejaVuSans-31"/>
       <use xlink:href="#DejaVuSans-32" x="63.623047"/>
       <use xlink:href="#DejaVuSans-2e" x="127.246094"/>
       <use xlink:href="#DejaVuSans-35" x="159.033203"/>
      </g>
     </g>
    </g>
    <g id="xtick_6">
     <g id="line2d_6">
      <g>
       <use xlink:href="#m219cbd778b" x="293.486124" y="192.24" style="stroke: #000000; stroke-width: 0.8"/>
      </g>
     </g>
     <g id="text_6">
      <!-- 15.0 -->
      <g transform="translate(282.353312 206.838437)scale(0.1 -0.1)">
       <use xlink:href="#DejaVuSans-31"/>
       <use xlink:href="#DejaVuSans-35" x="63.623047"/>
       <use xlink:href="#DejaVuSans-2e" x="127.246094"/>
       <use xlink:href="#DejaVuSans-30" x="159.033203"/>
      </g>
     </g>
    </g>
    <g id="xtick_7">
     <g id="line2d_7">
      <g>
       <use xlink:href="#m219cbd778b" x="333.533971" y="192.24" style="stroke: #000000; stroke-width: 0.8"/>
      </g>
     </g>
     <g id="text_7">
      <!-- 17.5 -->
      <g transform="translate(322.401159 206.838437)scale(0.1 -0.1)">
       <use xlink:href="#DejaVuSans-31"/>
       <use xlink:href="#DejaVuSans-37" x="63.623047"/>
       <use xlink:href="#DejaVuSans-2e" x="127.246094"/>
       <use xlink:href="#DejaVuSans-35" x="159.033203"/>
      </g>
     </g>
    </g>
    <g id="xtick_8">
     <g id="line2d_8">
      <g>
       <use xlink:href="#m219cbd778b" x="373.581818" y="192.24" style="stroke: #000000; stroke-width: 0.8"/>
      </g>
     </g>
     <g id="text_8">
      <!-- 20.0 -->
      <g transform="translate(362.449006 206.838437)scale(0.1 -0.1)">
       <use xlink:href="#DejaVuSans-32"/>
       <use xlink:href="#DejaVuSans-30" x="63.623047"/>
       <use xlink:href="#DejaVuSans-2e" x="127.246094"/>
       <use xlink:href="#DejaVuSans-30" x="159.033203"/>
      </g>
     </g>
    </g>
    <g id="text_9">
     <!-- Rebalance Period -->
     <g transform="translate(178.210938 220.516562)scale(0.1 -0.1)">
      <defs>
       <path id="DejaVuSans-52" d="M 2841 2188 
Q 3044 2119 3236 1894 
Q 3428 1669 3622 1275 
L 4263 0 
L 3584 0 
L 2988 1197 
Q 2756 1666 2539 1819 
Q 2322 1972 1947 1972 
L 1259 1972 
L 1259 0 
L 628 0 
L 628 4666 
L 2053 4666 
Q 2853 4666 3247 4331 
Q 3641 3997 3641 3322 
Q 3641 2881 3436 2590 
Q 3231 2300 2841 2188 
z
M 1259 4147 
L 1259 2491 
L 2053 2491 
Q 2509 2491 2742 2702 
Q 2975 2913 2975 3322 
Q 2975 3731 2742 3939 
Q 2509 4147 2053 4147 
L 1259 4147 
z
" transform="scale(0.015625)"/>
       <path id="DejaVuSans-65" d="M 3597 1894 
L 3597 1613 
L 953 1613 
Q 991 1019 1311 708 
Q 1631 397 2203 397 
Q 2534 397 2845 478 
Q 3156 559 3463 722 
L 3463 178 
Q 3153 47 2828 -22 
Q 2503 -91 2169 -91 
Q 1331 -91 842 396 
Q 353 884 353 1716 
Q 353 2575 817 3079 
Q 1281 3584 2069 3584 
Q 2775 3584 3186 3129 
Q 3597 2675 3597 1894 
z
M 3022 2063 
Q 3016 2534 2758 2815 
Q 2500 3097 2075 3097 
Q 1594 3097 1305 2825 
Q 1016 2553 972 2059 
L 3022 2063 
z
" transform="scale(0.015625)"/>
       <path id="DejaVuSans-62" d="M 3116 1747 
Q 3116 2381 2855 2742 
Q 2594 3103 2138 3103 
Q 1681 3103 1420 2742 
Q 1159 2381 1159 1747 
Q 1159 1113 1420 752 
Q 1681 391 2138 391 
Q 2594 391 2855 752 
Q 3116 1113 3116 1747 
z
M 1159 2969 
Q 1341 3281 1617 3432 
Q 1894 3584 2278 3584 
Q 2916 3584 3314 3078 
Q 3713 2572 3713 1747 
Q 3713 922 3314 415 
Q 2916 -91 2278 -91 
Q 1894 -91 1617 61 
Q 1341 213 1159 525 
L 1159 0 
L 581 0 
L 581 4863 
L 1159 4863 
L 1159 2969 
z
" transform="scale(0.015625)"/>
       <path id="DejaVuSans-61" d="M 2194 1759 
Q 1497 1759 1228 1600 
Q 959 1441 959 1056 
Q 959 750 1161 570 
Q 1363 391 1709 391 
Q 2188 391 2477 730 
Q 2766 1069 2766 1631 
L 2766 1759 
L 2194 1759 
z
M 3341 1997 
L 3341 0 
L 2766 0 
L 2766 531 
Q 2569 213 2275 61 
Q 1981 -91 1556 -91 
Q 1019 -91 701 211 
Q 384 513 384 1019 
Q 384 1609 779 1909 
Q 1175 2209 1959 2209 
L 2766 2209 
L 2766 2266 
Q 2766 2663 2505 2880 
Q 2244 3097 1772 3097 
Q 1472 3097 1187 3025 
Q 903 2953 641 2809 
L 641 3341 
Q 956 3463 1253 3523 
Q 1550 3584 1831 3584 
Q 2591 3584 2966 3190 
Q 3341 2797 3341 1997 
z
" transform="scale(0.015625)"/>
       <path id="DejaVuSans-6c" d="M 603 4863 
L 1178 4863 
L 1178 0 
L 603 0 
L 603 4863 
z
" transform="scale(0.015625)"/>
       <path id="DejaVuSans-6e" d="M 3513 2113 
L 3513 0 
L 2938 0 
L 2938 2094 
Q 2938 2591 2744 2837 
Q 2550 3084 2163 3084 
Q 1697 3084 1428 2787 
Q 1159 2491 1159 1978 
L 1159 0 
L 581 0 
L 581 3500 
L 1159 3500 
L 1159 2956 
Q 1366 3272 1645 3428 
Q 1925 3584 2291 3584 
Q 2894 3584 3203 3211 
Q 3513 2838 3513 2113 
z
" transform="scale(0.015625)"/>
       <path id="DejaVuSans-63" d="M 3122 3366 
L 3122 2828 
Q 2878 2963 2633 3030 
Q 2388 3097 2138 3097 
Q 1578 3097 1268 2742 
Q 959 2388 959 1747 
Q 959 1106 1268 751 
Q 1578 397 2138 397 
Q 2388 397 2633 464 
Q 2878 531 3122 666 
L 3122 134 
Q 2881 22 2623 -34 
Q 2366 -91 2075 -91 
Q 1284 -91 818 406 
Q 353 903 353 1747 
Q 353 2603 823 3093 
Q 1294 3584 2113 3584 
Q 2378 3584 2631 3529 
Q 2884 3475 3122 3366 
z
" transform="scale(0.015625)"/>
       <path id="DejaVuSans-20" transform="scale(0.015625)"/>
       <path id="DejaVuSans-50" d="M 1259 4147 
L 1259 2394 
L 2053 2394 
Q 2494 2394 2734 2622 
Q 2975 2850 2975 3272 
Q 2975 3691 2734 3919 
Q 2494 4147 2053 4147 
L 1259 4147 
z
M 628 4666 
L 2053 4666 
Q 2838 4666 3239 4311 
Q 3641 3956 3641 3272 
Q 3641 2581 3239 2228 
Q 2838 1875 2053 1875 
L 1259 1875 
L 1259 0 
L 628 0 
L 628 4666 
z
" transform="scale(0.015625)"/>
       <path id="DejaVuSans-72" d="M 2631 2963 
Q 2534 3019 2420 3045 
Q 2306 3072 2169 3072 
Q 1681 3072 1420 2755 
Q 1159 2438 1159 1844 
L 1159 0 
L 581 0 
L 581 3500 
L 1159 3500 
L 1159 2956 
Q 1341 3275 1631 3429 
Q 1922 3584 2338 3584 
Q 2397 3584 2469 3576 
Q 2541 3569 2628 3553 
L 2631 2963 
z
" transform="scale(0.015625)"/>
       <path id="DejaVuSans-69" d="M 603 3500 
L 1178 3500 
L 1178 0 
L 603 0 
L 603 3500 
z
M 603 4863 
L 1178 4863 
L 1178 4134 
L 603 4134 
L 603 4863 
z
" transform="scale(0.015625)"/>
       <path id="DejaVuSans-6f" d="M 1959 3097 
Q 1497 3097 1228 2736 
Q 959 2375 959 1747 
Q 959 1119 1226 758 
Q 1494 397 1959 397 
Q 2419 397 2687 759 
Q 2956 1122 2956 1747 
Q 2956 2369 2687 2733 
Q 2419 3097 1959 3097 
z
M 1959 3584 
Q 2709 3584 3137 3096 
Q 3566 2609 3566 1747 
Q 3566 888 3137 398 
Q 2709 -91 1959 -91 
Q 1206 -91 779 398 
Q 353 888 353 1747 
Q 353 2609 779 3096 
Q 1206 3584 1959 3584 
z
" transform="scale(0.015625)"/>
       <path id="DejaVuSans-64" d="M 2906 2969 
L 2906 4863 
L 3481 4863 
L 3481 0 
L 2906 0 
L 2906 525 
Q 2725 213 2448 61 
Q 2172 -91 1784 -91 
Q 1150 -91 751 415 
Q 353 922 353 1747 
Q 353 2572 751 3078 
Q 1150 3584 1784 3584 
Q 2172 3584 2448 3432 
Q 2725 3281 2906 2969 
z
M 947 1747 
Q 947 1113 1208 752 
Q 1469 391 1925 391 
Q 2381 391 2643 752 
Q 2906 1113 2906 1747 
Q 2906 2381 2643 2742 
Q 2381 3103 1925 3103 
Q 1469 3103 1208 2742 
Q 947 2381 947 1747 
z
" transform="scale(0.015625)"/>
      </defs>
      <use xlink:href="#DejaVuSans-52"/>
      <use xlink:href="#DejaVuSans-65" x="64.982422"/>
      <use xlink:href="#DejaVuSans-62" x="126.505859"/>
      <use xlink:href="#DejaVuSans-61" x="189.982422"/>
      <use xlink:href="#DejaVuSans-6c" x="251.261719"/>
      <use xlink:href="#DejaVuSans-61" x="279.044922"/>
      <use xlink:href="#DejaVuSans-6e" x="340.324219"/>
      <use xlink:href="#DejaVuSans-63" x="403.703125"/>
      <use xlink:href="#DejaVuSans-65" x="458.683594"/>
      <use xlink:href="#DejaVuSans-20" x="520.207031"/>
      <use xlink:href="#DejaVuSans-50" x="551.994141"/>
      <use xlink:href="#DejaVuSans-65" x="608.671875"/>
      <use xlink:href="#DejaVuSans-72" x="670.195312"/>
      <use xlink:href="#DejaVuSans-69" x="711.308594"/>
      <use xlink:href="#DejaVuSans-6f" x="739.091797"/>
      <use xlink:href="#DejaVuSans-64" x="800.273438"/>
     </g>
    </g>
   </g>
   <g id="matplotlib.axis_2">
    <g id="ytick_1">
     <g id="line2d_9">
      <defs>
       <path id="mac39936813" d="M 0 0 
L -3.5 0 
" style="stroke: #000000; stroke-width: 0.8"/>
      </defs>
      <g>
       <use xlink:href="#mac39936813" x="54" y="192.24" style="stroke: #000000; stroke-width: 0.8"/>
      </g>
     </g>
     <g id="text_10">
      <!-- 0.0 -->
      <g transform="translate(31.096875 196.039219)scale(0.1 -0.1)">
       <use xlink:href="#DejaVuSans-30"/>
       <use xlink:href="#DejaVuSans-2e" x="63.623047"/>
       <use xlink:href="#DejaVuSans-30" x="95.410156"/>
      </g>
     </g>
    </g>
    <g id="ytick_2">
     <g id="line2d_10">
      <g>
       <use xlink:href="#mac39936813" x="54" y="160.56" style="stroke: #000000; stroke-width: 0.8"/>
      </g>
     </g>
     <g id="text_11">
      <!-- 0.2 -->
      <g transform="translate(31.096875 164.359219)scale(0.1 -0.1)">
       <use xlink:href="#DejaVuSans-30"/>
       <use xlink:href="#DejaVuSans-2e" x="63.623047"/>
       <use xlink:href="#DejaVuSans-32" x="95.410156"/>
      </g>
     </g>
    </g>
    <g id="ytick_3">
     <g id="line2d_11">
      <g>
       <use xlink:href="#mac39936813" x="54" y="128.88" style="stroke: #000000; stroke-width: 0.8"/>
      </g>
     </g>
     <g id="text_12">
      <!-- 0.4 -->
      <g transform="translate(31.096875 132.679219)scale(0.1 -0.1)">
       <defs>
        <path id="DejaVuSans-34" d="M 2419 4116 
L 825 1625 
L 2419 1625 
L 2419 4116 
z
M 2253 4666 
L 3047 4666 
L 3047 1625 
L 3713 1625 
L 3713 1100 
L 3047 1100 
L 3047 0 
L 2419 0 
L 2419 1100 
L 313 1100 
L 313 1709 
L 2253 4666 
z
" transform="scale(0.015625)"/>
       </defs>
       <use xlink:href="#DejaVuSans-30"/>
       <use xlink:href="#DejaVuSans-2e" x="63.623047"/>
       <use xlink:href="#DejaVuSans-34" x="95.410156"/>
      </g>
     </g>
    </g>
    <g id="ytick_4">
     <g id="line2d_12">
      <g>
       <use xlink:href="#mac39936813" x="54" y="97.2" style="stroke: #000000; stroke-width: 0.8"/>
      </g>
     </g>
     <g id="text_13">
      <!-- 0.6 -->
      <g transform="translate(31.096875 100.999219)scale(0.1 -0.1)">
       <defs>
        <path id="DejaVuSans-36" d="M 2113 2584 
Q 1688 2584 1439 2293 
Q 1191 2003 1191 1497 
Q 1191 994 1439 701 
Q 1688 409 2113 409 
Q 2538 409 2786 701 
Q 3034 994 3034 1497 
Q 3034 2003 2786 2293 
Q 2538 2584 2113 2584 
z
M 3366 4563 
L 3366 3988 
Q 3128 4100 2886 4159 
Q 2644 4219 2406 4219 
Q 1781 4219 1451 3797 
Q 1122 3375 1075 2522 
Q 1259 2794 1537 2939 
Q 1816 3084 2150 3084 
Q 2853 3084 3261 2657 
Q 3669 2231 3669 1497 
Q 3669 778 3244 343 
Q 2819 -91 2113 -91 
Q 1303 -91 875 529 
Q 447 1150 447 2328 
Q 447 3434 972 4092 
Q 1497 4750 2381 4750 
Q 2619 4750 2861 4703 
Q 3103 4656 3366 4563 
z
" transform="scale(0.015625)"/>
       </defs>
       <use xlink:href="#DejaVuSans-30"/>
       <use xlink:href="#DejaVuSans-2e" x="63.623047"/>
       <use xlink:href="#DejaVuSans-36" x="95.410156"/>
      </g>
     </g>
    </g>
    <g id="ytick_5">
     <g id="line2d_13">
      <g>
       <use xlink:href="#mac39936813" x="54" y="65.52" style="stroke: #000000; stroke-width: 0.8"/>
      </g>
     </g>
     <g id="text_14">
      <!-- 0.8 -->
      <g transform="translate(31.096875 69.319219)scale(0.1 -0.1)">
       <defs>
        <path id="DejaVuSans-38" d="M 2034 2216 
Q 1584 2216 1326 1975 
Q 1069 1734 1069 1313 
Q 1069 891 1326 650 
Q 1584 409 2034 409 
Q 2484 409 2743 651 
Q 3003 894 3003 1313 
Q 3003 1734 2745 1975 
Q 2488 2216 2034 2216 
z
M 1403 2484 
Q 997 2584 770 2862 
Q 544 3141 544 3541 
Q 544 4100 942 4425 
Q 1341 4750 2034 4750 
Q 2731 4750 3128 4425 
Q 3525 4100 3525 3541 
Q 3525 3141 3298 2862 
Q 3072 2584 2669 2484 
Q 3125 2378 3379 2068 
Q 3634 1759 3634 1313 
Q 3634 634 3220 271 
Q 2806 -91 2034 -91 
Q 1263 -91 848 271 
Q 434 634 434 1313 
Q 434 1759 690 2068 
Q 947 2378 1403 2484 
z
M 1172 3481 
Q 1172 3119 1398 2916 
Q 1625 2713 2034 2713 
Q 2441 2713 2670 2916 
Q 2900 3119 2900 3481 
Q 2900 3844 2670 4047 
Q 2441 4250 2034 4250 
Q 1625 4250 1398 4047 
Q 1172 3844 1172 3481 
z
" transform="scale(0.015625)"/>
       </defs>
       <use xlink:href="#DejaVuSans-30"/>
       <use xlink:href="#DejaVuSans-2e" x="63.623047"/>
       <use xlink:href="#DejaVuSans-38" x="95.410156"/>
      </g>
     </g>
    </g>
    <g id="ytick_6">
     <g id="line2d_14">
      <g>
       <use xlink:href="#mac39936813" x="54" y="33.84" style="stroke: #000000; stroke-width: 0.8"/>
      </g>
     </g>
     <g id="text_15">
      <!-- 1.0 -->
      <g transform="translate(31.096875 37.639219)scale(0.1 -0.1)">
       <use xlink:href="#DejaVuSans-31"/>
       <use xlink:href="#DejaVuSans-2e" x="63.623047"/>
       <use xlink:href="#DejaVuSans-30" x="95.410156"/>
      </g>
     </g>
    </g>
    <g id="text_16">
     <!-- Weights -->
     <g transform="translate(25.017187 129.103437)rotate(-90)scale(0.1 -0.1)">
      <defs>
       <path id="DejaVuSans-57" d="M 213 4666 
L 850 4666 
L 1831 722 
L 2809 4666 
L 3519 4666 
L 4500 722 
L 5478 4666 
L 6119 4666 
L 4947 0 
L 4153 0 
L 3169 4050 
L 2175 0 
L 1381 0 
L 213 4666 
z
" transform="scale(0.015625)"/>
       <path id="DejaVuSans-67" d="M 2906 1791 
Q 2906 2416 2648 2759 
Q 2391 3103 1925 3103 
Q 1463 3103 1205 2759 
Q 947 2416 947 1791 
Q 947 1169 1205 825 
Q 1463 481 1925 481 
Q 2391 481 2648 825 
Q 2906 1169 2906 1791 
z
M 3481 434 
Q 3481 -459 3084 -895 
Q 2688 -1331 1869 -1331 
Q 1566 -1331 1297 -1286 
Q 1028 -1241 775 -1147 
L 775 -588 
Q 1028 -725 1275 -790 
Q 1522 -856 1778 -856 
Q 2344 -856 2625 -561 
Q 2906 -266 2906 331 
L 2906 616 
Q 2728 306 2450 153 
Q 2172 0 1784 0 
Q 1141 0 747 490 
Q 353 981 353 1791 
Q 353 2603 747 3093 
Q 1141 3584 1784 3584 
Q 2172 3584 2450 3431 
Q 2728 3278 2906 2969 
L 2906 3500 
L 3481 3500 
L 3481 434 
z
" transform="scale(0.015625)"/>
       <path id="DejaVuSans-68" d="M 3513 2113 
L 3513 0 
L 2938 0 
L 2938 2094 
Q 2938 2591 2744 2837 
Q 2550 3084 2163 3084 
Q 1697 3084 1428 2787 
Q 1159 2491 1159 1978 
L 1159 0 
L 581 0 
L 581 4863 
L 1159 4863 
L 1159 2956 
Q 1366 3272 1645 3428 
Q 1925 3584 2291 3584 
Q 2894 3584 3203 3211 
Q 3513 2838 3513 2113 
z
" transform="scale(0.015625)"/>
       <path id="DejaVuSans-74" d="M 1172 4494 
L 1172 3500 
L 2356 3500 
L 2356 3053 
L 1172 3053 
L 1172 1153 
Q 1172 725 1289 603 
Q 1406 481 1766 481 
L 2356 481 
L 2356 0 
L 1766 0 
Q 1100 0 847 248 
Q 594 497 594 1153 
L 594 3053 
L 172 3053 
L 172 3500 
L 594 3500 
L 594 4494 
L 1172 4494 
z
" transform="scale(0.015625)"/>
       <path id="DejaVuSans-73" d="M 2834 3397 
L 2834 2853 
Q 2591 2978 2328 3040 
Q 2066 3103 1784 3103 
Q 1356 3103 1142 2972 
Q 928 2841 928 2578 
Q 928 2378 1081 2264 
Q 1234 2150 1697 2047 
L 1894 2003 
Q 2506 1872 2764 1633 
Q 3022 1394 3022 966 
Q 3022 478 2636 193 
Q 2250 -91 1575 -91 
Q 1294 -91 989 -36 
Q 684 19 347 128 
L 347 722 
Q 666 556 975 473 
Q 1284 391 1588 391 
Q 1994 391 2212 530 
Q 2431 669 2431 922 
Q 2431 1156 2273 1281 
Q 2116 1406 1581 1522 
L 1381 1569 
Q 847 1681 609 1914 
Q 372 2147 372 2553 
Q 372 3047 722 3315 
Q 1072 3584 1716 3584 
Q 2034 3584 2315 3537 
Q 2597 3491 2834 3397 
z
" transform="scale(0.015625)"/>
      </defs>
      <use xlink:href="#DejaVuSans-57"/>
      <use xlink:href="#DejaVuSans-65" x="93.001953"/>
      <use xlink:href="#DejaVuSans-69" x="154.525391"/>
      <use xlink:href="#DejaVuSans-67" x="182.308594"/>
      <use xlink:href="#DejaVuSans-68" x="245.785156"/>
      <use xlink:href="#DejaVuSans-74" x="309.164062"/>
      <use xlink:href="#DejaVuSans-73" x="348.373047"/>
     </g>
    </g>
   </g>
   <g id="line2d_15">
    <path d="M 69.218182 184.32 
L 85.237321 184.32 
L 101.256459 184.32 
L 117.275598 184.32 
L 133.294737 184.32 
L 149.313876 184.32 
L 165.333014 184.32 
L 181.352153 184.32 
L 197.371292 184.32 
L 213.390431 184.32 
L 229.409569 184.32 
L 245.428708 184.32 
L 261.447847 184.32 
L 277.466986 184.32 
L 293.486124 184.32 
L 309.505263 184.32 
L 325.524402 184.32 
L 341.543541 184.32 
L 357.562679 184.32 
L 373.581818 184.32 
" clip-path="url(#p9a9ec615db)" style="fill: none; stroke: #1f77b4; stroke-width: 1.5; stroke-linecap: square"/>
   </g>
   <g id="line2d_16">
    <path d="M 69.218182 176.4 
L 85.237321 176.4 
L 101.256459 176.4 
L 117.275598 176.4 
L 133.294737 176.4 
L 149.313876 176.4 
L 165.333014 176.4 
L 181.352153 176.4 
L 197.371292 176.4 
L 213.390431 176.4 
L 229.409569 176.4 
L 245.428708 176.4 
L 261.447847 176.4 
L 277.466986 176.4 
L 293.486124 176.4 
L 309.505263 176.4 
L 325.524402 176.4 
L 341.543541 176.4 
L 357.562679 176.4 
L 373.581818 176.4 
" clip-path="url(#p9a9ec615db)" style="fill: none; stroke: #ff7f0e; stroke-width: 1.5; stroke-linecap: square"/>
   </g>
   <g id="line2d_17">
    <path d="M 69.218182 168.48 
L 85.237321 168.48 
L 101.256459 168.48 
L 117.275598 168.48 
L 133.294737 168.48 
L 149.313876 168.48 
L 165.333014 168.48 
L 181.352153 168.48 
L 197.371292 168.48 
L 213.390431 168.48 
L 229.409569 168.48 
L 245.428708 168.48 
L 261.447847 168.48 
L 277.466986 168.48 
L 293.486124 168.48 
L 309.505263 168.48 
L 325.524402 168.48 
L 341.543541 168.48 
L 357.562679 168.48 
L 373.581818 168.48 
" clip-path="url(#p9a9ec615db)" style="fill: none; stroke: #2ca02c; stroke-width: 1.5; stroke-linecap: square"/>
   </g>
   <g id="line2d_18">
    <path d="M 69.218182 160.56 
L 85.237321 160.56 
L 101.256459 160.56 
L 117.275598 160.56 
L 133.294737 160.56 
L 149.313876 160.56 
L 165.333014 160.56 
L 181.352153 160.56 
L 197.371292 160.56 
L 213.390431 160.56 
L 229.409569 160.56 
L 245.428708 160.56 
L 261.447847 160.56 
L 277.466986 160.56 
L 293.486124 160.56 
L 309.505263 160.56 
L 325.524402 160.56 
L 341.543541 160.56 
L 357.562679 160.56 
L 373.581818 160.56 
" clip-path="url(#p9a9ec615db)" style="fill: none; stroke: #d62728; stroke-width: 1.5; stroke-linecap: square"/>
   </g>
   <g id="line2d_19">
    <path d="M 69.218182 152.64 
L 85.237321 152.64 
L 101.256459 152.64 
L 117.275598 152.64 
L 133.294737 152.64 
L 149.313876 152.64 
L 165.333014 152.64 
L 181.352153 152.64 
L 197.371292 152.64 
L 213.390431 152.64 
L 229.409569 152.64 
L 245.428708 152.64 
L 261.447847 152.64 
L 277.466986 152.64 
L 293.486124 152.64 
L 309.505263 152.64 
L 325.524402 152.64 
L 341.543541 152.64 
L 357.562679 152.64 
L 373.581818 152.64 
" clip-path="url(#p9a9ec615db)" style="fill: none; stroke: #9467bd; stroke-width: 1.5; stroke-linecap: square"/>
   </g>
   <g id="line2d_20">
    <path d="M 69.218182 144.72 
L 85.237321 144.72 
L 101.256459 144.72 
L 117.275598 144.72 
L 133.294737 144.72 
L 149.313876 144.72 
L 165.333014 144.72 
L 181.352153 144.72 
L 197.371292 144.72 
L 213.390431 144.72 
L 229.409569 144.72 
L 245.428708 144.72 
L 261.447847 144.72 
L 277.466986 144.72 
L 293.486124 144.72 
L 309.505263 144.72 
L 325.524402 144.72 
L 341.543541 144.72 
L 357.562679 144.72 
L 373.581818 144.72 
" clip-path="url(#p9a9ec615db)" style="fill: none; stroke: #8c564b; stroke-width: 1.5; stroke-linecap: square"/>
   </g>
   <g id="line2d_21">
    <path d="M 69.218182 136.8 
L 85.237321 136.8 
L 101.256459 136.8 
L 117.275598 136.8 
L 133.294737 136.8 
L 149.313876 136.8 
L 165.333014 136.8 
L 181.352153 136.8 
L 197.371292 136.8 
L 213.390431 136.8 
L 229.409569 136.8 
L 245.428708 136.8 
L 261.447847 136.8 
L 277.466986 136.8 
L 293.486124 136.8 
L 309.505263 136.8 
L 325.524402 136.8 
L 341.543541 136.8 
L 357.562679 136.8 
L 373.581818 136.8 
" clip-path="url(#p9a9ec615db)" style="fill: none; stroke: #e377c2; stroke-width: 1.5; stroke-linecap: square"/>
   </g>
   <g id="line2d_22">
    <path d="M 69.218182 128.88 
L 85.237321 128.88 
L 101.256459 128.88 
L 117.275598 128.88 
L 133.294737 128.88 
L 149.313876 128.88 
L 165.333014 128.88 
L 181.352153 128.88 
L 197.371292 128.88 
L 213.390431 128.88 
L 229.409569 128.88 
L 245.428708 128.88 
L 261.447847 128.88 
L 277.466986 128.88 
L 293.486124 128.88 
L 309.505263 128.88 
L 325.524402 128.88 
L 341.543541 128.88 
L 357.562679 128.88 
L 373.581818 128.88 
" clip-path="url(#p9a9ec615db)" style="fill: none; stroke: #7f7f7f; stroke-width: 1.5; stroke-linecap: square"/>
   </g>
   <g id="line2d_23">
    <path d="M 69.218182 120.96 
L 85.237321 120.96 
L 101.256459 120.96 
L 117.275598 120.96 
L 133.294737 120.96 
L 149.313876 120.96 
L 165.333014 120.96 
L 181.352153 120.96 
L 197.371292 120.96 
L 213.390431 120.96 
L 229.409569 120.96 
L 245.428708 120.96 
L 261.447847 120.96 
L 277.466986 120.96 
L 293.486124 120.96 
L 309.505263 120.96 
L 325.524402 120.96 
L 341.543541 120.96 
L 357.562679 120.96 
L 373.581818 120.96 
" clip-path="url(#p9a9ec615db)" style="fill: none; stroke: #bcbd22; stroke-width: 1.5; stroke-linecap: square"/>
   </g>
   <g id="line2d_24">
    <path d="M 69.218182 113.04 
L 85.237321 113.04 
L 101.256459 113.04 
L 117.275598 113.04 
L 133.294737 113.04 
L 149.313876 113.04 
L 165.333014 113.04 
L 181.352153 113.04 
L 197.371292 113.04 
L 213.390431 113.04 
L 229.409569 113.04 
L 245.428708 113.04 
L 261.447847 113.04 
L 277.466986 113.04 
L 293.486124 113.04 
L 309.505263 113.04 
L 325.524402 113.04 
L 341.543541 113.04 
L 357.562679 113.04 
L 373.581818 113.04 
" clip-path="url(#p9a9ec615db)" style="fill: none; stroke: #17becf; stroke-width: 1.5; stroke-linecap: square"/>
   </g>
   <g id="line2d_25">
    <path d="M 69.218182 105.12 
L 85.237321 105.12 
L 101.256459 105.12 
L 117.275598 105.12 
L 133.294737 105.12 
L 149.313876 105.12 
L 165.333014 105.12 
L 181.352153 105.12 
L 197.371292 105.12 
L 213.390431 105.12 
L 229.409569 105.12 
L 245.428708 105.12 
L 261.447847 105.12 
L 277.466986 105.12 
L 293.486124 105.12 
L 309.505263 105.12 
L 325.524402 105.12 
L 341.543541 105.12 
L 357.562679 105.12 
L 373.581818 105.12 
" clip-path="url(#p9a9ec615db)" style="fill: none; stroke: #1f77b4; stroke-width: 1.5; stroke-linecap: square"/>
   </g>
   <g id="line2d_26">
    <path d="M 69.218182 97.2 
L 85.237321 97.2 
L 101.256459 97.2 
L 117.275598 97.2 
L 133.294737 97.2 
L 149.313876 97.2 
L 165.333014 97.2 
L 181.352153 97.2 
L 197.371292 97.2 
L 213.390431 97.2 
L 229.409569 97.2 
L 245.428708 97.2 
L 261.447847 97.2 
L 277.466986 97.2 
L 293.486124 97.2 
L 309.505263 97.2 
L 325.524402 97.2 
L 341.543541 97.2 
L 357.562679 97.2 
L 373.581818 97.2 
" clip-path="url(#p9a9ec615db)" style="fill: none; stroke: #ff7f0e; stroke-width: 1.5; stroke-linecap: square"/>
   </g>
   <g id="line2d_27">
    <path d="M 69.218182 89.28 
L 85.237321 89.28 
L 101.256459 89.28 
L 117.275598 89.28 
L 133.294737 89.28 
L 149.313876 89.28 
L 165.333014 89.28 
L 181.352153 89.28 
L 197.371292 89.28 
L 213.390431 89.28 
L 229.409569 89.28 
L 245.428708 89.28 
L 261.447847 89.28 
L 277.466986 89.28 
L 293.486124 89.28 
L 309.505263 89.28 
L 325.524402 89.28 
L 341.543541 89.28 
L 357.562679 89.28 
L 373.581818 89.28 
" clip-path="url(#p9a9ec615db)" style="fill: none; stroke: #2ca02c; stroke-width: 1.5; stroke-linecap: square"/>
   </g>
   <g id="line2d_28">
    <path d="M 69.218182 81.36 
L 85.237321 81.36 
L 101.256459 81.36 
L 117.275598 81.36 
L 133.294737 81.36 
L 149.313876 81.36 
L 165.333014 81.36 
L 181.352153 81.36 
L 197.371292 81.36 
L 213.390431 81.36 
L 229.409569 81.36 
L 245.428708 81.36 
L 261.447847 81.36 
L 277.466986 81.36 
L 293.486124 81.36 
L 309.505263 81.36 
L 325.524402 81.36 
L 341.543541 81.36 
L 357.562679 81.36 
L 373.581818 81.36 
" clip-path="url(#p9a9ec615db)" style="fill: none; stroke: #d62728; stroke-width: 1.5; stroke-linecap: square"/>
   </g>
   <g id="line2d_29">
    <path d="M 69.218182 73.44 
L 85.237321 73.44 
L 101.256459 73.44 
L 117.275598 73.44 
L 133.294737 73.44 
L 149.313876 73.44 
L 165.333014 73.44 
L 181.352153 73.44 
L 197.371292 73.44 
L 213.390431 73.44 
L 229.409569 73.44 
L 245.428708 73.44 
L 261.447847 73.44 
L 277.466986 73.44 
L 293.486124 73.44 
L 309.505263 73.44 
L 325.524402 73.44 
L 341.543541 73.44 
L 357.562679 73.44 
L 373.581818 73.44 
" clip-path="url(#p9a9ec615db)" style="fill: none; stroke: #9467bd; stroke-width: 1.5; stroke-linecap: square"/>
   </g>
   <g id="line2d_30">
    <path d="M 69.218182 65.52 
L 85.237321 65.52 
L 101.256459 65.52 
L 117.275598 65.52 
L 133.294737 65.52 
L 149.313876 65.52 
L 165.333014 65.52 
L 181.352153 65.52 
L 197.371292 65.52 
L 213.390431 65.52 
L 229.409569 65.52 
L 245.428708 65.52 
L 261.447847 65.52 
L 277.466986 65.52 
L 293.486124 65.52 
L 309.505263 65.52 
L 325.524402 65.52 
L 341.543541 65.52 
L 357.562679 65.52 
L 373.581818 65.52 
" clip-path="url(#p9a9ec615db)" style="fill: none; stroke: #8c564b; stroke-width: 1.5; stroke-linecap: square"/>
   </g>
   <g id="line2d_31">
    <path d="M 69.218182 57.6 
L 85.237321 57.6 
L 101.256459 57.6 
L 117.275598 57.6 
L 133.294737 57.6 
L 149.313876 57.6 
L 165.333014 57.6 
L 181.352153 57.6 
L 197.371292 57.6 
L 213.390431 57.6 
L 229.409569 57.6 
L 245.428708 57.6 
L 261.447847 57.6 
L 277.466986 57.6 
L 293.486124 57.6 
L 309.505263 57.6 
L 325.524402 57.6 
L 341.543541 57.6 
L 357.562679 57.6 
L 373.581818 57.6 
" clip-path="url(#p9a9ec615db)" style="fill: none; stroke: #e377c2; stroke-width: 1.5; stroke-linecap: square"/>
   </g>
   <g id="line2d_32">
    <path d="M 69.218182 49.68 
L 85.237321 49.68 
L 101.256459 49.68 
L 117.275598 49.68 
L 133.294737 49.68 
L 149.313876 49.68 
L 165.333014 49.68 
L 181.352153 49.68 
L 197.371292 49.68 
L 213.390431 49.68 
L 229.409569 49.68 
L 245.428708 49.68 
L 261.447847 49.68 
L 277.466986 49.68 
L 293.486124 49.68 
L 309.505263 49.68 
L 325.524402 49.68 
L 341.543541 49.68 
L 357.562679 49.68 
L 373.581818 49.68 
" clip-path="url(#p9a9ec615db)" style="fill: none; stroke: #7f7f7f; stroke-width: 1.5; stroke-linecap: square"/>
   </g>
   <g id="line2d_33">
    <path d="M 69.218182 41.76 
L 85.237321 41.76 
L 101.256459 41.76 
L 117.275598 41.76 
L 133.294737 41.76 
L 149.313876 41.76 
L 165.333014 41.76 
L 181.352153 41.76 
L 197.371292 41.76 
L 213.390431 41.76 
L 229.409569 41.76 
L 245.428708 41.76 
L 261.447847 41.76 
L 277.466986 41.76 
L 293.486124 41.76 
L 309.505263 41.76 
L 325.524402 41.76 
L 341.543541 41.76 
L 357.562679 41.76 
L 373.581818 41.76 
" clip-path="url(#p9a9ec615db)" style="fill: none; stroke: #bcbd22; stroke-width: 1.5; stroke-linecap: square"/>
   </g>
   <g id="line2d_34">
    <path d="M 69.218182 33.84 
L 85.237321 33.84 
L 101.256459 33.84 
L 117.275598 33.84 
L 133.294737 33.84 
L 149.313876 33.84 
L 165.333014 33.84 
L 181.352153 33.84 
L 197.371292 33.84 
L 213.390431 33.84 
L 229.409569 33.84 
L 245.428708 33.84 
L 261.447847 33.84 
L 277.466986 33.84 
L 293.486124 33.84 
L 309.505263 33.84 
L 325.524402 33.84 
L 341.543541 33.84 
L 357.562679 33.84 
L 373.581818 33.84 
" clip-path="url(#p9a9ec615db)" style="fill: none; stroke: #17becf; stroke-width: 1.5; stroke-linecap: square"/>
   </g>
   <g id="patch_3">
    <path d="M 54 192.24 
L 54 25.92 
" style="fill: none; stroke: #000000; stroke-width: 0.8; stroke-linejoin: miter; stroke-linecap: square"/>
   </g>
   <g id="patch_4">
    <path d="M 388.8 192.24 
L 388.8 25.92 
" style="fill: none; stroke: #000000; stroke-width: 0.8; stroke-linejoin: miter; stroke-linecap: square"/>
   </g>
   <g id="patch_5">
    <path d="M 54 192.24 
L 388.8 192.24 
" style="fill: none; stroke: #000000; stroke-width: 0.8; stroke-linejoin: miter; stroke-linecap: square"/>
   </g>
   <g id="patch_6">
    <path d="M 54 25.92 
L 388.8 25.92 
" style="fill: none; stroke: #000000; stroke-width: 0.8; stroke-linejoin: miter; stroke-linecap: square"/>
   </g>
   <g id="text_17">
    <!-- Portfolio weights -->
    <g transform="translate(171.459375 19.92)scale(0.12 -0.12)">
     <defs>
      <path id="DejaVuSans-66" d="M 2375 4863 
L 2375 4384 
L 1825 4384 
Q 1516 4384 1395 4259 
Q 1275 4134 1275 3809 
L 1275 3500 
L 2222 3500 
L 2222 3053 
L 1275 3053 
L 1275 0 
L 697 0 
L 697 3053 
L 147 3053 
L 147 3500 
L 697 3500 
L 697 3744 
Q 697 4328 969 4595 
Q 1241 4863 1831 4863 
L 2375 4863 
z
" transform="scale(0.015625)"/>
      <path id="DejaVuSans-77" d="M 269 3500 
L 844 3500 
L 1563 769 
L 2278 3500 
L 2956 3500 
L 3675 769 
L 4391 3500 
L 4966 3500 
L 4050 0 
L 3372 0 
L 2619 2869 
L 1863 0 
L 1184 0 
L 269 3500 
z
" transform="scale(0.015625)"/>
     </defs>
     <use xlink:href="#DejaVuSans-50"/>
     <use xlink:href="#DejaVuSans-6f" x="56.677734"/>
     <use xlink:href="#DejaVuSans-72" x="117.859375"/>
     <use xlink:href="#DejaVuSans-74" x="158.972656"/>
     <use xlink:href="#DejaVuSans-66" x="198.181641"/>
     <use xlink:href="#DejaVuSans-6f" x="233.386719"/>
     <use xlink:href="#DejaVuSans-6c" x="294.568359"/>
     <use xlink:href="#DejaVuSans-69" x="322.351562"/>
     <use xlink:href="#DejaVuSans-6f" x="350.134766"/>
     <use xlink:href="#DejaVuSans-20" x="411.316406"/>
     <use xlink:href="#DejaVuSans-77" x="443.103516"/>
     <use xlink:href="#DejaVuSans-65" x="524.890625"/>
     <use xlink:href="#DejaVuSans-69" x="586.414062"/>
     <use xlink:href="#DejaVuSans-67" x="614.197266"/>
     <use xlink:href="#DejaVuSans-68" x="677.673828"/>
     <use xlink:href="#DejaVuSans-74" x="741.052734"/>
     <use xlink:href="#DejaVuSans-73" x="780.261719"/>
    </g>
   </g>
   <g id="legend_1">
    <g id="patch_7">
     <path d="M 395.8 257.36125 
L 453.357813 257.36125 
Q 455.357813 257.36125 455.357813 255.36125 
L 455.357813 -37.20125 
Q 455.357813 -39.20125 453.357813 -39.20125 
L 395.8 -39.20125 
Q 393.8 -39.20125 393.8 -37.20125 
L 393.8 255.36125 
Q 393.8 257.36125 395.8 257.36125 
z
" style="fill: #ffffff; opacity: 0.8; stroke: #cccccc; stroke-linejoin: miter"/>
    </g>
    <g id="patch_8">
     <path d="M 397.8 -27.602813 
L 417.8 -27.602813 
L 417.8 -34.602813 
L 397.8 -34.602813 
z
" style="fill: #1f77b4; stroke: #1f77b4; stroke-linejoin: miter"/>
    </g>
    <g id="text_18">
     <!-- F -->
     <g transform="translate(425.8 -27.602813)scale(0.1 -0.1)">
      <defs>
       <path id="DejaVuSans-46" d="M 628 4666 
L 3309 4666 
L 3309 4134 
L 1259 4134 
L 1259 2759 
L 3109 2759 
L 3109 2228 
L 1259 2228 
L 1259 0 
L 628 0 
L 628 4666 
z
" transform="scale(0.015625)"/>
      </defs>
      <use xlink:href="#DejaVuSans-46"/>
     </g>
    </g>
    <g id="patch_9">
     <path d="M 397.8 -12.924688 
L 417.8 -12.924688 
L 417.8 -19.924688 
L 397.8 -19.924688 
z
" style="fill: #ff7f0e; stroke: #ff7f0e; stroke-linejoin: miter"/>
    </g>
    <g id="text_19">
     <!-- CAT -->
     <g transform="translate(425.8 -12.924688)scale(0.1 -0.1)">
      <defs>
       <path id="DejaVuSans-43" d="M 4122 4306 
L 4122 3641 
Q 3803 3938 3442 4084 
Q 3081 4231 2675 4231 
Q 1875 4231 1450 3742 
Q 1025 3253 1025 2328 
Q 1025 1406 1450 917 
Q 1875 428 2675 428 
Q 3081 428 3442 575 
Q 3803 722 4122 1019 
L 4122 359 
Q 3791 134 3420 21 
Q 3050 -91 2638 -91 
Q 1578 -91 968 557 
Q 359 1206 359 2328 
Q 359 3453 968 4101 
Q 1578 4750 2638 4750 
Q 3056 4750 3426 4639 
Q 3797 4528 4122 4306 
z
" transform="scale(0.015625)"/>
       <path id="DejaVuSans-41" d="M 2188 4044 
L 1331 1722 
L 3047 1722 
L 2188 4044 
z
M 1831 4666 
L 2547 4666 
L 4325 0 
L 3669 0 
L 3244 1197 
L 1141 1197 
L 716 0 
L 50 0 
L 1831 4666 
z
" transform="scale(0.015625)"/>
       <path id="DejaVuSans-54" d="M -19 4666 
L 3928 4666 
L 3928 4134 
L 2272 4134 
L 2272 0 
L 1638 0 
L 1638 4134 
L -19 4134 
L -19 4666 
z
" transform="scale(0.015625)"/>
      </defs>
      <use xlink:href="#DejaVuSans-43"/>
      <use xlink:href="#DejaVuSans-41" x="69.824219"/>
      <use xlink:href="#DejaVuSans-54" x="130.482422"/>
     </g>
    </g>
    <g id="patch_10">
     <path d="M 397.8 1.753437 
L 417.8 1.753437 
L 417.8 -5.246563 
L 397.8 -5.246563 
z
" style="fill: #2ca02c; stroke: #2ca02c; stroke-linejoin: miter"/>
    </g>
    <g id="text_20">
     <!-- DIS -->
     <g transform="translate(425.8 1.753437)scale(0.1 -0.1)">
      <defs>
       <path id="DejaVuSans-44" d="M 1259 4147 
L 1259 519 
L 2022 519 
Q 2988 519 3436 956 
Q 3884 1394 3884 2338 
Q 3884 3275 3436 3711 
Q 2988 4147 2022 4147 
L 1259 4147 
z
M 628 4666 
L 1925 4666 
Q 3281 4666 3915 4102 
Q 4550 3538 4550 2338 
Q 4550 1131 3912 565 
Q 3275 0 1925 0 
L 628 0 
L 628 4666 
z
" transform="scale(0.015625)"/>
       <path id="DejaVuSans-49" d="M 628 4666 
L 1259 4666 
L 1259 0 
L 628 0 
L 628 4666 
z
" transform="scale(0.015625)"/>
       <path id="DejaVuSans-53" d="M 3425 4513 
L 3425 3897 
Q 3066 4069 2747 4153 
Q 2428 4238 2131 4238 
Q 1616 4238 1336 4038 
Q 1056 3838 1056 3469 
Q 1056 3159 1242 3001 
Q 1428 2844 1947 2747 
L 2328 2669 
Q 3034 2534 3370 2195 
Q 3706 1856 3706 1288 
Q 3706 609 3251 259 
Q 2797 -91 1919 -91 
Q 1588 -91 1214 -16 
Q 841 59 441 206 
L 441 856 
Q 825 641 1194 531 
Q 1563 422 1919 422 
Q 2459 422 2753 634 
Q 3047 847 3047 1241 
Q 3047 1584 2836 1778 
Q 2625 1972 2144 2069 
L 1759 2144 
Q 1053 2284 737 2584 
Q 422 2884 422 3419 
Q 422 4038 858 4394 
Q 1294 4750 2059 4750 
Q 2388 4750 2728 4690 
Q 3069 4631 3425 4513 
z
" transform="scale(0.015625)"/>
      </defs>
      <use xlink:href="#DejaVuSans-44"/>
      <use xlink:href="#DejaVuSans-49" x="77.001953"/>
      <use xlink:href="#DejaVuSans-53" x="106.494141"/>
     </g>
    </g>
    <g id="patch_11">
     <path d="M 397.8 16.431562 
L 417.8 16.431562 
L 417.8 9.431562 
L 397.8 9.431562 
z
" style="fill: #d62728; stroke: #d62728; stroke-linejoin: miter"/>
    </g>
    <g id="text_21">
     <!-- MCD -->
     <g transform="translate(425.8 16.431562)scale(0.1 -0.1)">
      <defs>
       <path id="DejaVuSans-4d" d="M 628 4666 
L 1569 4666 
L 2759 1491 
L 3956 4666 
L 4897 4666 
L 4897 0 
L 4281 0 
L 4281 4097 
L 3078 897 
L 2444 897 
L 1241 4097 
L 1241 0 
L 628 0 
L 628 4666 
z
" transform="scale(0.015625)"/>
      </defs>
      <use xlink:href="#DejaVuSans-4d"/>
      <use xlink:href="#DejaVuSans-43" x="86.279297"/>
      <use xlink:href="#DejaVuSans-44" x="156.103516"/>
     </g>
    </g>
    <g id="patch_12">
     <path d="M 397.8 31.109688 
L 417.8 31.109688 
L 417.8 24.109688 
L 397.8 24.109688 
z
" style="fill: #9467bd; stroke: #9467bd; stroke-linejoin: miter"/>
    </g>
    <g id="text_22">
     <!-- KO -->
     <g transform="translate(425.8 31.109688)scale(0.1 -0.1)">
      <defs>
       <path id="DejaVuSans-4b" d="M 628 4666 
L 1259 4666 
L 1259 2694 
L 3353 4666 
L 4166 4666 
L 1850 2491 
L 4331 0 
L 3500 0 
L 1259 2247 
L 1259 0 
L 628 0 
L 628 4666 
z
" transform="scale(0.015625)"/>
       <path id="DejaVuSans-4f" d="M 2522 4238 
Q 1834 4238 1429 3725 
Q 1025 3213 1025 2328 
Q 1025 1447 1429 934 
Q 1834 422 2522 422 
Q 3209 422 3611 934 
Q 4013 1447 4013 2328 
Q 4013 3213 3611 3725 
Q 3209 4238 2522 4238 
z
M 2522 4750 
Q 3503 4750 4090 4092 
Q 4678 3434 4678 2328 
Q 4678 1225 4090 567 
Q 3503 -91 2522 -91 
Q 1538 -91 948 565 
Q 359 1222 359 2328 
Q 359 3434 948 4092 
Q 1538 4750 2522 4750 
z
" transform="scale(0.015625)"/>
      </defs>
      <use xlink:href="#DejaVuSans-4b"/>
      <use xlink:href="#DejaVuSans-4f" x="60.076172"/>
     </g>
    </g>
    <g id="patch_13">
     <path d="M 397.8 45.787812 
L 417.8 45.787812 
L 417.8 38.787812 
L 397.8 38.787812 
z
" style="fill: #8c564b; stroke: #8c564b; stroke-linejoin: miter"/>
    </g>
    <g id="text_23">
     <!-- PEP -->
     <g transform="translate(425.8 45.787812)scale(0.1 -0.1)">
      <defs>
       <path id="DejaVuSans-45" d="M 628 4666 
L 3578 4666 
L 3578 4134 
L 1259 4134 
L 1259 2753 
L 3481 2753 
L 3481 2222 
L 1259 2222 
L 1259 531 
L 3634 531 
L 3634 0 
L 628 0 
L 628 4666 
z
" transform="scale(0.015625)"/>
      </defs>
      <use xlink:href="#DejaVuSans-50"/>
      <use xlink:href="#DejaVuSans-45" x="60.302734"/>
      <use xlink:href="#DejaVuSans-50" x="123.486328"/>
     </g>
    </g>
    <g id="patch_14">
     <path d="M 397.8 60.465937 
L 417.8 60.465937 
L 417.8 53.465937 
L 397.8 53.465937 
z
" style="fill: #e377c2; stroke: #e377c2; stroke-linejoin: miter"/>
    </g>
    <g id="text_24">
     <!-- WMT -->
     <g transform="translate(425.8 60.465937)scale(0.1 -0.1)">
      <use xlink:href="#DejaVuSans-57"/>
      <use xlink:href="#DejaVuSans-4d" x="98.876953"/>
      <use xlink:href="#DejaVuSans-54" x="185.15625"/>
     </g>
    </g>
    <g id="patch_15">
     <path d="M 397.8 75.144062 
L 417.8 75.144062 
L 417.8 68.144062 
L 397.8 68.144062 
z
" style="fill: #7f7f7f; stroke: #7f7f7f; stroke-linejoin: miter"/>
    </g>
    <g id="text_25">
     <!-- C -->
     <g transform="translate(425.8 75.144062)scale(0.1 -0.1)">
      <use xlink:href="#DejaVuSans-43"/>
     </g>
    </g>
    <g id="patch_16">
     <path d="M 397.8 89.822187 
L 417.8 89.822187 
L 417.8 82.822187 
L 397.8 82.822187 
z
" style="fill: #bcbd22; stroke: #bcbd22; stroke-linejoin: miter"/>
    </g>
    <g id="text_26">
     <!-- WFC -->
     <g transform="translate(425.8 89.822187)scale(0.1 -0.1)">
      <use xlink:href="#DejaVuSans-57"/>
      <use xlink:href="#DejaVuSans-46" x="98.876953"/>
      <use xlink:href="#DejaVuSans-43" x="156.396484"/>
     </g>
    </g>
    <g id="patch_17">
     <path d="M 397.8 104.500312 
L 417.8 104.500312 
L 417.8 97.500312 
L 397.8 97.500312 
z
" style="fill: #17becf; stroke: #17becf; stroke-linejoin: miter"/>
    </g>
    <g id="text_27">
     <!-- JPM -->
     <g transform="translate(425.8 104.500312)scale(0.1 -0.1)">
      <defs>
       <path id="DejaVuSans-4a" d="M 628 4666 
L 1259 4666 
L 1259 325 
Q 1259 -519 939 -900 
Q 619 -1281 -91 -1281 
L -331 -1281 
L -331 -750 
L -134 -750 
Q 284 -750 456 -515 
Q 628 -281 628 325 
L 628 4666 
z
" transform="scale(0.015625)"/>
      </defs>
      <use xlink:href="#DejaVuSans-4a"/>
      <use xlink:href="#DejaVuSans-50" x="29.492188"/>
      <use xlink:href="#DejaVuSans-4d" x="89.794922"/>
     </g>
    </g>
    <g id="patch_18">
     <path d="M 397.8 119.178437 
L 417.8 119.178437 
L 417.8 112.178437 
L 397.8 112.178437 
z
" style="fill: #1f77b4; stroke: #1f77b4; stroke-linejoin: miter"/>
    </g>
    <g id="text_28">
     <!-- AAPL -->
     <g transform="translate(425.8 119.178437)scale(0.1 -0.1)">
      <defs>
       <path id="DejaVuSans-4c" d="M 628 4666 
L 1259 4666 
L 1259 531 
L 3531 531 
L 3531 0 
L 628 0 
L 628 4666 
z
" transform="scale(0.015625)"/>
      </defs>
      <use xlink:href="#DejaVuSans-41"/>
      <use xlink:href="#DejaVuSans-41" x="71.158203"/>
      <use xlink:href="#DejaVuSans-50" x="139.566406"/>
      <use xlink:href="#DejaVuSans-4c" x="199.869141"/>
     </g>
    </g>
    <g id="patch_19">
     <path d="M 397.8 133.856562 
L 417.8 133.856562 
L 417.8 126.856562 
L 397.8 126.856562 
z
" style="fill: #ff7f0e; stroke: #ff7f0e; stroke-linejoin: miter"/>
    </g>
    <g id="text_29">
     <!-- IBM -->
     <g transform="translate(425.8 133.856562)scale(0.1 -0.1)">
      <defs>
       <path id="DejaVuSans-42" d="M 1259 2228 
L 1259 519 
L 2272 519 
Q 2781 519 3026 730 
Q 3272 941 3272 1375 
Q 3272 1813 3026 2020 
Q 2781 2228 2272 2228 
L 1259 2228 
z
M 1259 4147 
L 1259 2741 
L 2194 2741 
Q 2656 2741 2882 2914 
Q 3109 3088 3109 3444 
Q 3109 3797 2882 3972 
Q 2656 4147 2194 4147 
L 1259 4147 
z
M 628 4666 
L 2241 4666 
Q 2963 4666 3353 4366 
Q 3744 4066 3744 3513 
Q 3744 3084 3544 2831 
Q 3344 2578 2956 2516 
Q 3422 2416 3680 2098 
Q 3938 1781 3938 1306 
Q 3938 681 3513 340 
Q 3088 0 2303 0 
L 628 0 
L 628 4666 
z
" transform="scale(0.015625)"/>
      </defs>
      <use xlink:href="#DejaVuSans-49"/>
      <use xlink:href="#DejaVuSans-42" x="29.492188"/>
      <use xlink:href="#DejaVuSans-4d" x="98.095703"/>
     </g>
    </g>
    <g id="patch_20">
     <path d="M 397.8 148.534687 
L 417.8 148.534687 
L 417.8 141.534687 
L 397.8 141.534687 
z
" style="fill: #2ca02c; stroke: #2ca02c; stroke-linejoin: miter"/>
    </g>
    <g id="text_30">
     <!-- PFE -->
     <g transform="translate(425.8 148.534687)scale(0.1 -0.1)">
      <use xlink:href="#DejaVuSans-50"/>
      <use xlink:href="#DejaVuSans-46" x="60.302734"/>
      <use xlink:href="#DejaVuSans-45" x="117.822266"/>
     </g>
    </g>
    <g id="patch_21">
     <path d="M 397.8 163.212812 
L 417.8 163.212812 
L 417.8 156.212812 
L 397.8 156.212812 
z
" style="fill: #d62728; stroke: #d62728; stroke-linejoin: miter"/>
    </g>
    <g id="text_31">
     <!-- JNJ -->
     <g transform="translate(425.8 163.212812)scale(0.1 -0.1)">
      <defs>
       <path id="DejaVuSans-4e" d="M 628 4666 
L 1478 4666 
L 3547 763 
L 3547 4666 
L 4159 4666 
L 4159 0 
L 3309 0 
L 1241 3903 
L 1241 0 
L 628 0 
L 628 4666 
z
" transform="scale(0.015625)"/>
      </defs>
      <use xlink:href="#DejaVuSans-4a"/>
      <use xlink:href="#DejaVuSans-4e" x="29.492188"/>
      <use xlink:href="#DejaVuSans-4a" x="104.296875"/>
     </g>
    </g>
    <g id="patch_22">
     <path d="M 397.8 177.890937 
L 417.8 177.890937 
L 417.8 170.890937 
L 397.8 170.890937 
z
" style="fill: #9467bd; stroke: #9467bd; stroke-linejoin: miter"/>
    </g>
    <g id="text_32">
     <!-- XOM -->
     <g transform="translate(425.8 177.890937)scale(0.1 -0.1)">
      <defs>
       <path id="DejaVuSans-58" d="M 403 4666 
L 1081 4666 
L 2241 2931 
L 3406 4666 
L 4084 4666 
L 2584 2425 
L 4184 0 
L 3506 0 
L 2194 1984 
L 872 0 
L 191 0 
L 1856 2491 
L 403 4666 
z
" transform="scale(0.015625)"/>
      </defs>
      <use xlink:href="#DejaVuSans-58"/>
      <use xlink:href="#DejaVuSans-4f" x="62.130859"/>
      <use xlink:href="#DejaVuSans-4d" x="140.841797"/>
     </g>
    </g>
    <g id="patch_23">
     <path d="M 397.8 192.569062 
L 417.8 192.569062 
L 417.8 185.569062 
L 397.8 185.569062 
z
" style="fill: #8c564b; stroke: #8c564b; stroke-linejoin: miter"/>
    </g>
    <g id="text_33">
     <!-- MRO -->
     <g transform="translate(425.8 192.569062)scale(0.1 -0.1)">
      <use xlink:href="#DejaVuSans-4d"/>
      <use xlink:href="#DejaVuSans-52" x="86.279297"/>
      <use xlink:href="#DejaVuSans-4f" x="155.761719"/>
     </g>
    </g>
    <g id="patch_24">
     <path d="M 397.8 207.247187 
L 417.8 207.247187 
L 417.8 200.247187 
L 397.8 200.247187 
z
" style="fill: #e377c2; stroke: #e377c2; stroke-linejoin: miter"/>
    </g>
    <g id="text_34">
     <!-- ED -->
     <g transform="translate(425.8 207.247187)scale(0.1 -0.1)">
      <use xlink:href="#DejaVuSans-45"/>
      <use xlink:href="#DejaVuSans-44" x="63.183594"/>
     </g>
    </g>
    <g id="patch_25">
     <path d="M 397.8 221.925312 
L 417.8 221.925312 
L 417.8 214.925312 
L 397.8 214.925312 
z
" style="fill: #7f7f7f; stroke: #7f7f7f; stroke-linejoin: miter"/>
    </g>
    <g id="text_35">
     <!-- T -->
     <g transform="translate(425.8 221.925312)scale(0.1 -0.1)">
      <use xlink:href="#DejaVuSans-54"/>
     </g>
    </g>
    <g id="patch_26">
     <path d="M 397.8 236.603437 
L 417.8 236.603437 
L 417.8 229.603437 
L 397.8 229.603437 
z
" style="fill: #bcbd22; stroke: #bcbd22; stroke-linejoin: miter"/>
    </g>
    <g id="text_36">
     <!-- VZ -->
     <g transform="translate(425.8 236.603437)scale(0.1 -0.1)">
      <defs>
       <path id="DejaVuSans-56" d="M 1831 0 
L 50 4666 
L 709 4666 
L 2188 738 
L 3669 4666 
L 4325 4666 
L 2547 0 
L 1831 0 
z
" transform="scale(0.015625)"/>
       <path id="DejaVuSans-5a" d="M 359 4666 
L 4025 4666 
L 4025 4184 
L 1075 531 
L 4097 531 
L 4097 0 
L 288 0 
L 288 481 
L 3238 4134 
L 359 4134 
L 359 4666 
z
" transform="scale(0.015625)"/>
      </defs>
      <use xlink:href="#DejaVuSans-56"/>
      <use xlink:href="#DejaVuSans-5a" x="68.408203"/>
     </g>
    </g>
    <g id="patch_27">
     <path d="M 397.8 251.281562 
L 417.8 251.281562 
L 417.8 244.281562 
L 397.8 244.281562 
z
" style="fill: #17becf; stroke: #17becf; stroke-linejoin: miter"/>
    </g>
    <g id="text_37">
     <!-- NEM -->
     <g transform="translate(425.8 251.281562)scale(0.1 -0.1)">
      <use xlink:href="#DejaVuSans-4e"/>
      <use xlink:href="#DejaVuSans-45" x="74.804688"/>
      <use xlink:href="#DejaVuSans-4d" x="137.988281"/>
     </g>
    </g>
   </g>
  </g>
 </g>
 <defs>
  <clipPath id="p9a9ec615db">
   <rect x="54" y="25.92" width="334.8" height="166.32"/>
  </clipPath>
 </defs>
</svg>
